{"glyphs":{"0":{"ha":854,"x_min":69,"x_max":785,"o":"m 435 736 q 616 691 538 736 q 740 563 694 646 q 785 369 785 481 q 738 170 785 258 q 610 31 692 82 q 419 -19 529 -19 q 240 26 319 -19 q 115 153 160 71 q 69 347 69 236 q 115 545 69 457 q 242 685 160 633 q 435 736 325 736 m 422 711 q 283 616 338 711 q 229 351 229 521 q 257 151 229 226 q 331 40 285 75 q 432 6 378 6 q 571 101 517 6 q 625 365 625 196 q 597 567 625 490 q 523 677 569 643 q 422 711 476 711 z "},"1":{"ha":519,"x_min":63,"x_max":488,"o":"m 365 732 l 365 140 q 393 52 365 75 q 488 29 421 29 l 488 0 q 406 3 460 1 q 296 6 353 6 q 168 3 229 6 q 74 0 107 1 l 74 29 q 178 52 140 29 q 215 143 215 75 l 215 481 q 202 579 215 547 q 155 621 189 611 q 63 631 121 631 l 63 661 q 239 679 168 664 q 365 732 310 694 z "},"2":{"ha":686,"x_min":63,"x_max":625,"o":"m 353 736 q 511 690 453 736 q 569 560 569 644 q 543 458 569 506 q 474 367 517 410 q 383 283 432 324 q 290 205 335 243 q 213 126 244 167 l 501 126 q 574 142 558 126 q 594 194 589 157 l 619 194 q 621 71 619 114 q 625 -7 622 28 q 579 -3 613 -4 q 503 -1 546 -1 q 418 0 460 0 l 67 0 l 67 25 q 165 121 107 69 q 278 233 224 172 q 370 367 333 294 q 407 525 407 440 q 372 638 407 603 q 271 672 336 672 q 167 641 214 672 q 85 549 121 610 l 63 563 q 124 647 86 607 q 217 711 161 686 q 353 736 274 736 z "},"3":{"ha":643,"x_min":47,"x_max":586,"o":"m 324 736 q 434 717 386 736 q 509 663 482 699 q 536 576 536 628 q 505 478 536 524 q 422 399 474 432 q 304 347 369 367 q 443 325 379 349 q 547 255 507 301 q 586 136 586 208 q 555 19 586 72 q 469 -77 524 -35 q 345 -149 415 -119 q 199 -194 275 -179 q 47 -210 122 -210 l 47 -183 q 185 -160 117 -182 q 308 -99 253 -139 q 396 0 363 -60 q 429 136 429 60 q 390 272 429 218 q 283 331 351 325 q 246 315 263 321 q 215 308 229 308 q 198 313 204 308 q 192 328 192 318 q 204 349 192 342 q 231 356 217 356 q 253 353 242 356 q 279 350 265 351 q 362 442 338 392 q 386 544 386 493 q 353 640 386 610 q 265 669 321 669 q 161 640 208 669 q 82 550 114 610 l 57 563 q 114 648 79 608 q 200 712 149 688 q 324 736 251 736 z "},"4":{"ha":701,"x_min":19,"x_max":654,"o":"m 493 736 l 499 700 l 94 146 l 100 176 l 531 176 q 603 192 588 176 q 624 244 618 207 l 649 244 q 650 131 649 171 q 654 60 651 92 q 622 63 644 63 q 567 65 599 64 q 501 67 535 67 q 436 67 468 67 l 19 67 l 19 96 l 493 736 m 515 736 l 515 -196 l 388 -196 l 388 572 l 493 736 l 515 736 z "},"5":{"ha":597,"x_min":56,"x_max":544,"o":"m 488 781 q 489 651 488 697 q 493 567 490 604 q 451 571 482 569 q 379 573 419 572 q 300 574 339 574 l 131 574 l 113 317 q 185 349 143 335 q 290 363 228 363 q 434 334 378 363 q 517 257 490 306 q 544 147 544 208 q 501 1 544 67 q 387 -110 458 -64 q 229 -181 315 -156 q 56 -206 143 -206 l 56 -181 q 177 -160 118 -181 q 283 -100 236 -140 q 359 -1 331 -60 q 388 135 388 57 q 344 271 388 222 q 218 319 300 319 q 155 312 181 319 q 100 290 129 304 l 85 300 l 117 721 q 152 717 132 718 q 192 715 172 715 l 372 715 q 440 730 424 715 q 460 781 456 744 l 488 781 z "},"6":{"ha":739,"x_min":72,"x_max":689,"o":"m 571 1004 l 576 976 q 481 938 529 961 q 388 872 432 914 q 308 766 343 831 q 253 606 274 701 q 232 375 232 510 q 256 152 232 232 q 315 40 279 72 q 385 8 350 8 q 456 37 422 8 q 509 129 489 65 q 529 297 529 193 q 510 457 529 397 q 460 543 492 517 q 390 569 429 569 q 328 556 363 569 q 266 510 294 542 q 224 419 238 478 l 211 415 q 256 531 219 489 q 342 592 293 574 q 432 610 390 610 q 558 574 500 610 q 653 471 617 538 q 689 307 689 404 q 646 129 689 203 q 530 18 603 56 q 371 -19 457 -19 q 152 84 232 -19 q 72 375 72 188 q 105 599 72 501 q 191 767 138 696 q 310 888 244 839 q 444 965 376 936 q 571 1004 513 993 z "},"7":{"ha":586,"x_min":36,"x_max":579,"o":"m 36 722 q 82 718 49 719 q 158 716 115 717 q 243 715 201 715 l 579 715 l 579 686 q 509 544 550 618 q 428 385 468 469 q 363 201 389 300 q 338 -14 336 103 q 339 -52 338 -32 q 342 -91 340 -72 q 343 -125 343 -110 q 323 -182 343 -158 q 265 -206 303 -206 q 209 -178 228 -206 q 190 -112 190 -151 q 216 58 190 -25 q 282 222 242 142 q 371 376 322 301 q 466 522 419 451 q 549 661 513 593 l 511 581 l 160 581 q 88 566 103 581 q 67 513 72 551 l 42 513 q 40 640 42 593 q 36 722 39 688 z "},"8":{"ha":742,"x_min":68,"x_max":675,"o":"m 382 1003 q 505 981 450 1003 q 592 915 560 958 q 625 811 625 872 q 569 667 625 729 q 424 553 514 606 l 413 572 q 463 638 444 601 q 489 714 481 674 q 497 796 497 754 q 464 928 497 878 q 368 978 431 978 q 281 941 315 978 q 247 840 247 904 q 278 726 247 776 q 358 635 308 676 q 461 552 407 593 q 565 467 515 511 q 644 368 614 422 q 675 244 675 314 q 634 107 675 167 q 523 14 593 47 q 361 -19 453 -19 q 217 6 283 -19 q 109 85 150 32 q 68 215 68 138 q 101 342 68 286 q 188 440 133 397 q 310 511 243 482 l 321 492 q 232 378 257 444 q 207 238 207 311 q 222 124 207 176 q 274 38 238 71 q 369 6 310 6 q 485 51 438 6 q 532 176 532 96 q 502 295 532 243 q 424 392 472 347 q 323 478 376 436 q 222 564 269 519 q 144 662 174 608 q 114 783 114 715 q 150 901 114 851 q 247 976 186 950 q 382 1003 308 1003 z "},"9":{"ha":728,"x_min":47,"x_max":664,"o":"m 367 736 q 585 639 506 736 q 664 364 664 542 q 632 162 664 250 q 547 8 600 74 q 428 -102 493 -58 q 295 -172 363 -146 q 168 -207 228 -197 l 163 -179 q 281 -132 221 -162 q 392 -43 342 -101 q 474 114 443 15 q 504 364 504 213 q 481 574 504 500 q 424 678 458 649 q 353 708 389 708 q 282 680 315 708 q 228 588 249 651 q 207 419 207 524 q 226 260 207 319 q 277 174 244 200 q 347 147 310 147 q 409 161 375 147 q 472 208 443 175 q 513 297 501 240 l 526 301 q 480 185 517 226 q 396 125 443 143 q 306 107 349 107 q 178 142 238 107 q 83 245 119 178 q 47 410 47 313 q 91 588 47 514 q 208 699 135 661 q 367 736 281 736 z "},"A":{"ha":892,"x_min":-14,"x_max":901,"o":"m 469 989 l 808 117 q 853 47 828 65 q 901 28 879 29 l 901 0 q 823 3 868 3 q 732 4 778 4 q 624 3 674 4 q 543 0 574 3 l 543 28 q 633 52 614 31 q 624 144 651 74 l 374 819 l 396 844 l 165 242 q 135 138 140 179 q 142 72 131 96 q 183 39 154 49 q 256 28 213 29 l 256 0 q 172 3 214 3 q 92 4 129 4 q 33 3 58 4 q -14 0 7 3 l -14 28 q 44 63 15 35 q 100 157 74 90 l 422 989 q 446 989 433 989 q 469 989 458 989 m 615 400 l 615 372 l 201 372 l 215 400 l 615 400 z "},"Á":{"ha":892,"x_min":-14,"x_max":901,"o":"m 469 989 l 808 117 q 853 47 828 65 q 901 28 879 29 l 901 0 q 823 3 868 3 q 732 4 778 4 q 624 3 674 4 q 543 0 574 3 l 543 28 q 633 52 614 31 q 624 144 651 74 l 374 819 l 396 844 l 165 242 q 135 138 140 179 q 142 72 131 96 q 183 39 154 49 q 256 28 213 29 l 256 0 q 172 3 214 3 q 92 4 129 4 q 33 3 58 4 q -14 0 7 3 l -14 28 q 44 63 15 35 q 100 157 74 90 l 422 989 q 446 989 433 989 q 469 989 458 989 m 615 400 l 615 372 l 201 372 l 215 400 l 615 400 m 585 1290 q 640 1301 613 1307 q 679 1274 667 1296 q 683 1228 690 1253 q 646 1185 676 1204 q 578 1155 617 1168 q 489 1124 540 1142 q 364 1072 438 1106 l 354 1090 q 459 1178 419 1140 q 526 1244 499 1217 q 585 1290 554 1272 z "},"Ă":{"ha":892,"x_min":-14,"x_max":901,"o":"m 469 989 l 808 117 q 853 47 828 65 q 901 28 879 29 l 901 0 q 823 3 868 3 q 732 4 778 4 q 624 3 674 4 q 543 0 574 3 l 543 28 q 633 52 614 31 q 624 144 651 74 l 374 819 l 396 844 l 165 242 q 135 138 140 179 q 142 72 131 96 q 183 39 154 49 q 256 28 213 29 l 256 0 q 172 3 214 3 q 92 4 129 4 q 33 3 58 4 q -14 0 7 3 l -14 28 q 44 63 15 35 q 100 157 74 90 l 422 989 q 446 989 433 989 q 469 989 458 989 m 615 400 l 615 372 l 201 372 l 215 400 l 615 400 m 713 1265 l 729 1250 q 669 1173 708 1213 q 574 1107 631 1133 q 442 1081 517 1081 q 310 1107 367 1081 q 214 1173 253 1133 q 154 1250 175 1213 l 172 1264 q 272 1206 206 1235 q 442 1178 338 1178 q 613 1207 546 1178 q 713 1265 679 1236 z "},"Ắ":{"ha":892,"x_min":-14,"x_max":901,"o":"m 469 989 l 808 117 q 853 47 828 65 q 901 28 879 29 l 901 0 q 823 3 868 3 q 732 4 778 4 q 624 3 674 4 q 543 0 574 3 l 543 28 q 633 52 614 31 q 624 144 651 74 l 374 819 l 396 844 l 165 242 q 135 138 140 179 q 142 72 131 96 q 183 39 154 49 q 256 28 213 29 l 256 0 q 172 3 214 3 q 92 4 129 4 q 33 3 58 4 q -14 0 7 3 l -14 28 q 44 63 15 35 q 100 157 74 90 l 422 989 q 446 989 433 989 q 469 989 458 989 m 615 400 l 615 372 l 201 372 l 215 400 l 615 400 m 713 1265 l 729 1250 q 669 1173 708 1213 q 574 1107 631 1133 q 442 1081 517 1081 q 310 1107 367 1081 q 214 1173 253 1133 q 154 1250 175 1213 l 172 1264 q 272 1206 206 1235 q 442 1178 338 1178 q 613 1207 546 1178 q 713 1265 679 1236 m 585 1499 q 640 1510 613 1515 q 679 1482 667 1504 q 683 1437 690 1461 q 646 1393 676 1413 q 578 1363 617 1376 q 489 1332 540 1350 q 364 1281 438 1314 l 354 1299 q 459 1387 419 1349 q 526 1453 499 1425 q 585 1499 554 1481 z "},"Ặ":{"ha":892,"x_min":-14,"x_max":901,"o":"m 469 989 l 808 117 q 853 47 828 65 q 901 28 879 29 l 901 0 q 823 3 868 3 q 732 4 778 4 q 624 3 674 4 q 543 0 574 3 l 543 28 q 633 52 614 31 q 624 144 651 74 l 374 819 l 396 844 l 165 242 q 135 138 140 179 q 142 72 131 96 q 183 39 154 49 q 256 28 213 29 l 256 0 q 172 3 214 3 q 92 4 129 4 q 33 3 58 4 q -14 0 7 3 l -14 28 q 44 63 15 35 q 100 157 74 90 l 422 989 q 446 989 433 989 q 469 989 458 989 m 615 400 l 615 372 l 201 372 l 215 400 l 615 400 m 713 1265 l 729 1250 q 669 1173 708 1213 q 574 1107 631 1133 q 442 1081 517 1081 q 310 1107 367 1081 q 214 1173 253 1133 q 154 1250 175 1213 l 172 1264 q 272 1206 206 1235 q 442 1178 338 1178 q 613 1207 546 1178 q 713 1265 679 1236 m 446 -254 q 383 -232 408 -254 q 357 -172 357 -210 q 381 -112 357 -136 q 446 -89 404 -89 q 511 -113 488 -89 q 535 -172 535 -137 q 509 -232 535 -210 q 446 -254 483 -254 z "},"Ằ":{"ha":892,"x_min":-14,"x_max":901,"o":"m 469 989 l 808 117 q 853 47 828 65 q 901 28 879 29 l 901 0 q 823 3 868 3 q 732 4 778 4 q 624 3 674 4 q 543 0 574 3 l 543 28 q 633 52 614 31 q 624 144 651 74 l 374 819 l 396 844 l 165 242 q 135 138 140 179 q 142 72 131 96 q 183 39 154 49 q 256 28 213 29 l 256 0 q 172 3 214 3 q 92 4 129 4 q 33 3 58 4 q -14 0 7 3 l -14 28 q 44 63 15 35 q 100 157 74 90 l 422 989 q 446 989 433 989 q 469 989 458 989 m 615 400 l 615 372 l 201 372 l 215 400 l 615 400 m 713 1265 l 729 1250 q 669 1173 708 1213 q 574 1107 631 1133 q 442 1081 517 1081 q 310 1107 367 1081 q 214 1173 253 1133 q 154 1250 175 1213 l 172 1264 q 272 1206 206 1235 q 442 1178 338 1178 q 613 1207 546 1178 q 713 1265 679 1236 m 307 1499 q 365 1453 338 1481 q 433 1387 393 1425 q 538 1299 474 1349 l 528 1281 q 403 1332 456 1314 q 313 1363 350 1350 q 246 1393 276 1376 q 208 1437 215 1413 q 213 1482 201 1461 q 253 1510 226 1504 q 307 1499 279 1515 z "},"Ẳ":{"ha":892,"x_min":-14,"x_max":901,"o":"m 469 989 l 808 117 q 853 47 828 65 q 901 28 879 29 l 901 0 q 823 3 868 3 q 732 4 778 4 q 624 3 674 4 q 543 0 574 3 l 543 28 q 633 52 614 31 q 624 144 651 74 l 374 819 l 396 844 l 165 242 q 135 138 140 179 q 142 72 131 96 q 183 39 154 49 q 256 28 213 29 l 256 0 q 172 3 214 3 q 92 4 129 4 q 33 3 58 4 q -14 0 7 3 l -14 28 q 44 63 15 35 q 100 157 74 90 l 422 989 q 446 989 433 989 q 469 989 458 989 m 615 400 l 615 372 l 201 372 l 215 400 l 615 400 m 713 1265 l 729 1250 q 669 1173 708 1213 q 574 1107 631 1133 q 442 1081 517 1081 q 310 1107 367 1081 q 214 1173 253 1133 q 154 1250 175 1213 l 172 1264 q 272 1206 206 1235 q 442 1178 338 1178 q 613 1207 546 1178 q 713 1265 679 1236 m 428 1271 l 428 1347 q 499 1394 478 1367 q 519 1453 519 1421 q 490 1514 519 1493 q 419 1535 461 1535 q 383 1530 401 1535 q 354 1514 364 1525 q 390 1492 376 1508 q 403 1451 403 1476 q 384 1403 403 1421 q 336 1386 365 1386 q 290 1403 308 1386 q 272 1450 272 1421 q 289 1499 272 1478 q 326 1533 306 1519 q 377 1554 349 1546 q 450 1563 406 1563 q 533 1552 493 1563 q 600 1519 574 1542 q 626 1460 626 1497 q 605 1405 626 1431 q 545 1362 583 1379 q 456 1335 507 1344 l 456 1271 l 428 1271 z "},"Ẵ":{"ha":892,"x_min":-14,"x_max":901,"o":"m 469 989 l 808 117 q 853 47 828 65 q 901 28 879 29 l 901 0 q 823 3 868 3 q 732 4 778 4 q 624 3 674 4 q 543 0 574 3 l 543 28 q 633 52 614 31 q 624 144 651 74 l 374 819 l 396 844 l 165 242 q 135 138 140 179 q 142 72 131 96 q 183 39 154 49 q 256 28 213 29 l 256 0 q 172 3 214 3 q 92 4 129 4 q 33 3 58 4 q -14 0 7 3 l -14 28 q 44 63 15 35 q 100 157 74 90 l 422 989 q 446 989 433 989 q 469 989 458 989 m 615 400 l 615 372 l 201 372 l 215 400 l 615 400 m 713 1265 l 729 1250 q 669 1173 708 1213 q 574 1107 631 1133 q 442 1081 517 1081 q 310 1107 367 1081 q 214 1173 253 1133 q 154 1250 175 1213 l 172 1264 q 272 1206 206 1235 q 442 1178 338 1178 q 613 1207 546 1178 q 713 1265 679 1236 m 329 1471 q 406 1456 371 1471 q 472 1419 440 1440 q 535 1383 503 1399 q 606 1367 568 1367 q 660 1384 635 1367 q 701 1444 685 1401 l 722 1439 q 665 1320 713 1361 q 557 1279 617 1279 q 481 1294 515 1279 q 414 1331 446 1310 q 350 1367 382 1351 q 281 1383 318 1383 q 225 1366 250 1383 q 185 1306 200 1349 l 164 1311 q 222 1430 175 1389 q 329 1471 269 1471 z "},"Ǎ":{"ha":892,"x_min":-14,"x_max":901,"o":"m 469 989 l 808 117 q 853 47 828 65 q 901 28 879 29 l 901 0 q 823 3 868 3 q 732 4 778 4 q 624 3 674 4 q 543 0 574 3 l 543 28 q 633 52 614 31 q 624 144 651 74 l 374 819 l 396 844 l 165 242 q 135 138 140 179 q 142 72 131 96 q 183 39 154 49 q 256 28 213 29 l 256 0 q 172 3 214 3 q 92 4 129 4 q 33 3 58 4 q -14 0 7 3 l -14 28 q 44 63 15 35 q 100 157 74 90 l 422 989 q 446 989 433 989 q 469 989 458 989 m 615 400 l 615 372 l 201 372 l 215 400 l 615 400 m 714 1292 l 721 1272 q 560 1186 631 1239 q 453 1078 489 1133 l 428 1078 q 322 1186 393 1133 q 160 1272 250 1239 l 167 1292 q 336 1249 253 1275 q 468 1197 419 1222 q 577 1249 510 1222 q 714 1292 644 1275 z "},"Â":{"ha":892,"x_min":-14,"x_max":901,"o":"m 469 989 l 808 117 q 853 47 828 65 q 901 28 879 29 l 901 0 q 823 3 868 3 q 732 4 778 4 q 624 3 674 4 q 543 0 574 3 l 543 28 q 633 52 614 31 q 624 144 651 74 l 374 819 l 396 844 l 165 242 q 135 138 140 179 q 142 72 131 96 q 183 39 154 49 q 256 28 213 29 l 256 0 q 172 3 214 3 q 92 4 129 4 q 33 3 58 4 q -14 0 7 3 l -14 28 q 44 63 15 35 q 100 157 74 90 l 422 989 q 446 989 433 989 q 469 989 458 989 m 615 400 l 615 372 l 201 372 l 215 400 l 615 400 m 457 1283 q 563 1176 492 1228 q 725 1089 635 1124 l 718 1069 q 549 1113 632 1086 q 417 1164 467 1139 q 308 1113 376 1139 q 171 1069 240 1086 l 164 1089 q 325 1176 254 1124 q 432 1283 396 1228 l 457 1283 z "},"Ấ":{"ha":892,"x_min":-14,"x_max":901,"o":"m 469 989 l 808 117 q 853 47 828 65 q 901 28 879 29 l 901 0 q 823 3 868 3 q 732 4 778 4 q 624 3 674 4 q 543 0 574 3 l 543 28 q 633 52 614 31 q 624 144 651 74 l 374 819 l 396 844 l 165 242 q 135 138 140 179 q 142 72 131 96 q 183 39 154 49 q 256 28 213 29 l 256 0 q 172 3 214 3 q 92 4 129 4 q 33 3 58 4 q -14 0 7 3 l -14 28 q 44 63 15 35 q 100 157 74 90 l 422 989 q 446 989 433 989 q 469 989 458 989 m 615 400 l 615 372 l 201 372 l 215 400 l 615 400 m 457 1283 q 563 1176 492 1228 q 725 1089 635 1124 l 718 1069 q 549 1113 632 1086 q 417 1164 467 1139 q 308 1113 376 1139 q 171 1069 240 1086 l 164 1089 q 325 1176 254 1124 q 432 1283 396 1228 l 457 1283 m 585 1596 q 640 1607 613 1613 q 679 1579 667 1601 q 683 1534 690 1558 q 646 1490 676 1510 q 578 1460 617 1474 q 489 1429 540 1447 q 364 1378 438 1411 l 354 1396 q 459 1484 419 1446 q 526 1550 499 1522 q 585 1596 554 1578 z "},"Ậ":{"ha":892,"x_min":-14,"x_max":901,"o":"m 469 989 l 808 117 q 853 47 828 65 q 901 28 879 29 l 901 0 q 823 3 868 3 q 732 4 778 4 q 624 3 674 4 q 543 0 574 3 l 543 28 q 633 52 614 31 q 624 144 651 74 l 374 819 l 396 844 l 165 242 q 135 138 140 179 q 142 72 131 96 q 183 39 154 49 q 256 28 213 29 l 256 0 q 172 3 214 3 q 92 4 129 4 q 33 3 58 4 q -14 0 7 3 l -14 28 q 44 63 15 35 q 100 157 74 90 l 422 989 q 446 989 433 989 q 469 989 458 989 m 615 400 l 615 372 l 201 372 l 215 400 l 615 400 m 457 1283 q 563 1176 492 1228 q 725 1089 635 1124 l 718 1069 q 549 1113 632 1086 q 417 1164 467 1139 q 308 1113 376 1139 q 171 1069 240 1086 l 164 1089 q 325 1176 254 1124 q 432 1283 396 1228 l 457 1283 m 446 -254 q 383 -232 408 -254 q 357 -172 357 -210 q 381 -112 357 -136 q 446 -89 404 -89 q 511 -113 488 -89 q 535 -172 535 -137 q 509 -232 535 -210 q 446 -254 483 -254 z "},"Ầ":{"ha":892,"x_min":-14,"x_max":901,"o":"m 469 989 l 808 117 q 853 47 828 65 q 901 28 879 29 l 901 0 q 823 3 868 3 q 732 4 778 4 q 624 3 674 4 q 543 0 574 3 l 543 28 q 633 52 614 31 q 624 144 651 74 l 374 819 l 396 844 l 165 242 q 135 138 140 179 q 142 72 131 96 q 183 39 154 49 q 256 28 213 29 l 256 0 q 172 3 214 3 q 92 4 129 4 q 33 3 58 4 q -14 0 7 3 l -14 28 q 44 63 15 35 q 100 157 74 90 l 422 989 q 446 989 433 989 q 469 989 458 989 m 615 400 l 615 372 l 201 372 l 215 400 l 615 400 m 457 1283 q 563 1176 492 1228 q 725 1089 635 1124 l 718 1069 q 549 1113 632 1086 q 417 1164 467 1139 q 308 1113 376 1139 q 171 1069 240 1086 l 164 1089 q 325 1176 254 1124 q 432 1283 396 1228 l 457 1283 m 307 1596 q 365 1550 338 1578 q 433 1484 393 1522 q 538 1396 474 1446 l 528 1378 q 403 1429 456 1411 q 313 1460 350 1447 q 246 1490 276 1474 q 208 1534 215 1510 q 213 1579 201 1558 q 253 1607 226 1601 q 307 1596 279 1613 z "},"Ẩ":{"ha":892,"x_min":-14,"x_max":901,"o":"m 469 989 l 808 117 q 853 47 828 65 q 901 28 879 29 l 901 0 q 823 3 868 3 q 732 4 778 4 q 624 3 674 4 q 543 0 574 3 l 543 28 q 633 52 614 31 q 624 144 651 74 l 374 819 l 396 844 l 165 242 q 135 138 140 179 q 142 72 131 96 q 183 39 154 49 q 256 28 213 29 l 256 0 q 172 3 214 3 q 92 4 129 4 q 33 3 58 4 q -14 0 7 3 l -14 28 q 44 63 15 35 q 100 157 74 90 l 422 989 q 446 989 433 989 q 469 989 458 989 m 615 400 l 615 372 l 201 372 l 215 400 l 615 400 m 457 1283 q 563 1176 492 1228 q 725 1089 635 1124 l 718 1069 q 549 1113 632 1086 q 417 1164 467 1139 q 308 1113 376 1139 q 171 1069 240 1086 l 164 1089 q 325 1176 254 1124 q 432 1283 396 1228 l 457 1283 m 660 1274 l 660 1350 q 731 1397 710 1369 q 751 1456 751 1424 q 722 1517 751 1496 q 651 1538 693 1538 q 615 1533 633 1538 q 586 1517 596 1528 q 622 1495 608 1511 q 635 1454 635 1479 q 616 1406 635 1424 q 568 1389 597 1389 q 522 1406 540 1389 q 504 1453 504 1424 q 521 1501 504 1481 q 558 1536 538 1522 q 609 1557 581 1549 q 682 1565 638 1565 q 765 1555 725 1565 q 832 1522 806 1544 q 858 1463 858 1500 q 837 1408 858 1433 q 777 1365 815 1382 q 688 1338 739 1347 l 688 1274 l 660 1274 z "},"Ẫ":{"ha":892,"x_min":-14,"x_max":901,"o":"m 469 989 l 808 117 q 853 47 828 65 q 901 28 879 29 l 901 0 q 823 3 868 3 q 732 4 778 4 q 624 3 674 4 q 543 0 574 3 l 543 28 q 633 52 614 31 q 624 144 651 74 l 374 819 l 396 844 l 165 242 q 135 138 140 179 q 142 72 131 96 q 183 39 154 49 q 256 28 213 29 l 256 0 q 172 3 214 3 q 92 4 129 4 q 33 3 58 4 q -14 0 7 3 l -14 28 q 44 63 15 35 q 100 157 74 90 l 422 989 q 446 989 433 989 q 469 989 458 989 m 615 400 l 615 372 l 201 372 l 215 400 l 615 400 m 457 1283 q 563 1176 492 1228 q 725 1089 635 1124 l 718 1069 q 549 1113 632 1086 q 417 1164 467 1139 q 308 1113 376 1139 q 171 1069 240 1086 l 164 1089 q 325 1176 254 1124 q 432 1283 396 1228 l 457 1283 m 329 1568 q 406 1553 371 1568 q 472 1517 440 1538 q 535 1480 503 1496 q 606 1464 568 1464 q 660 1481 635 1464 q 701 1542 685 1499 l 722 1536 q 665 1417 713 1458 q 557 1376 617 1376 q 481 1392 515 1376 q 414 1428 446 1407 q 350 1465 382 1449 q 281 1481 318 1481 q 225 1463 250 1481 q 185 1403 200 1446 l 164 1408 q 222 1527 175 1486 q 329 1568 269 1568 z "},"Ä":{"ha":892,"x_min":-14,"x_max":901,"o":"m 469 989 l 808 117 q 853 47 828 65 q 901 28 879 29 l 901 0 q 823 3 868 3 q 732 4 778 4 q 624 3 674 4 q 543 0 574 3 l 543 28 q 633 52 614 31 q 624 144 651 74 l 374 819 l 396 844 l 165 242 q 135 138 140 179 q 142 72 131 96 q 183 39 154 49 q 256 28 213 29 l 256 0 q 172 3 214 3 q 92 4 129 4 q 33 3 58 4 q -14 0 7 3 l -14 28 q 44 63 15 35 q 100 157 74 90 l 422 989 q 446 989 433 989 q 469 989 458 989 m 615 400 l 615 372 l 201 372 l 215 400 l 615 400 m 599 1247 q 660 1220 633 1247 q 686 1158 686 1193 q 660 1095 686 1121 q 599 1069 633 1069 q 535 1095 561 1069 q 510 1158 510 1121 q 535 1220 510 1193 q 599 1247 561 1247 m 290 1247 q 353 1220 326 1247 q 379 1158 379 1193 q 353 1095 379 1121 q 290 1069 326 1069 q 228 1095 254 1069 q 203 1158 203 1121 q 228 1220 203 1193 q 290 1247 254 1247 z "},"Ạ":{"ha":892,"x_min":-14,"x_max":901,"o":"m 469 989 l 808 117 q 853 47 828 65 q 901 28 879 29 l 901 0 q 823 3 868 3 q 732 4 778 4 q 624 3 674 4 q 543 0 574 3 l 543 28 q 633 52 614 31 q 624 144 651 74 l 374 819 l 396 844 l 165 242 q 135 138 140 179 q 142 72 131 96 q 183 39 154 49 q 256 28 213 29 l 256 0 q 172 3 214 3 q 92 4 129 4 q 33 3 58 4 q -14 0 7 3 l -14 28 q 44 63 15 35 q 100 157 74 90 l 422 989 q 446 989 433 989 q 469 989 458 989 m 615 400 l 615 372 l 201 372 l 215 400 l 615 400 m 446 -254 q 383 -232 408 -254 q 357 -172 357 -210 q 381 -112 357 -136 q 446 -89 404 -89 q 511 -113 488 -89 q 535 -172 535 -137 q 509 -232 535 -210 q 446 -254 483 -254 z "},"À":{"ha":892,"x_min":-14,"x_max":901,"o":"m 469 989 l 808 117 q 853 47 828 65 q 901 28 879 29 l 901 0 q 823 3 868 3 q 732 4 778 4 q 624 3 674 4 q 543 0 574 3 l 543 28 q 633 52 614 31 q 624 144 651 74 l 374 819 l 396 844 l 165 242 q 135 138 140 179 q 142 72 131 96 q 183 39 154 49 q 256 28 213 29 l 256 0 q 172 3 214 3 q 92 4 129 4 q 33 3 58 4 q -14 0 7 3 l -14 28 q 44 63 15 35 q 100 157 74 90 l 422 989 q 446 989 433 989 q 469 989 458 989 m 615 400 l 615 372 l 201 372 l 215 400 l 615 400 m 307 1290 q 365 1244 338 1272 q 433 1178 393 1217 q 538 1090 474 1140 l 528 1072 q 403 1124 456 1106 q 313 1155 350 1142 q 246 1185 276 1168 q 208 1228 215 1204 q 213 1274 201 1253 q 253 1301 226 1296 q 307 1290 279 1307 z "},"Ả":{"ha":892,"x_min":-14,"x_max":901,"o":"m 469 989 l 808 117 q 853 47 828 65 q 901 28 879 29 l 901 0 q 823 3 868 3 q 732 4 778 4 q 624 3 674 4 q 543 0 574 3 l 543 28 q 633 52 614 31 q 624 144 651 74 l 374 819 l 396 844 l 165 242 q 135 138 140 179 q 142 72 131 96 q 183 39 154 49 q 256 28 213 29 l 256 0 q 172 3 214 3 q 92 4 129 4 q 33 3 58 4 q -14 0 7 3 l -14 28 q 44 63 15 35 q 100 157 74 90 l 422 989 q 446 989 433 989 q 469 989 458 989 m 615 400 l 615 372 l 201 372 l 215 400 l 615 400 m 428 1063 l 428 1139 q 499 1185 478 1158 q 519 1244 519 1213 q 490 1306 519 1285 q 419 1326 461 1326 q 383 1322 401 1326 q 354 1306 364 1317 q 390 1284 376 1300 q 403 1243 403 1268 q 384 1195 403 1213 q 336 1178 365 1178 q 290 1195 308 1178 q 272 1242 272 1213 q 289 1290 272 1269 q 326 1325 306 1311 q 377 1346 349 1338 q 450 1354 406 1354 q 533 1344 493 1354 q 600 1311 574 1333 q 626 1251 626 1289 q 605 1197 626 1222 q 545 1153 583 1171 q 456 1126 507 1136 l 456 1063 l 428 1063 z "},"Ā":{"ha":892,"x_min":-14,"x_max":901,"o":"m 469 989 l 808 117 q 853 47 828 65 q 901 28 879 29 l 901 0 q 823 3 868 3 q 732 4 778 4 q 624 3 674 4 q 543 0 574 3 l 543 28 q 633 52 614 31 q 624 144 651 74 l 374 819 l 396 844 l 165 242 q 135 138 140 179 q 142 72 131 96 q 183 39 154 49 q 256 28 213 29 l 256 0 q 172 3 214 3 q 92 4 129 4 q 33 3 58 4 q -14 0 7 3 l -14 28 q 44 63 15 35 q 100 157 74 90 l 422 989 q 446 989 433 989 q 469 989 458 989 m 615 400 l 615 372 l 201 372 l 215 400 l 615 400 m 700 1172 l 700 1138 l 189 1138 l 189 1172 l 700 1172 z "},"Ą":{"ha":892,"x_min":-14,"x_max":904,"o":"m 469 989 l 808 117 q 853 47 828 65 q 901 28 879 29 l 901 0 q 823 3 868 3 q 732 4 778 4 q 624 3 674 4 q 543 0 574 3 l 543 28 q 633 52 614 31 q 624 144 651 74 l 374 819 l 396 844 l 165 242 q 135 138 140 179 q 142 72 131 96 q 183 39 154 49 q 256 28 213 29 l 256 0 q 172 3 214 3 q 92 4 129 4 q 33 3 58 4 q -14 0 7 3 l -14 28 q 44 63 15 35 q 100 157 74 90 l 422 989 q 446 989 433 989 q 469 989 458 989 m 615 400 l 615 372 l 201 372 l 215 400 l 615 400 m 885 4 q 770 -58 801 -19 q 739 -132 739 -97 q 754 -175 739 -158 q 797 -192 769 -192 q 847 -178 824 -192 q 883 -149 869 -165 l 904 -167 q 829 -238 871 -215 q 736 -261 788 -261 q 651 -236 682 -261 q 621 -169 621 -211 q 676 -69 621 -114 q 832 4 732 -25 l 885 4 z "},"Å":{"ha":892,"x_min":-14,"x_max":901,"o":"m 469 989 l 808 117 q 853 47 828 65 q 901 28 879 29 l 901 0 q 823 3 868 3 q 732 4 778 4 q 624 3 674 4 q 543 0 574 3 l 543 28 q 633 52 614 31 q 624 144 651 74 l 374 819 l 396 844 l 165 242 q 135 138 140 179 q 142 72 131 96 q 183 39 154 49 q 256 28 213 29 l 256 0 q 172 3 214 3 q 92 4 129 4 q 33 3 58 4 q -14 0 7 3 l -14 28 q 44 63 15 35 q 100 157 74 90 l 422 989 q 446 989 433 989 q 469 989 458 989 m 615 400 l 615 372 l 201 372 l 215 400 l 615 400 m 444 1290 q 543 1256 501 1290 q 585 1161 585 1221 q 543 1065 585 1100 q 444 1031 501 1031 q 347 1065 389 1031 q 306 1161 306 1100 q 347 1256 306 1221 q 444 1290 389 1290 m 444 1261 q 377 1235 410 1261 q 344 1160 344 1210 q 377 1085 344 1110 q 444 1060 410 1060 q 513 1085 481 1060 q 546 1160 546 1110 q 513 1235 546 1210 q 444 1261 481 1261 z "},"Ã":{"ha":892,"x_min":-14,"x_max":901,"o":"m 469 989 l 808 117 q 853 47 828 65 q 901 28 879 29 l 901 0 q 823 3 868 3 q 732 4 778 4 q 624 3 674 4 q 543 0 574 3 l 543 28 q 633 52 614 31 q 624 144 651 74 l 374 819 l 396 844 l 165 242 q 135 138 140 179 q 142 72 131 96 q 183 39 154 49 q 256 28 213 29 l 256 0 q 172 3 214 3 q 92 4 129 4 q 33 3 58 4 q -14 0 7 3 l -14 28 q 44 63 15 35 q 100 157 74 90 l 422 989 q 446 989 433 989 q 469 989 458 989 m 615 400 l 615 372 l 201 372 l 215 400 l 615 400 m 329 1263 q 406 1247 371 1263 q 472 1211 440 1232 q 535 1174 503 1190 q 606 1158 568 1158 q 660 1176 635 1158 q 701 1236 685 1193 l 722 1231 q 665 1112 713 1153 q 557 1071 617 1071 q 481 1086 515 1071 q 414 1122 446 1101 q 350 1159 382 1143 q 281 1175 318 1175 q 225 1158 250 1175 q 185 1097 200 1140 l 164 1103 q 222 1222 175 1181 q 329 1263 269 1263 z "},"Æ":{"ha":1203,"x_min":-15,"x_max":1138,"o":"m 688 1072 l 133 144 q 114 56 94 81 q 204 28 133 31 l 204 0 q 149 3 183 3 q 78 4 115 4 q 27 3 53 4 q -15 0 1 3 l -15 28 q 29 49 7 29 q 81 117 51 68 l 654 1072 l 688 1072 m 1110 983 q 1102 884 1104 932 q 1100 811 1100 836 q 1101 761 1100 785 q 1104 722 1103 738 l 1072 722 q 1048 859 1064 808 q 1001 931 1032 910 q 917 951 971 951 l 843 951 q 773 944 797 951 q 741 912 749 936 q 733 836 733 888 l 733 147 q 741 72 733 97 q 773 40 749 47 q 843 32 797 32 l 933 32 q 1027 56 994 32 q 1076 137 1060 81 q 1100 289 1092 193 l 1132 289 q 1128 183 1128 249 q 1129 105 1128 156 q 1138 0 1131 54 q 989 3 1072 3 q 842 4 906 4 q 744 4 804 4 q 615 3 683 4 q 486 0 547 3 l 486 28 q 542 39 524 31 q 567 72 560 47 q 574 147 574 97 l 574 836 q 565 912 574 888 q 533 945 557 936 q 464 956 510 954 l 464 983 q 601 981 528 982 q 738 979 674 979 q 842 979 801 979 q 975 980 900 979 q 1110 983 1050 981 m 619 508 l 619 481 l 317 481 l 331 508 l 619 508 m 925 508 q 925 494 925 508 q 925 481 925 481 l 692 481 q 692 494 692 481 q 692 508 692 508 l 925 508 m 965 667 q 960 561 960 597 q 961 494 961 525 q 963 428 961 464 q 969 322 964 393 l 938 322 q 924 397 932 361 q 895 457 917 433 q 825 481 874 481 l 825 508 q 881 524 861 508 q 912 566 901 540 q 926 619 922 592 q 933 667 929 646 l 965 667 z "},"B":{"ha":888,"x_min":54,"x_max":832,"o":"m 54 983 q 137 981 86 982 q 238 979 188 979 q 365 981 304 979 q 450 982 425 982 q 683 921 606 982 q 760 764 760 860 q 737 667 760 715 q 663 581 714 619 q 526 521 611 543 l 526 518 q 710 468 643 506 q 804 378 776 431 q 832 269 832 326 q 790 127 832 188 q 670 33 749 67 q 482 0 592 0 q 390 2 451 0 q 240 4 328 4 q 137 3 188 4 q 54 0 86 3 l 54 28 q 125 39 101 31 q 156 72 149 47 q 164 147 164 97 l 164 836 q 156 912 164 888 q 124 945 149 936 q 54 956 100 954 l 54 983 m 421 956 q 342 932 361 956 q 324 836 324 908 l 324 147 q 332 74 324 99 q 362 40 340 49 q 425 32 383 32 q 606 95 550 32 q 663 275 663 158 q 606 440 663 382 q 421 499 550 499 l 286 499 q 286 510 286 499 q 286 522 286 522 l 406 522 q 524 553 482 522 q 581 637 565 585 q 596 749 596 689 q 556 903 596 851 q 421 956 515 956 z "},"C":{"ha":964,"x_min":69,"x_max":878,"o":"m 528 1003 q 678 976 619 1003 q 783 913 738 949 q 826 908 811 892 q 846 983 840 924 l 878 983 q 874 856 875 931 q 872 658 872 782 l 840 658 q 822 758 831 719 q 798 825 813 797 q 758 879 783 853 q 660 951 718 929 q 536 974 601 974 q 411 938 465 974 q 320 838 357 903 q 264 683 283 772 q 244 489 244 594 q 265 292 244 381 q 326 141 286 204 q 422 44 365 78 q 547 10 478 10 q 665 33 604 10 q 763 103 726 56 q 816 197 801 144 q 840 339 831 249 l 872 339 q 874 133 872 211 q 878 0 875 54 l 846 0 q 827 75 840 60 q 783 71 814 90 q 674 8 732 35 q 526 -19 617 -19 q 286 40 389 -19 q 126 213 183 100 q 69 483 69 325 q 128 756 69 639 q 290 938 188 872 q 528 1003 393 1003 z "},"Ć":{"ha":964,"x_min":69,"x_max":878,"o":"m 528 1003 q 678 976 619 1003 q 783 913 738 949 q 826 908 811 892 q 846 983 840 924 l 878 983 q 874 856 875 931 q 872 658 872 782 l 840 658 q 822 758 831 719 q 798 825 813 797 q 758 879 783 853 q 660 951 718 929 q 536 974 601 974 q 411 938 465 974 q 320 838 357 903 q 264 683 283 772 q 244 489 244 594 q 265 292 244 381 q 326 141 286 204 q 422 44 365 78 q 547 10 478 10 q 665 33 604 10 q 763 103 726 56 q 816 197 801 144 q 840 339 831 249 l 872 339 q 874 133 872 211 q 878 0 875 54 l 846 0 q 827 75 840 60 q 783 71 814 90 q 674 8 732 35 q 526 -19 617 -19 q 286 40 389 -19 q 126 213 183 100 q 69 483 69 325 q 128 756 69 639 q 290 938 188 872 q 528 1003 393 1003 m 653 1290 q 708 1301 681 1307 q 747 1274 735 1296 q 751 1228 758 1253 q 714 1185 744 1204 q 647 1155 685 1168 q 557 1124 608 1142 q 432 1072 506 1106 l 422 1090 q 527 1178 488 1140 q 594 1244 567 1217 q 653 1290 622 1272 z "},"Č":{"ha":964,"x_min":69,"x_max":878,"o":"m 528 1003 q 678 976 619 1003 q 783 913 738 949 q 826 908 811 892 q 846 983 840 924 l 878 983 q 874 856 875 931 q 872 658 872 782 l 840 658 q 822 758 831 719 q 798 825 813 797 q 758 879 783 853 q 660 951 718 929 q 536 974 601 974 q 411 938 465 974 q 320 838 357 903 q 264 683 283 772 q 244 489 244 594 q 265 292 244 381 q 326 141 286 204 q 422 44 365 78 q 547 10 478 10 q 665 33 604 10 q 763 103 726 56 q 816 197 801 144 q 840 339 831 249 l 872 339 q 874 133 872 211 q 878 0 875 54 l 846 0 q 827 75 840 60 q 783 71 814 90 q 674 8 732 35 q 526 -19 617 -19 q 286 40 389 -19 q 126 213 183 100 q 69 483 69 325 q 128 756 69 639 q 290 938 188 872 q 528 1003 393 1003 m 782 1292 l 789 1272 q 628 1186 699 1239 q 521 1078 557 1133 l 496 1078 q 390 1186 461 1133 q 228 1272 318 1239 l 235 1292 q 404 1249 321 1275 q 536 1197 488 1222 q 645 1249 578 1222 q 782 1292 713 1275 z "},"Ç":{"ha":964,"x_min":69,"x_max":878,"o":"m 528 1003 q 678 976 619 1003 q 783 913 738 949 q 826 908 811 892 q 846 983 840 924 l 878 983 q 874 856 875 931 q 872 658 872 782 l 840 658 q 822 758 831 719 q 798 825 813 797 q 758 879 783 853 q 660 951 718 929 q 536 974 601 974 q 411 938 465 974 q 320 838 357 903 q 264 683 283 772 q 244 489 244 594 q 265 292 244 381 q 326 141 286 204 q 422 44 365 78 q 547 10 478 10 q 665 33 604 10 q 763 103 726 56 q 816 197 801 144 q 840 339 831 249 l 872 339 q 874 133 872 211 q 878 0 875 54 l 846 0 q 827 75 840 60 q 783 71 814 90 q 674 8 732 35 q 526 -19 617 -19 q 286 40 389 -19 q 126 213 183 100 q 69 483 69 325 q 128 756 69 639 q 290 938 188 872 q 528 1003 393 1003 m 549 7 l 514 -97 q 556 -88 533 -92 q 604 -85 579 -85 q 672 -103 647 -85 q 696 -153 696 -121 q 668 -215 696 -192 q 600 -250 640 -239 q 518 -261 560 -261 q 448 -256 478 -261 q 397 -246 418 -251 l 404 -221 q 427 -224 411 -222 q 463 -225 443 -225 q 519 -219 490 -225 q 567 -201 547 -214 q 588 -164 588 -187 q 572 -135 588 -144 q 528 -126 556 -126 q 497 -128 517 -126 q 464 -136 478 -131 l 511 7 l 549 7 z "},"Ĉ":{"ha":964,"x_min":69,"x_max":878,"o":"m 528 1003 q 678 976 619 1003 q 783 913 738 949 q 826 908 811 892 q 846 983 840 924 l 878 983 q 874 856 875 931 q 872 658 872 782 l 840 658 q 822 758 831 719 q 798 825 813 797 q 758 879 783 853 q 660 951 718 929 q 536 974 601 974 q 411 938 465 974 q 320 838 357 903 q 264 683 283 772 q 244 489 244 594 q 265 292 244 381 q 326 141 286 204 q 422 44 365 78 q 547 10 478 10 q 665 33 604 10 q 763 103 726 56 q 816 197 801 144 q 840 339 831 249 l 872 339 q 874 133 872 211 q 878 0 875 54 l 846 0 q 827 75 840 60 q 783 71 814 90 q 674 8 732 35 q 526 -19 617 -19 q 286 40 389 -19 q 126 213 183 100 q 69 483 69 325 q 128 756 69 639 q 290 938 188 872 q 528 1003 393 1003 m 525 1283 q 631 1176 560 1228 q 793 1089 703 1124 l 786 1069 q 617 1113 700 1086 q 485 1164 535 1139 q 376 1113 444 1139 q 239 1069 308 1086 l 232 1089 q 393 1176 322 1124 q 500 1283 464 1228 l 525 1283 z "},"Ċ":{"ha":964,"x_min":69,"x_max":878,"o":"m 528 1003 q 678 976 619 1003 q 783 913 738 949 q 826 908 811 892 q 846 983 840 924 l 878 983 q 874 856 875 931 q 872 658 872 782 l 840 658 q 822 758 831 719 q 798 825 813 797 q 758 879 783 853 q 660 951 718 929 q 536 974 601 974 q 411 938 465 974 q 320 838 357 903 q 264 683 283 772 q 244 489 244 594 q 265 292 244 381 q 326 141 286 204 q 422 44 365 78 q 547 10 478 10 q 665 33 604 10 q 763 103 726 56 q 816 197 801 144 q 840 339 831 249 l 872 339 q 874 133 872 211 q 878 0 875 54 l 846 0 q 827 75 840 60 q 783 71 814 90 q 674 8 732 35 q 526 -19 617 -19 q 286 40 389 -19 q 126 213 183 100 q 69 483 69 325 q 128 756 69 639 q 290 938 188 872 q 528 1003 393 1003 m 513 1258 q 584 1231 556 1258 q 613 1164 613 1204 q 584 1097 613 1124 q 513 1069 556 1069 q 443 1097 471 1069 q 415 1164 415 1124 q 443 1231 415 1204 q 513 1258 471 1258 z "},"D":{"ha":1029,"x_min":54,"x_max":957,"o":"m 450 983 q 832 859 707 983 q 957 503 957 735 q 896 238 957 351 q 719 63 835 125 q 438 0 603 0 q 381 1 417 0 q 308 3 346 3 q 240 4 271 4 q 137 3 188 4 q 54 0 86 3 l 54 28 q 125 39 101 31 q 156 72 149 47 q 164 147 164 97 l 164 836 q 156 912 164 888 q 124 945 149 936 q 54 956 100 954 l 54 983 q 137 980 86 982 q 238 979 188 978 q 349 982 288 981 q 450 983 411 983 m 426 958 q 343 935 363 958 q 324 839 324 911 l 324 144 q 344 49 324 72 q 428 25 364 25 q 646 80 568 25 q 756 240 724 135 q 788 497 788 346 q 753 755 788 653 q 640 908 718 857 q 426 958 561 958 z "},"Ð":{"ha":1029,"x_min":13,"x_max":957,"o":"m 450 983 q 832 859 707 983 q 957 503 957 735 q 896 238 957 351 q 719 63 835 125 q 438 0 603 0 q 381 1 417 0 q 308 3 346 3 q 240 4 271 4 q 137 3 188 4 q 54 0 86 3 l 54 28 q 125 39 101 31 q 156 72 149 47 q 164 147 164 97 l 164 836 q 156 912 164 888 q 124 945 149 936 q 54 956 100 954 l 54 983 q 137 980 86 982 q 238 979 188 978 q 349 982 288 981 q 450 983 411 983 m 426 958 q 343 935 363 958 q 324 839 324 911 l 324 144 q 344 49 324 72 q 428 25 364 25 q 646 80 568 25 q 756 240 724 135 q 788 497 788 346 q 753 755 788 653 q 640 908 718 857 q 426 958 561 958 m 518 508 l 518 481 l 13 481 l 13 508 l 518 508 z "},"Ď":{"ha":1029,"x_min":54,"x_max":957,"o":"m 450 983 q 832 859 707 983 q 957 503 957 735 q 896 238 957 351 q 719 63 835 125 q 438 0 603 0 q 381 1 417 0 q 308 3 346 3 q 240 4 271 4 q 137 3 188 4 q 54 0 86 3 l 54 28 q 125 39 101 31 q 156 72 149 47 q 164 147 164 97 l 164 836 q 156 912 164 888 q 124 945 149 936 q 54 956 100 954 l 54 983 q 137 980 86 982 q 238 979 188 978 q 349 982 288 981 q 450 983 411 983 m 426 958 q 343 935 363 958 q 324 839 324 911 l 324 144 q 344 49 324 72 q 428 25 364 25 q 646 80 568 25 q 756 240 724 135 q 788 497 788 346 q 753 755 788 653 q 640 908 718 857 q 426 958 561 958 m 719 1292 l 726 1272 q 565 1186 636 1239 q 458 1078 494 1133 l 433 1078 q 327 1186 399 1133 q 165 1272 256 1239 l 172 1292 q 342 1249 258 1275 q 474 1197 425 1222 q 583 1249 515 1222 q 719 1292 650 1275 z "},"Đ":{"ha":1029,"x_min":13,"x_max":957,"o":"m 450 983 q 832 859 707 983 q 957 503 957 735 q 896 238 957 351 q 719 63 835 125 q 438 0 603 0 q 381 1 417 0 q 308 3 346 3 q 240 4 271 4 q 137 3 188 4 q 54 0 86 3 l 54 28 q 125 39 101 31 q 156 72 149 47 q 164 147 164 97 l 164 836 q 156 912 164 888 q 124 945 149 936 q 54 956 100 954 l 54 983 q 137 980 86 982 q 238 979 188 978 q 349 982 288 981 q 450 983 411 983 m 426 958 q 343 935 363 958 q 324 839 324 911 l 324 144 q 344 49 324 72 q 428 25 364 25 q 646 80 568 25 q 756 240 724 135 q 788 497 788 346 q 753 755 788 653 q 640 908 718 857 q 426 958 561 958 m 518 508 l 518 481 l 13 481 l 13 508 l 518 508 z "},"E":{"ha":857,"x_min":54,"x_max":792,"o":"m 764 983 q 756 881 758 931 q 754 806 754 832 q 756 756 754 779 q 758 717 757 732 l 726 717 q 697 857 717 806 q 637 930 676 908 q 526 951 597 951 l 431 951 q 363 944 386 951 q 332 913 340 936 q 324 842 324 890 l 324 142 q 332 71 324 94 q 363 40 340 47 q 431 32 386 32 l 521 32 q 647 57 600 32 q 717 139 693 82 q 754 294 742 196 l 786 294 q 782 189 782 254 q 784 108 782 161 q 792 0 786 56 q 632 3 721 3 q 474 4 543 4 q 392 4 442 4 q 284 3 342 4 q 167 2 226 3 q 54 0 108 1 l 54 28 q 125 39 101 31 q 156 72 149 47 q 164 147 164 97 l 164 836 q 156 912 164 888 q 124 945 149 936 q 54 956 100 954 l 54 983 q 167 981 108 982 q 284 980 226 981 q 392 979 342 979 q 474 979 442 979 q 619 980 538 979 q 764 983 700 981 m 533 508 q 533 494 533 508 q 533 481 533 481 l 282 481 q 282 494 282 481 q 282 508 282 508 l 533 508 m 574 692 q 569 571 568 613 q 569 494 569 529 q 571 418 569 460 q 578 297 572 376 l 546 297 q 528 385 539 343 q 488 454 517 428 q 400 481 460 481 l 400 508 q 470 526 444 508 q 510 574 496 544 q 530 634 524 603 q 542 692 536 665 l 574 692 z "},"É":{"ha":857,"x_min":54,"x_max":792,"o":"m 764 983 q 756 881 758 931 q 754 806 754 832 q 756 756 754 779 q 758 717 757 732 l 726 717 q 697 857 717 806 q 637 930 676 908 q 526 951 597 951 l 431 951 q 363 944 386 951 q 332 913 340 936 q 324 842 324 890 l 324 142 q 332 71 324 94 q 363 40 340 47 q 431 32 386 32 l 521 32 q 647 57 600 32 q 717 139 693 82 q 754 294 742 196 l 786 294 q 782 189 782 254 q 784 108 782 161 q 792 0 786 56 q 632 3 721 3 q 474 4 543 4 q 392 4 442 4 q 284 3 342 4 q 167 2 226 3 q 54 0 108 1 l 54 28 q 125 39 101 31 q 156 72 149 47 q 164 147 164 97 l 164 836 q 156 912 164 888 q 124 945 149 936 q 54 956 100 954 l 54 983 q 167 981 108 982 q 284 980 226 981 q 392 979 342 979 q 474 979 442 979 q 619 980 538 979 q 764 983 700 981 m 533 508 q 533 494 533 508 q 533 481 533 481 l 282 481 q 282 494 282 481 q 282 508 282 508 l 533 508 m 574 692 q 569 571 568 613 q 569 494 569 529 q 571 418 569 460 q 578 297 572 376 l 546 297 q 528 385 539 343 q 488 454 517 428 q 400 481 460 481 l 400 508 q 470 526 444 508 q 510 574 496 544 q 530 634 524 603 q 542 692 536 665 l 574 692 m 569 1290 q 624 1301 597 1307 q 664 1274 651 1296 q 668 1228 675 1253 q 631 1185 661 1204 q 563 1155 601 1168 q 474 1124 525 1142 q 349 1072 422 1106 l 339 1090 q 444 1178 404 1140 q 511 1244 483 1217 q 569 1290 539 1272 z "},"Ĕ":{"ha":857,"x_min":54,"x_max":792,"o":"m 764 983 q 756 881 758 931 q 754 806 754 832 q 756 756 754 779 q 758 717 757 732 l 726 717 q 697 857 717 806 q 637 930 676 908 q 526 951 597 951 l 431 951 q 363 944 386 951 q 332 913 340 936 q 324 842 324 890 l 324 142 q 332 71 324 94 q 363 40 340 47 q 431 32 386 32 l 521 32 q 647 57 600 32 q 717 139 693 82 q 754 294 742 196 l 786 294 q 782 189 782 254 q 784 108 782 161 q 792 0 786 56 q 632 3 721 3 q 474 4 543 4 q 392 4 442 4 q 284 3 342 4 q 167 2 226 3 q 54 0 108 1 l 54 28 q 125 39 101 31 q 156 72 149 47 q 164 147 164 97 l 164 836 q 156 912 164 888 q 124 945 149 936 q 54 956 100 954 l 54 983 q 167 981 108 982 q 284 980 226 981 q 392 979 342 979 q 474 979 442 979 q 619 980 538 979 q 764 983 700 981 m 533 508 q 533 494 533 508 q 533 481 533 481 l 282 481 q 282 494 282 481 q 282 508 282 508 l 533 508 m 574 692 q 569 571 568 613 q 569 494 569 529 q 571 418 569 460 q 578 297 572 376 l 546 297 q 528 385 539 343 q 488 454 517 428 q 400 481 460 481 l 400 508 q 470 526 444 508 q 510 574 496 544 q 530 634 524 603 q 542 692 536 665 l 574 692 m 697 1265 l 714 1250 q 654 1173 693 1213 q 558 1107 615 1133 q 426 1081 501 1081 q 294 1107 351 1081 q 199 1173 238 1133 q 139 1250 160 1213 l 157 1264 q 256 1206 190 1235 q 426 1178 322 1178 q 597 1207 531 1178 q 697 1265 664 1236 z "},"Ě":{"ha":857,"x_min":54,"x_max":792,"o":"m 764 983 q 756 881 758 931 q 754 806 754 832 q 756 756 754 779 q 758 717 757 732 l 726 717 q 697 857 717 806 q 637 930 676 908 q 526 951 597 951 l 431 951 q 363 944 386 951 q 332 913 340 936 q 324 842 324 890 l 324 142 q 332 71 324 94 q 363 40 340 47 q 431 32 386 32 l 521 32 q 647 57 600 32 q 717 139 693 82 q 754 294 742 196 l 786 294 q 782 189 782 254 q 784 108 782 161 q 792 0 786 56 q 632 3 721 3 q 474 4 543 4 q 392 4 442 4 q 284 3 342 4 q 167 2 226 3 q 54 0 108 1 l 54 28 q 125 39 101 31 q 156 72 149 47 q 164 147 164 97 l 164 836 q 156 912 164 888 q 124 945 149 936 q 54 956 100 954 l 54 983 q 167 981 108 982 q 284 980 226 981 q 392 979 342 979 q 474 979 442 979 q 619 980 538 979 q 764 983 700 981 m 533 508 q 533 494 533 508 q 533 481 533 481 l 282 481 q 282 494 282 481 q 282 508 282 508 l 533 508 m 574 692 q 569 571 568 613 q 569 494 569 529 q 571 418 569 460 q 578 297 572 376 l 546 297 q 528 385 539 343 q 488 454 517 428 q 400 481 460 481 l 400 508 q 470 526 444 508 q 510 574 496 544 q 530 634 524 603 q 542 692 536 665 l 574 692 m 699 1292 l 706 1272 q 544 1186 615 1239 q 438 1078 474 1133 l 413 1078 q 306 1186 378 1133 q 144 1272 235 1239 l 151 1292 q 321 1249 238 1275 q 453 1197 404 1222 q 562 1249 494 1222 q 699 1292 629 1275 z "},"Ê":{"ha":857,"x_min":54,"x_max":792,"o":"m 764 983 q 756 881 758 931 q 754 806 754 832 q 756 756 754 779 q 758 717 757 732 l 726 717 q 697 857 717 806 q 637 930 676 908 q 526 951 597 951 l 431 951 q 363 944 386 951 q 332 913 340 936 q 324 842 324 890 l 324 142 q 332 71 324 94 q 363 40 340 47 q 431 32 386 32 l 521 32 q 647 57 600 32 q 717 139 693 82 q 754 294 742 196 l 786 294 q 782 189 782 254 q 784 108 782 161 q 792 0 786 56 q 632 3 721 3 q 474 4 543 4 q 392 4 442 4 q 284 3 342 4 q 167 2 226 3 q 54 0 108 1 l 54 28 q 125 39 101 31 q 156 72 149 47 q 164 147 164 97 l 164 836 q 156 912 164 888 q 124 945 149 936 q 54 956 100 954 l 54 983 q 167 981 108 982 q 284 980 226 981 q 392 979 342 979 q 474 979 442 979 q 619 980 538 979 q 764 983 700 981 m 533 508 q 533 494 533 508 q 533 481 533 481 l 282 481 q 282 494 282 481 q 282 508 282 508 l 533 508 m 574 692 q 569 571 568 613 q 569 494 569 529 q 571 418 569 460 q 578 297 572 376 l 546 297 q 528 385 539 343 q 488 454 517 428 q 400 481 460 481 l 400 508 q 470 526 444 508 q 510 574 496 544 q 530 634 524 603 q 542 692 536 665 l 574 692 m 442 1283 q 548 1176 476 1228 q 710 1089 619 1124 l 703 1069 q 534 1113 617 1086 q 401 1164 451 1139 q 293 1113 361 1139 q 156 1069 225 1086 l 149 1089 q 310 1176 239 1124 q 417 1283 381 1228 l 442 1283 z "},"Ế":{"ha":857,"x_min":54,"x_max":792,"o":"m 764 983 q 756 881 758 931 q 754 806 754 832 q 756 756 754 779 q 758 717 757 732 l 726 717 q 697 857 717 806 q 637 930 676 908 q 526 951 597 951 l 431 951 q 363 944 386 951 q 332 913 340 936 q 324 842 324 890 l 324 142 q 332 71 324 94 q 363 40 340 47 q 431 32 386 32 l 521 32 q 647 57 600 32 q 717 139 693 82 q 754 294 742 196 l 786 294 q 782 189 782 254 q 784 108 782 161 q 792 0 786 56 q 632 3 721 3 q 474 4 543 4 q 392 4 442 4 q 284 3 342 4 q 167 2 226 3 q 54 0 108 1 l 54 28 q 125 39 101 31 q 156 72 149 47 q 164 147 164 97 l 164 836 q 156 912 164 888 q 124 945 149 936 q 54 956 100 954 l 54 983 q 167 981 108 982 q 284 980 226 981 q 392 979 342 979 q 474 979 442 979 q 619 980 538 979 q 764 983 700 981 m 533 508 q 533 494 533 508 q 533 481 533 481 l 282 481 q 282 494 282 481 q 282 508 282 508 l 533 508 m 574 692 q 569 571 568 613 q 569 494 569 529 q 571 418 569 460 q 578 297 572 376 l 546 297 q 528 385 539 343 q 488 454 517 428 q 400 481 460 481 l 400 508 q 470 526 444 508 q 510 574 496 544 q 530 634 524 603 q 542 692 536 665 l 574 692 m 442 1283 q 548 1176 476 1228 q 710 1089 619 1124 l 703 1069 q 534 1113 617 1086 q 401 1164 451 1139 q 293 1113 361 1139 q 156 1069 225 1086 l 149 1089 q 310 1176 239 1124 q 417 1283 381 1228 l 442 1283 m 569 1596 q 624 1607 597 1613 q 664 1579 651 1601 q 668 1534 675 1558 q 631 1490 661 1510 q 563 1460 601 1474 q 474 1429 525 1447 q 349 1378 422 1411 l 339 1396 q 444 1484 404 1446 q 511 1550 483 1522 q 569 1596 539 1578 z "},"Ệ":{"ha":857,"x_min":54,"x_max":792,"o":"m 764 983 q 756 881 758 931 q 754 806 754 832 q 756 756 754 779 q 758 717 757 732 l 726 717 q 697 857 717 806 q 637 930 676 908 q 526 951 597 951 l 431 951 q 363 944 386 951 q 332 913 340 936 q 324 842 324 890 l 324 142 q 332 71 324 94 q 363 40 340 47 q 431 32 386 32 l 521 32 q 647 57 600 32 q 717 139 693 82 q 754 294 742 196 l 786 294 q 782 189 782 254 q 784 108 782 161 q 792 0 786 56 q 632 3 721 3 q 474 4 543 4 q 392 4 442 4 q 284 3 342 4 q 167 2 226 3 q 54 0 108 1 l 54 28 q 125 39 101 31 q 156 72 149 47 q 164 147 164 97 l 164 836 q 156 912 164 888 q 124 945 149 936 q 54 956 100 954 l 54 983 q 167 981 108 982 q 284 980 226 981 q 392 979 342 979 q 474 979 442 979 q 619 980 538 979 q 764 983 700 981 m 533 508 q 533 494 533 508 q 533 481 533 481 l 282 481 q 282 494 282 481 q 282 508 282 508 l 533 508 m 574 692 q 569 571 568 613 q 569 494 569 529 q 571 418 569 460 q 578 297 572 376 l 546 297 q 528 385 539 343 q 488 454 517 428 q 400 481 460 481 l 400 508 q 470 526 444 508 q 510 574 496 544 q 530 634 524 603 q 542 692 536 665 l 574 692 m 442 1390 q 535 1251 472 1318 q 679 1140 599 1183 l 668 1121 q 519 1179 592 1144 q 401 1249 447 1214 q 308 1179 365 1214 q 190 1121 250 1144 l 179 1140 q 323 1251 260 1183 q 417 1390 386 1318 l 442 1390 m 451 -254 q 388 -232 414 -254 q 363 -172 363 -210 q 386 -112 363 -136 q 451 -89 410 -89 q 517 -113 493 -89 q 540 -172 540 -137 q 515 -232 540 -210 q 451 -254 489 -254 z "},"Ề":{"ha":857,"x_min":54,"x_max":792,"o":"m 764 983 q 756 881 758 931 q 754 806 754 832 q 756 756 754 779 q 758 717 757 732 l 726 717 q 697 857 717 806 q 637 930 676 908 q 526 951 597 951 l 431 951 q 363 944 386 951 q 332 913 340 936 q 324 842 324 890 l 324 142 q 332 71 324 94 q 363 40 340 47 q 431 32 386 32 l 521 32 q 647 57 600 32 q 717 139 693 82 q 754 294 742 196 l 786 294 q 782 189 782 254 q 784 108 782 161 q 792 0 786 56 q 632 3 721 3 q 474 4 543 4 q 392 4 442 4 q 284 3 342 4 q 167 2 226 3 q 54 0 108 1 l 54 28 q 125 39 101 31 q 156 72 149 47 q 164 147 164 97 l 164 836 q 156 912 164 888 q 124 945 149 936 q 54 956 100 954 l 54 983 q 167 981 108 982 q 284 980 226 981 q 392 979 342 979 q 474 979 442 979 q 619 980 538 979 q 764 983 700 981 m 533 508 q 533 494 533 508 q 533 481 533 481 l 282 481 q 282 494 282 481 q 282 508 282 508 l 533 508 m 574 692 q 569 571 568 613 q 569 494 569 529 q 571 418 569 460 q 578 297 572 376 l 546 297 q 528 385 539 343 q 488 454 517 428 q 400 481 460 481 l 400 508 q 470 526 444 508 q 510 574 496 544 q 530 634 524 603 q 542 692 536 665 l 574 692 m 442 1283 q 548 1176 476 1228 q 710 1089 619 1124 l 703 1069 q 534 1113 617 1086 q 401 1164 451 1139 q 293 1113 361 1139 q 156 1069 225 1086 l 149 1089 q 310 1176 239 1124 q 417 1283 381 1228 l 442 1283 m 292 1596 q 350 1550 322 1578 q 418 1484 378 1522 q 522 1396 458 1446 l 513 1378 q 388 1429 440 1411 q 298 1460 335 1447 q 231 1490 261 1474 q 193 1534 200 1510 q 197 1579 186 1558 q 238 1607 211 1601 q 292 1596 264 1613 z "},"Ể":{"ha":857,"x_min":54,"x_max":842,"o":"m 764 983 q 756 881 758 931 q 754 806 754 832 q 756 756 754 779 q 758 717 757 732 l 726 717 q 697 857 717 806 q 637 930 676 908 q 526 951 597 951 l 431 951 q 363 944 386 951 q 332 913 340 936 q 324 842 324 890 l 324 142 q 332 71 324 94 q 363 40 340 47 q 431 32 386 32 l 521 32 q 647 57 600 32 q 717 139 693 82 q 754 294 742 196 l 786 294 q 782 189 782 254 q 784 108 782 161 q 792 0 786 56 q 632 3 721 3 q 474 4 543 4 q 392 4 442 4 q 284 3 342 4 q 167 2 226 3 q 54 0 108 1 l 54 28 q 125 39 101 31 q 156 72 149 47 q 164 147 164 97 l 164 836 q 156 912 164 888 q 124 945 149 936 q 54 956 100 954 l 54 983 q 167 981 108 982 q 284 980 226 981 q 392 979 342 979 q 474 979 442 979 q 619 980 538 979 q 764 983 700 981 m 533 508 q 533 494 533 508 q 533 481 533 481 l 282 481 q 282 494 282 481 q 282 508 282 508 l 533 508 m 574 692 q 569 571 568 613 q 569 494 569 529 q 571 418 569 460 q 578 297 572 376 l 546 297 q 528 385 539 343 q 488 454 517 428 q 400 481 460 481 l 400 508 q 470 526 444 508 q 510 574 496 544 q 530 634 524 603 q 542 692 536 665 l 574 692 m 442 1283 q 548 1176 476 1228 q 710 1089 619 1124 l 703 1069 q 534 1113 617 1086 q 401 1164 451 1139 q 293 1113 361 1139 q 156 1069 225 1086 l 149 1089 q 310 1176 239 1124 q 417 1283 381 1228 l 442 1283 m 643 1274 l 643 1350 q 714 1397 693 1369 q 735 1456 735 1424 q 706 1517 735 1496 q 635 1538 676 1538 q 598 1533 617 1538 q 569 1517 579 1528 q 605 1495 592 1511 q 618 1454 618 1479 q 599 1406 618 1424 q 551 1389 581 1389 q 506 1406 524 1389 q 488 1453 488 1424 q 504 1501 488 1481 q 542 1536 521 1522 q 592 1557 564 1549 q 665 1565 621 1565 q 749 1555 708 1565 q 815 1522 789 1544 q 842 1463 842 1500 q 820 1408 842 1433 q 760 1365 799 1382 q 671 1338 722 1347 l 671 1274 l 643 1274 z "},"Ễ":{"ha":857,"x_min":54,"x_max":792,"o":"m 764 983 q 756 881 758 931 q 754 806 754 832 q 756 756 754 779 q 758 717 757 732 l 726 717 q 697 857 717 806 q 637 930 676 908 q 526 951 597 951 l 431 951 q 363 944 386 951 q 332 913 340 936 q 324 842 324 890 l 324 142 q 332 71 324 94 q 363 40 340 47 q 431 32 386 32 l 521 32 q 647 57 600 32 q 717 139 693 82 q 754 294 742 196 l 786 294 q 782 189 782 254 q 784 108 782 161 q 792 0 786 56 q 632 3 721 3 q 474 4 543 4 q 392 4 442 4 q 284 3 342 4 q 167 2 226 3 q 54 0 108 1 l 54 28 q 125 39 101 31 q 156 72 149 47 q 164 147 164 97 l 164 836 q 156 912 164 888 q 124 945 149 936 q 54 956 100 954 l 54 983 q 167 981 108 982 q 284 980 226 981 q 392 979 342 979 q 474 979 442 979 q 619 980 538 979 q 764 983 700 981 m 533 508 q 533 494 533 508 q 533 481 533 481 l 282 481 q 282 494 282 481 q 282 508 282 508 l 533 508 m 574 692 q 569 571 568 613 q 569 494 569 529 q 571 418 569 460 q 578 297 572 376 l 546 297 q 528 385 539 343 q 488 454 517 428 q 400 481 460 481 l 400 508 q 470 526 444 508 q 510 574 496 544 q 530 634 524 603 q 542 692 536 665 l 574 692 m 442 1283 q 548 1176 476 1228 q 710 1089 619 1124 l 703 1069 q 534 1113 617 1086 q 401 1164 451 1139 q 293 1113 361 1139 q 156 1069 225 1086 l 149 1089 q 310 1176 239 1124 q 417 1283 381 1228 l 442 1283 m 314 1568 q 390 1553 356 1568 q 456 1517 425 1538 q 520 1480 488 1496 q 590 1464 553 1464 q 644 1481 619 1464 q 686 1542 669 1499 l 707 1536 q 649 1417 697 1458 q 542 1376 601 1376 q 465 1392 500 1376 q 399 1428 431 1407 q 335 1465 367 1449 q 265 1481 303 1481 q 210 1463 235 1481 q 169 1403 185 1446 l 149 1408 q 207 1527 160 1486 q 314 1568 254 1568 z "},"Ë":{"ha":857,"x_min":54,"x_max":792,"o":"m 764 983 q 756 881 758 931 q 754 806 754 832 q 756 756 754 779 q 758 717 757 732 l 726 717 q 697 857 717 806 q 637 930 676 908 q 526 951 597 951 l 431 951 q 363 944 386 951 q 332 913 340 936 q 324 842 324 890 l 324 142 q 332 71 324 94 q 363 40 340 47 q 431 32 386 32 l 521 32 q 647 57 600 32 q 717 139 693 82 q 754 294 742 196 l 786 294 q 782 189 782 254 q 784 108 782 161 q 792 0 786 56 q 632 3 721 3 q 474 4 543 4 q 392 4 442 4 q 284 3 342 4 q 167 2 226 3 q 54 0 108 1 l 54 28 q 125 39 101 31 q 156 72 149 47 q 164 147 164 97 l 164 836 q 156 912 164 888 q 124 945 149 936 q 54 956 100 954 l 54 983 q 167 981 108 982 q 284 980 226 981 q 392 979 342 979 q 474 979 442 979 q 619 980 538 979 q 764 983 700 981 m 533 508 q 533 494 533 508 q 533 481 533 481 l 282 481 q 282 494 282 481 q 282 508 282 508 l 533 508 m 574 692 q 569 571 568 613 q 569 494 569 529 q 571 418 569 460 q 578 297 572 376 l 546 297 q 528 385 539 343 q 488 454 517 428 q 400 481 460 481 l 400 508 q 470 526 444 508 q 510 574 496 544 q 530 634 524 603 q 542 692 536 665 l 574 692 m 583 1247 q 644 1220 618 1247 q 671 1158 671 1193 q 644 1095 671 1121 q 583 1069 618 1069 q 520 1095 546 1069 q 494 1158 494 1121 q 520 1220 494 1193 q 583 1247 546 1247 m 275 1247 q 338 1220 311 1247 q 364 1158 364 1193 q 338 1095 364 1121 q 275 1069 311 1069 q 213 1095 239 1069 q 188 1158 188 1121 q 213 1220 188 1193 q 275 1247 239 1247 z "},"Ė":{"ha":857,"x_min":54,"x_max":792,"o":"m 764 983 q 756 881 758 931 q 754 806 754 832 q 756 756 754 779 q 758 717 757 732 l 726 717 q 697 857 717 806 q 637 930 676 908 q 526 951 597 951 l 431 951 q 363 944 386 951 q 332 913 340 936 q 324 842 324 890 l 324 142 q 332 71 324 94 q 363 40 340 47 q 431 32 386 32 l 521 32 q 647 57 600 32 q 717 139 693 82 q 754 294 742 196 l 786 294 q 782 189 782 254 q 784 108 782 161 q 792 0 786 56 q 632 3 721 3 q 474 4 543 4 q 392 4 442 4 q 284 3 342 4 q 167 2 226 3 q 54 0 108 1 l 54 28 q 125 39 101 31 q 156 72 149 47 q 164 147 164 97 l 164 836 q 156 912 164 888 q 124 945 149 936 q 54 956 100 954 l 54 983 q 167 981 108 982 q 284 980 226 981 q 392 979 342 979 q 474 979 442 979 q 619 980 538 979 q 764 983 700 981 m 533 508 q 533 494 533 508 q 533 481 533 481 l 282 481 q 282 494 282 481 q 282 508 282 508 l 533 508 m 574 692 q 569 571 568 613 q 569 494 569 529 q 571 418 569 460 q 578 297 572 376 l 546 297 q 528 385 539 343 q 488 454 517 428 q 400 481 460 481 l 400 508 q 470 526 444 508 q 510 574 496 544 q 530 634 524 603 q 542 692 536 665 l 574 692 m 428 1258 q 499 1231 471 1258 q 528 1164 528 1204 q 499 1097 528 1124 q 428 1069 471 1069 q 358 1097 386 1069 q 331 1164 331 1124 q 358 1231 331 1204 q 428 1258 386 1258 z "},"Ẹ":{"ha":857,"x_min":54,"x_max":792,"o":"m 764 983 q 756 881 758 931 q 754 806 754 832 q 756 756 754 779 q 758 717 757 732 l 726 717 q 697 857 717 806 q 637 930 676 908 q 526 951 597 951 l 431 951 q 363 944 386 951 q 332 913 340 936 q 324 842 324 890 l 324 142 q 332 71 324 94 q 363 40 340 47 q 431 32 386 32 l 521 32 q 647 57 600 32 q 717 139 693 82 q 754 294 742 196 l 786 294 q 782 189 782 254 q 784 108 782 161 q 792 0 786 56 q 632 3 721 3 q 474 4 543 4 q 392 4 442 4 q 284 3 342 4 q 167 2 226 3 q 54 0 108 1 l 54 28 q 125 39 101 31 q 156 72 149 47 q 164 147 164 97 l 164 836 q 156 912 164 888 q 124 945 149 936 q 54 956 100 954 l 54 983 q 167 981 108 982 q 284 980 226 981 q 392 979 342 979 q 474 979 442 979 q 619 980 538 979 q 764 983 700 981 m 533 508 q 533 494 533 508 q 533 481 533 481 l 282 481 q 282 494 282 481 q 282 508 282 508 l 533 508 m 574 692 q 569 571 568 613 q 569 494 569 529 q 571 418 569 460 q 578 297 572 376 l 546 297 q 528 385 539 343 q 488 454 517 428 q 400 481 460 481 l 400 508 q 470 526 444 508 q 510 574 496 544 q 530 634 524 603 q 542 692 536 665 l 574 692 m 451 -254 q 388 -232 414 -254 q 363 -172 363 -210 q 386 -112 363 -136 q 451 -89 410 -89 q 517 -113 493 -89 q 540 -172 540 -137 q 515 -232 540 -210 q 451 -254 489 -254 z "},"È":{"ha":857,"x_min":54,"x_max":792,"o":"m 764 983 q 756 881 758 931 q 754 806 754 832 q 756 756 754 779 q 758 717 757 732 l 726 717 q 697 857 717 806 q 637 930 676 908 q 526 951 597 951 l 431 951 q 363 944 386 951 q 332 913 340 936 q 324 842 324 890 l 324 142 q 332 71 324 94 q 363 40 340 47 q 431 32 386 32 l 521 32 q 647 57 600 32 q 717 139 693 82 q 754 294 742 196 l 786 294 q 782 189 782 254 q 784 108 782 161 q 792 0 786 56 q 632 3 721 3 q 474 4 543 4 q 392 4 442 4 q 284 3 342 4 q 167 2 226 3 q 54 0 108 1 l 54 28 q 125 39 101 31 q 156 72 149 47 q 164 147 164 97 l 164 836 q 156 912 164 888 q 124 945 149 936 q 54 956 100 954 l 54 983 q 167 981 108 982 q 284 980 226 981 q 392 979 342 979 q 474 979 442 979 q 619 980 538 979 q 764 983 700 981 m 533 508 q 533 494 533 508 q 533 481 533 481 l 282 481 q 282 494 282 481 q 282 508 282 508 l 533 508 m 574 692 q 569 571 568 613 q 569 494 569 529 q 571 418 569 460 q 578 297 572 376 l 546 297 q 528 385 539 343 q 488 454 517 428 q 400 481 460 481 l 400 508 q 470 526 444 508 q 510 574 496 544 q 530 634 524 603 q 542 692 536 665 l 574 692 m 292 1290 q 350 1244 322 1272 q 418 1178 378 1217 q 522 1090 458 1140 l 513 1072 q 388 1124 440 1106 q 298 1155 335 1142 q 231 1185 261 1168 q 193 1228 200 1204 q 197 1274 186 1253 q 238 1301 211 1296 q 292 1290 264 1307 z "},"Ẻ":{"ha":857,"x_min":54,"x_max":792,"o":"m 764 983 q 756 881 758 931 q 754 806 754 832 q 756 756 754 779 q 758 717 757 732 l 726 717 q 697 857 717 806 q 637 930 676 908 q 526 951 597 951 l 431 951 q 363 944 386 951 q 332 913 340 936 q 324 842 324 890 l 324 142 q 332 71 324 94 q 363 40 340 47 q 431 32 386 32 l 521 32 q 647 57 600 32 q 717 139 693 82 q 754 294 742 196 l 786 294 q 782 189 782 254 q 784 108 782 161 q 792 0 786 56 q 632 3 721 3 q 474 4 543 4 q 392 4 442 4 q 284 3 342 4 q 167 2 226 3 q 54 0 108 1 l 54 28 q 125 39 101 31 q 156 72 149 47 q 164 147 164 97 l 164 836 q 156 912 164 888 q 124 945 149 936 q 54 956 100 954 l 54 983 q 167 981 108 982 q 284 980 226 981 q 392 979 342 979 q 474 979 442 979 q 619 980 538 979 q 764 983 700 981 m 533 508 q 533 494 533 508 q 533 481 533 481 l 282 481 q 282 494 282 481 q 282 508 282 508 l 533 508 m 574 692 q 569 571 568 613 q 569 494 569 529 q 571 418 569 460 q 578 297 572 376 l 546 297 q 528 385 539 343 q 488 454 517 428 q 400 481 460 481 l 400 508 q 470 526 444 508 q 510 574 496 544 q 530 634 524 603 q 542 692 536 665 l 574 692 m 413 1063 l 413 1139 q 483 1185 463 1158 q 504 1244 504 1213 q 475 1306 504 1285 q 404 1326 446 1326 q 367 1322 386 1326 q 339 1306 349 1317 q 374 1284 361 1300 q 388 1243 388 1268 q 369 1195 388 1213 q 321 1178 350 1178 q 275 1195 293 1178 q 257 1242 257 1213 q 274 1290 257 1269 q 311 1325 290 1311 q 362 1346 333 1338 q 435 1354 390 1354 q 518 1344 478 1354 q 585 1311 558 1333 q 611 1251 611 1289 q 590 1197 611 1222 q 530 1153 568 1171 q 440 1126 492 1136 l 440 1063 l 413 1063 z "},"Ē":{"ha":857,"x_min":54,"x_max":792,"o":"m 764 983 q 756 881 758 931 q 754 806 754 832 q 756 756 754 779 q 758 717 757 732 l 726 717 q 697 857 717 806 q 637 930 676 908 q 526 951 597 951 l 431 951 q 363 944 386 951 q 332 913 340 936 q 324 842 324 890 l 324 142 q 332 71 324 94 q 363 40 340 47 q 431 32 386 32 l 521 32 q 647 57 600 32 q 717 139 693 82 q 754 294 742 196 l 786 294 q 782 189 782 254 q 784 108 782 161 q 792 0 786 56 q 632 3 721 3 q 474 4 543 4 q 392 4 442 4 q 284 3 342 4 q 167 2 226 3 q 54 0 108 1 l 54 28 q 125 39 101 31 q 156 72 149 47 q 164 147 164 97 l 164 836 q 156 912 164 888 q 124 945 149 936 q 54 956 100 954 l 54 983 q 167 981 108 982 q 284 980 226 981 q 392 979 342 979 q 474 979 442 979 q 619 980 538 979 q 764 983 700 981 m 533 508 q 533 494 533 508 q 533 481 533 481 l 282 481 q 282 494 282 481 q 282 508 282 508 l 533 508 m 574 692 q 569 571 568 613 q 569 494 569 529 q 571 418 569 460 q 578 297 572 376 l 546 297 q 528 385 539 343 q 488 454 517 428 q 400 481 460 481 l 400 508 q 470 526 444 508 q 510 574 496 544 q 530 634 524 603 q 542 692 536 665 l 574 692 m 685 1172 l 685 1138 l 174 1138 l 174 1172 l 685 1172 z "},"Ę":{"ha":857,"x_min":54,"x_max":810,"o":"m 764 983 q 756 881 758 931 q 754 806 754 832 q 756 756 754 779 q 758 717 757 732 l 726 717 q 697 857 717 806 q 637 930 676 908 q 526 951 597 951 l 431 951 q 363 944 386 951 q 332 913 340 936 q 324 842 324 890 l 324 142 q 332 71 324 94 q 363 40 340 47 q 431 32 386 32 l 521 32 q 647 57 600 32 q 717 139 693 82 q 754 294 742 196 l 786 294 q 782 189 782 254 q 784 108 782 161 q 792 0 786 56 q 632 3 721 3 q 474 4 543 4 q 392 4 442 4 q 284 3 342 4 q 167 2 226 3 q 54 0 108 1 l 54 28 q 125 39 101 31 q 156 72 149 47 q 164 147 164 97 l 164 836 q 156 912 164 888 q 124 945 149 936 q 54 956 100 954 l 54 983 q 167 981 108 982 q 284 980 226 981 q 392 979 342 979 q 474 979 442 979 q 619 980 538 979 q 764 983 700 981 m 533 508 q 533 494 533 508 q 533 481 533 481 l 282 481 q 282 494 282 481 q 282 508 282 508 l 533 508 m 574 692 q 569 571 568 613 q 569 494 569 529 q 571 418 569 460 q 578 297 572 376 l 546 297 q 528 385 539 343 q 488 454 517 428 q 400 481 460 481 l 400 508 q 470 526 444 508 q 510 574 496 544 q 530 634 524 603 q 542 692 536 665 l 574 692 m 792 4 q 677 -58 708 -19 q 646 -132 646 -97 q 661 -175 646 -158 q 704 -192 676 -192 q 753 -178 731 -192 q 790 -149 776 -165 l 811 -167 q 736 -238 778 -215 q 643 -261 694 -261 q 558 -236 589 -261 q 528 -169 528 -211 q 583 -69 528 -114 q 739 4 639 -25 l 792 4 z "},"Ẽ":{"ha":857,"x_min":54,"x_max":792,"o":"m 764 983 q 756 881 758 931 q 754 806 754 832 q 756 756 754 779 q 758 717 757 732 l 726 717 q 697 857 717 806 q 637 930 676 908 q 526 951 597 951 l 431 951 q 363 944 386 951 q 332 913 340 936 q 324 842 324 890 l 324 142 q 332 71 324 94 q 363 40 340 47 q 431 32 386 32 l 521 32 q 647 57 600 32 q 717 139 693 82 q 754 294 742 196 l 786 294 q 782 189 782 254 q 784 108 782 161 q 792 0 786 56 q 632 3 721 3 q 474 4 543 4 q 392 4 442 4 q 284 3 342 4 q 167 2 226 3 q 54 0 108 1 l 54 28 q 125 39 101 31 q 156 72 149 47 q 164 147 164 97 l 164 836 q 156 912 164 888 q 124 945 149 936 q 54 956 100 954 l 54 983 q 167 981 108 982 q 284 980 226 981 q 392 979 342 979 q 474 979 442 979 q 619 980 538 979 q 764 983 700 981 m 533 508 q 533 494 533 508 q 533 481 533 481 l 282 481 q 282 494 282 481 q 282 508 282 508 l 533 508 m 574 692 q 569 571 568 613 q 569 494 569 529 q 571 418 569 460 q 578 297 572 376 l 546 297 q 528 385 539 343 q 488 454 517 428 q 400 481 460 481 l 400 508 q 470 526 444 508 q 510 574 496 544 q 530 634 524 603 q 542 692 536 665 l 574 692 m 314 1263 q 390 1247 356 1263 q 456 1211 425 1232 q 520 1174 488 1190 q 590 1158 553 1158 q 644 1176 619 1158 q 686 1236 669 1193 l 707 1231 q 649 1112 697 1153 q 542 1071 601 1071 q 465 1086 500 1071 q 399 1122 431 1101 q 335 1159 367 1143 q 265 1175 303 1175 q 210 1158 235 1175 q 169 1097 185 1140 l 149 1103 q 207 1222 160 1181 q 314 1263 254 1263 z "},"Ʒ":{"ha":829,"x_min":68,"x_max":772,"o":"m 767 983 l 767 956 l 506 510 l 503 549 q 635 487 575 525 q 734 394 696 449 q 772 264 772 340 q 725 116 772 181 q 595 16 678 51 q 404 -19 513 -19 q 264 -1 322 -19 q 178 32 206 17 q 153 46 165 40 q 132 51 142 51 q 110 35 117 51 q 100 -10 104 19 l 68 -10 q 72 62 71 21 q 73 169 72 103 q 74 338 74 236 l 106 338 q 142 174 111 249 q 233 56 174 100 q 385 11 293 11 q 516 46 465 11 q 591 137 567 81 q 615 260 615 193 q 584 397 615 340 q 499 488 553 453 q 376 539 446 524 l 376 567 l 604 951 l 357 951 q 253 938 296 951 q 183 893 211 924 q 138 810 154 863 q 113 683 121 758 l 81 683 q 84 733 83 704 q 85 788 85 763 q 83 875 85 822 q 75 983 81 928 q 184 981 125 982 q 302 979 243 979 q 410 979 361 979 q 590 980 494 979 q 767 983 686 981 z "},"Ǯ":{"ha":829,"x_min":68,"x_max":772,"o":"m 767 983 l 767 956 l 506 510 l 503 549 q 635 487 575 525 q 734 394 696 449 q 772 264 772 340 q 725 116 772 181 q 595 16 678 51 q 404 -19 513 -19 q 264 -1 322 -19 q 178 32 206 17 q 153 46 165 40 q 132 51 142 51 q 110 35 117 51 q 100 -10 104 19 l 68 -10 q 72 62 71 21 q 73 169 72 103 q 74 338 74 236 l 106 338 q 142 174 111 249 q 233 56 174 100 q 385 11 293 11 q 516 46 465 11 q 591 137 567 81 q 615 260 615 193 q 584 397 615 340 q 499 488 553 453 q 376 539 446 524 l 376 567 l 604 951 l 357 951 q 253 938 296 951 q 183 893 211 924 q 138 810 154 863 q 113 683 121 758 l 81 683 q 84 733 83 704 q 85 788 85 763 q 83 875 85 822 q 75 983 81 928 q 184 981 125 982 q 302 979 243 979 q 410 979 361 979 q 590 980 494 979 q 767 983 686 981 m 682 1292 l 689 1272 q 528 1186 599 1239 q 421 1078 457 1133 l 396 1078 q 290 1186 361 1133 q 128 1272 218 1239 l 135 1292 q 304 1249 221 1275 q 436 1197 388 1222 q 545 1249 478 1222 q 682 1292 613 1275 z "},"F":{"ha":801,"x_min":54,"x_max":764,"o":"m 764 983 q 756 875 758 928 q 754 794 754 822 q 756 733 754 763 q 758 683 757 704 l 726 683 q 692 842 714 785 q 628 926 671 900 q 504 951 585 951 l 431 951 q 363 944 386 951 q 332 913 340 936 q 324 842 324 890 l 324 150 q 335 73 324 99 q 376 39 346 47 q 467 29 407 31 l 467 0 q 369 3 429 3 q 246 4 310 4 q 140 3 190 4 q 54 0 89 3 l 54 28 q 125 39 101 31 q 156 72 149 47 q 164 147 164 97 l 164 836 q 156 912 164 888 q 124 945 149 936 q 54 956 100 954 l 54 983 q 167 981 108 982 q 284 980 226 981 q 392 979 342 979 q 474 979 442 979 q 619 980 538 979 q 764 983 700 981 m 551 497 q 551 483 551 497 q 551 469 551 469 l 282 469 q 282 483 282 469 q 282 497 282 497 l 551 497 m 581 681 q 576 560 575 601 q 576 483 576 518 q 578 407 576 449 q 585 286 579 365 l 553 286 q 536 374 547 332 q 496 443 525 417 q 408 469 467 469 l 408 497 q 478 515 453 497 q 518 563 504 533 q 538 623 532 592 q 549 681 544 654 l 581 681 z "},"G":{"ha":992,"x_min":69,"x_max":949,"o":"m 536 1003 q 685 976 628 1003 q 789 913 742 949 q 817 899 807 899 q 851 983 843 899 l 883 983 q 879 856 881 931 q 878 658 878 782 l 846 658 q 820 782 836 725 q 765 879 804 839 q 667 949 728 924 q 544 974 607 974 q 417 938 472 974 q 323 838 361 903 q 265 684 285 772 q 244 490 244 596 q 322 124 244 240 q 554 8 399 8 q 631 21 599 8 q 683 46 664 33 q 714 78 707 63 q 721 121 721 94 l 721 256 q 710 344 721 315 q 669 383 700 372 q 581 394 639 393 l 581 422 q 643 420 607 421 q 719 419 679 419 q 790 418 758 418 q 881 419 840 418 q 949 422 922 421 l 949 394 q 905 385 919 393 q 885 351 890 376 q 881 275 881 326 l 881 0 l 853 0 q 842 51 851 24 q 815 79 833 79 q 795 75 806 79 q 760 54 785 71 q 658 1 711 21 q 539 -19 606 -19 q 285 40 390 -19 q 124 210 179 99 q 69 476 69 322 q 130 756 69 638 q 295 938 190 874 q 536 1003 400 1003 z "},"Ǵ":{"ha":992,"x_min":69,"x_max":949,"o":"m 536 1003 q 685 976 628 1003 q 789 913 742 949 q 817 899 807 899 q 851 983 843 899 l 883 983 q 879 856 881 931 q 878 658 878 782 l 846 658 q 820 782 836 725 q 765 879 804 839 q 667 949 728 924 q 544 974 607 974 q 417 938 472 974 q 323 838 361 903 q 265 684 285 772 q 244 490 244 596 q 322 124 244 240 q 554 8 399 8 q 631 21 599 8 q 683 46 664 33 q 714 78 707 63 q 721 121 721 94 l 721 256 q 710 344 721 315 q 669 383 700 372 q 581 394 639 393 l 581 422 q 643 420 607 421 q 719 419 679 419 q 790 418 758 418 q 881 419 840 418 q 949 422 922 421 l 949 394 q 905 385 919 393 q 885 351 890 376 q 881 275 881 326 l 881 0 l 853 0 q 842 51 851 24 q 815 79 833 79 q 795 75 806 79 q 760 54 785 71 q 658 1 711 21 q 539 -19 606 -19 q 285 40 390 -19 q 124 210 179 99 q 69 476 69 322 q 130 756 69 638 q 295 938 190 874 q 536 1003 400 1003 m 653 1290 q 708 1301 681 1307 q 747 1274 735 1296 q 751 1228 758 1253 q 714 1185 744 1204 q 647 1155 685 1168 q 557 1124 608 1142 q 432 1072 506 1106 l 422 1090 q 527 1178 488 1140 q 594 1244 567 1217 q 653 1290 622 1272 z "},"Ğ":{"ha":992,"x_min":69,"x_max":949,"o":"m 536 1003 q 685 976 628 1003 q 789 913 742 949 q 817 899 807 899 q 851 983 843 899 l 883 983 q 879 856 881 931 q 878 658 878 782 l 846 658 q 820 782 836 725 q 765 879 804 839 q 667 949 728 924 q 544 974 607 974 q 417 938 472 974 q 323 838 361 903 q 265 684 285 772 q 244 490 244 596 q 322 124 244 240 q 554 8 399 8 q 631 21 599 8 q 683 46 664 33 q 714 78 707 63 q 721 121 721 94 l 721 256 q 710 344 721 315 q 669 383 700 372 q 581 394 639 393 l 581 422 q 643 420 607 421 q 719 419 679 419 q 790 418 758 418 q 881 419 840 418 q 949 422 922 421 l 949 394 q 905 385 919 393 q 885 351 890 376 q 881 275 881 326 l 881 0 l 853 0 q 842 51 851 24 q 815 79 833 79 q 795 75 806 79 q 760 54 785 71 q 658 1 711 21 q 539 -19 606 -19 q 285 40 390 -19 q 124 210 179 99 q 69 476 69 322 q 130 756 69 638 q 295 938 190 874 q 536 1003 400 1003 m 781 1265 l 797 1250 q 738 1173 776 1213 q 642 1107 699 1133 q 510 1081 585 1081 q 378 1107 435 1081 q 282 1173 321 1133 q 222 1250 243 1213 l 240 1264 q 340 1206 274 1235 q 510 1178 406 1178 q 681 1207 614 1178 q 781 1265 747 1236 z "},"Ǧ":{"ha":992,"x_min":69,"x_max":949,"o":"m 536 1003 q 685 976 628 1003 q 789 913 742 949 q 817 899 807 899 q 851 983 843 899 l 883 983 q 879 856 881 931 q 878 658 878 782 l 846 658 q 820 782 836 725 q 765 879 804 839 q 667 949 728 924 q 544 974 607 974 q 417 938 472 974 q 323 838 361 903 q 265 684 285 772 q 244 490 244 596 q 322 124 244 240 q 554 8 399 8 q 631 21 599 8 q 683 46 664 33 q 714 78 707 63 q 721 121 721 94 l 721 256 q 710 344 721 315 q 669 383 700 372 q 581 394 639 393 l 581 422 q 643 420 607 421 q 719 419 679 419 q 790 418 758 418 q 881 419 840 418 q 949 422 922 421 l 949 394 q 905 385 919 393 q 885 351 890 376 q 881 275 881 326 l 881 0 l 853 0 q 842 51 851 24 q 815 79 833 79 q 795 75 806 79 q 760 54 785 71 q 658 1 711 21 q 539 -19 606 -19 q 285 40 390 -19 q 124 210 179 99 q 69 476 69 322 q 130 756 69 638 q 295 938 190 874 q 536 1003 400 1003 m 782 1292 l 789 1272 q 628 1186 699 1239 q 521 1078 557 1133 l 496 1078 q 390 1186 461 1133 q 228 1272 318 1239 l 235 1292 q 404 1249 321 1275 q 536 1197 488 1222 q 645 1249 578 1222 q 782 1292 713 1275 z "},"Ĝ":{"ha":992,"x_min":69,"x_max":949,"o":"m 536 1003 q 685 976 628 1003 q 789 913 742 949 q 817 899 807 899 q 851 983 843 899 l 883 983 q 879 856 881 931 q 878 658 878 782 l 846 658 q 820 782 836 725 q 765 879 804 839 q 667 949 728 924 q 544 974 607 974 q 417 938 472 974 q 323 838 361 903 q 265 684 285 772 q 244 490 244 596 q 322 124 244 240 q 554 8 399 8 q 631 21 599 8 q 683 46 664 33 q 714 78 707 63 q 721 121 721 94 l 721 256 q 710 344 721 315 q 669 383 700 372 q 581 394 639 393 l 581 422 q 643 420 607 421 q 719 419 679 419 q 790 418 758 418 q 881 419 840 418 q 949 422 922 421 l 949 394 q 905 385 919 393 q 885 351 890 376 q 881 275 881 326 l 881 0 l 853 0 q 842 51 851 24 q 815 79 833 79 q 795 75 806 79 q 760 54 785 71 q 658 1 711 21 q 539 -19 606 -19 q 285 40 390 -19 q 124 210 179 99 q 69 476 69 322 q 130 756 69 638 q 295 938 190 874 q 536 1003 400 1003 m 525 1283 q 631 1176 560 1228 q 793 1089 703 1124 l 786 1069 q 617 1113 700 1086 q 485 1164 535 1139 q 376 1113 444 1139 q 239 1069 308 1086 l 232 1089 q 393 1176 322 1124 q 500 1283 464 1228 l 525 1283 z "},"Ģ":{"ha":992,"x_min":69,"x_max":949,"o":"m 536 1003 q 685 976 628 1003 q 789 913 742 949 q 817 899 807 899 q 851 983 843 899 l 883 983 q 879 856 881 931 q 878 658 878 782 l 846 658 q 820 782 836 725 q 765 879 804 839 q 667 949 728 924 q 544 974 607 974 q 417 938 472 974 q 323 838 361 903 q 265 684 285 772 q 244 490 244 596 q 322 124 244 240 q 554 8 399 8 q 631 21 599 8 q 683 46 664 33 q 714 78 707 63 q 721 121 721 94 l 721 256 q 710 344 721 315 q 669 383 700 372 q 581 394 639 393 l 581 422 q 643 420 607 421 q 719 419 679 419 q 790 418 758 418 q 881 419 840 418 q 949 422 922 421 l 949 394 q 905 385 919 393 q 885 351 890 376 q 881 275 881 326 l 881 0 l 853 0 q 842 51 851 24 q 815 79 833 79 q 795 75 806 79 q 760 54 785 71 q 658 1 711 21 q 539 -19 606 -19 q 285 40 390 -19 q 124 210 179 99 q 69 476 69 322 q 130 756 69 638 q 295 938 190 874 q 536 1003 400 1003 m 526 -89 q 597 -117 569 -89 q 625 -190 625 -146 q 597 -280 625 -243 q 496 -336 568 -317 l 488 -310 q 553 -279 525 -300 q 582 -225 582 -258 q 556 -241 572 -235 q 521 -247 540 -247 q 462 -227 485 -247 q 439 -168 439 -207 q 464 -111 439 -133 q 526 -89 489 -89 z "},"Ġ":{"ha":992,"x_min":69,"x_max":949,"o":"m 536 1003 q 685 976 628 1003 q 789 913 742 949 q 817 899 807 899 q 851 983 843 899 l 883 983 q 879 856 881 931 q 878 658 878 782 l 846 658 q 820 782 836 725 q 765 879 804 839 q 667 949 728 924 q 544 974 607 974 q 417 938 472 974 q 323 838 361 903 q 265 684 285 772 q 244 490 244 596 q 322 124 244 240 q 554 8 399 8 q 631 21 599 8 q 683 46 664 33 q 714 78 707 63 q 721 121 721 94 l 721 256 q 710 344 721 315 q 669 383 700 372 q 581 394 639 393 l 581 422 q 643 420 607 421 q 719 419 679 419 q 790 418 758 418 q 881 419 840 418 q 949 422 922 421 l 949 394 q 905 385 919 393 q 885 351 890 376 q 881 275 881 326 l 881 0 l 853 0 q 842 51 851 24 q 815 79 833 79 q 795 75 806 79 q 760 54 785 71 q 658 1 711 21 q 539 -19 606 -19 q 285 40 390 -19 q 124 210 179 99 q 69 476 69 322 q 130 756 69 638 q 295 938 190 874 q 536 1003 400 1003 m 517 1258 q 588 1231 560 1258 q 617 1164 617 1204 q 588 1097 617 1124 q 517 1069 560 1069 q 447 1097 475 1069 q 419 1164 419 1124 q 447 1231 419 1204 q 517 1258 475 1258 z "},"Ǥ":{"ha":992,"x_min":69,"x_max":992,"o":"m 536 1003 q 685 976 628 1003 q 789 913 742 949 q 817 899 807 899 q 851 983 843 899 l 883 983 q 879 856 881 931 q 878 658 878 782 l 846 658 q 820 782 836 725 q 765 879 804 839 q 667 949 728 924 q 544 974 607 974 q 417 938 472 974 q 323 838 361 903 q 265 684 285 772 q 244 490 244 596 q 322 124 244 240 q 554 8 399 8 q 631 21 599 8 q 683 46 664 33 q 714 78 707 63 q 721 121 721 94 l 721 286 q 710 374 721 346 q 669 413 700 403 q 581 425 639 424 l 581 453 q 643 451 607 451 q 719 449 679 450 q 790 449 758 449 q 881 450 840 449 q 949 453 922 451 l 949 425 q 905 415 919 424 q 885 382 890 407 q 881 306 881 357 l 881 0 l 853 0 q 842 51 851 24 q 815 79 833 79 q 795 75 806 79 q 760 54 785 71 q 658 1 711 21 q 539 -19 606 -19 q 285 40 390 -19 q 124 210 179 99 q 69 476 69 322 q 130 756 69 638 q 295 938 190 874 q 536 1003 400 1003 m 563 236 l 563 264 l 992 264 l 992 236 l 563 236 z "},"H":{"ha":1071,"x_min":54,"x_max":1017,"o":"m 638 0 l 638 28 q 708 39 685 31 q 740 72 732 47 q 747 147 747 97 l 747 836 q 740 912 747 888 q 708 945 732 936 q 638 956 683 954 l 638 983 q 724 981 672 982 q 828 979 776 979 q 936 981 886 979 q 1017 983 986 982 l 1017 956 q 947 945 971 954 q 915 912 924 936 q 907 836 907 888 l 907 147 q 915 72 907 97 q 947 39 924 47 q 1017 28 971 31 l 1017 0 q 936 3 986 3 q 828 4 886 4 q 724 3 776 4 q 638 0 672 3 m 54 0 l 54 28 q 125 39 101 31 q 156 72 149 47 q 164 147 164 97 l 164 836 q 156 912 164 888 q 124 945 149 936 q 54 956 100 954 l 54 983 q 137 981 86 982 q 246 979 188 979 q 349 981 299 979 q 433 983 400 982 l 433 956 q 364 945 388 954 q 332 912 340 936 q 324 836 324 888 l 324 147 q 332 72 324 97 q 364 39 340 47 q 433 28 388 31 l 433 0 q 349 3 400 3 q 246 4 299 4 q 137 3 188 4 q 54 0 86 3 m 261 481 l 261 508 l 810 508 l 810 481 l 261 481 z "},"Ħ":{"ha":1071,"x_min":54,"x_max":1017,"o":"m 638 0 l 638 28 q 708 39 685 31 q 740 72 732 47 q 747 147 747 97 l 747 836 q 740 912 747 888 q 708 945 732 936 q 638 956 683 954 l 638 983 q 724 981 672 982 q 828 979 776 979 q 936 981 886 979 q 1017 983 986 982 l 1017 956 q 947 945 971 954 q 915 912 924 936 q 907 836 907 888 l 907 147 q 915 72 907 97 q 947 39 924 47 q 1017 28 971 31 l 1017 0 q 936 3 986 3 q 828 4 886 4 q 724 3 776 4 q 638 0 672 3 m 54 0 l 54 28 q 125 39 101 31 q 156 72 149 47 q 164 147 164 97 l 164 836 q 156 912 164 888 q 124 945 149 936 q 54 956 100 954 l 54 983 q 137 981 86 982 q 246 979 188 979 q 349 981 299 979 q 433 983 400 982 l 433 956 q 364 945 388 954 q 332 912 340 936 q 324 836 324 888 l 324 147 q 332 72 324 97 q 364 39 340 47 q 433 28 388 31 l 433 0 q 349 3 400 3 q 246 4 299 4 q 137 3 188 4 q 54 0 86 3 m 261 481 l 261 508 l 810 508 l 810 481 l 261 481 m 1017 740 l 1017 713 l 54 713 l 54 740 l 1017 740 z "},"Ȟ":{"ha":1071,"x_min":54,"x_max":1017,"o":"m 638 0 l 638 28 q 708 39 685 31 q 740 72 732 47 q 747 147 747 97 l 747 836 q 740 912 747 888 q 708 945 732 936 q 638 956 683 954 l 638 983 q 724 981 672 982 q 828 979 776 979 q 936 981 886 979 q 1017 983 986 982 l 1017 956 q 947 945 971 954 q 915 912 924 936 q 907 836 907 888 l 907 147 q 915 72 907 97 q 947 39 924 47 q 1017 28 971 31 l 1017 0 q 936 3 986 3 q 828 4 886 4 q 724 3 776 4 q 638 0 672 3 m 54 0 l 54 28 q 125 39 101 31 q 156 72 149 47 q 164 147 164 97 l 164 836 q 156 912 164 888 q 124 945 149 936 q 54 956 100 954 l 54 983 q 137 981 86 982 q 246 979 188 979 q 349 981 299 979 q 433 983 400 982 l 433 956 q 364 945 388 954 q 332 912 340 936 q 324 836 324 888 l 324 147 q 332 72 324 97 q 364 39 340 47 q 433 28 388 31 l 433 0 q 349 3 400 3 q 246 4 299 4 q 137 3 188 4 q 54 0 86 3 m 261 481 l 261 508 l 810 508 l 810 481 l 261 481 m 808 1292 l 815 1272 q 654 1186 725 1239 q 547 1078 583 1133 l 522 1078 q 416 1186 488 1133 q 254 1272 344 1239 l 261 1292 q 431 1249 347 1275 q 563 1197 514 1222 q 672 1249 604 1222 q 808 1292 739 1275 z "},"Ĥ":{"ha":1071,"x_min":54,"x_max":1017,"o":"m 638 0 l 638 28 q 708 39 685 31 q 740 72 732 47 q 747 147 747 97 l 747 836 q 740 912 747 888 q 708 945 732 936 q 638 956 683 954 l 638 983 q 724 981 672 982 q 828 979 776 979 q 936 981 886 979 q 1017 983 986 982 l 1017 956 q 947 945 971 954 q 915 912 924 936 q 907 836 907 888 l 907 147 q 915 72 907 97 q 947 39 924 47 q 1017 28 971 31 l 1017 0 q 936 3 986 3 q 828 4 886 4 q 724 3 776 4 q 638 0 672 3 m 54 0 l 54 28 q 125 39 101 31 q 156 72 149 47 q 164 147 164 97 l 164 836 q 156 912 164 888 q 124 945 149 936 q 54 956 100 954 l 54 983 q 137 981 86 982 q 246 979 188 979 q 349 981 299 979 q 433 983 400 982 l 433 956 q 364 945 388 954 q 332 912 340 936 q 324 836 324 888 l 324 147 q 332 72 324 97 q 364 39 340 47 q 433 28 388 31 l 433 0 q 349 3 400 3 q 246 4 299 4 q 137 3 188 4 q 54 0 86 3 m 261 481 l 261 508 l 810 508 l 810 481 l 261 481 m 551 1283 q 658 1176 586 1228 q 819 1089 729 1124 l 813 1069 q 644 1113 726 1086 q 511 1164 561 1139 q 403 1113 471 1139 q 265 1069 335 1086 l 258 1089 q 419 1176 349 1124 q 526 1283 490 1228 l 551 1283 z "},"I":{"ha":488,"x_min":54,"x_max":433,"o":"m 433 983 l 433 956 q 364 945 388 954 q 332 912 340 936 q 324 836 324 888 l 324 147 q 332 72 324 97 q 364 39 340 47 q 433 28 388 31 l 433 0 q 349 3 400 3 q 246 4 299 4 q 137 3 188 4 q 54 0 86 3 l 54 28 q 125 39 101 31 q 156 72 149 47 q 164 147 164 97 l 164 836 q 156 912 164 888 q 124 945 149 936 q 54 956 100 954 l 54 983 q 137 981 86 982 q 246 979 188 979 q 349 981 299 979 q 433 983 400 982 z "},"Ĳ":{"ha":940,"x_min":54,"x_max":896,"o":"m 433 983 l 433 956 q 364 945 388 954 q 332 912 340 936 q 324 836 324 888 l 324 147 q 332 72 324 97 q 364 39 340 47 q 433 28 388 31 l 433 0 q 349 3 400 3 q 246 4 299 4 q 137 3 188 4 q 54 0 86 3 l 54 28 q 125 39 101 31 q 156 72 149 47 q 164 147 164 97 l 164 836 q 156 912 164 888 q 124 945 149 936 q 54 956 100 954 l 54 983 q 137 981 86 982 q 246 979 188 979 q 349 981 299 979 q 433 983 400 982 m 440 -261 l 440 -235 q 542 -203 500 -232 q 604 -108 583 -175 q 625 74 625 -42 l 625 836 q 617 912 625 888 q 586 945 610 936 q 515 956 563 954 l 515 983 q 597 981 547 982 q 703 979 647 979 q 809 981 757 979 q 894 983 861 982 l 894 956 q 825 945 849 954 q 793 912 801 936 q 785 836 785 888 l 785 328 q 784 204 785 271 q 778 75 783 138 q 761 -35 774 13 q 655 -197 736 -132 q 440 -261 574 -261 z "},"Í":{"ha":488,"x_min":54,"x_max":492,"o":"m 433 983 l 433 956 q 364 945 388 954 q 332 912 340 936 q 324 836 324 888 l 324 147 q 332 72 324 97 q 364 39 340 47 q 433 28 388 31 l 433 0 q 349 3 400 3 q 246 4 299 4 q 137 3 188 4 q 54 0 86 3 l 54 28 q 125 39 101 31 q 156 72 149 47 q 164 147 164 97 l 164 836 q 156 912 164 888 q 124 945 149 936 q 54 956 100 954 l 54 983 q 137 981 86 982 q 246 979 188 979 q 349 981 299 979 q 433 983 400 982 m 386 1290 q 441 1301 414 1307 q 481 1274 468 1296 q 485 1228 492 1253 q 447 1185 478 1204 q 380 1155 418 1168 q 290 1124 342 1142 q 165 1072 239 1106 l 156 1090 q 260 1178 221 1140 q 328 1244 300 1217 q 386 1290 356 1272 z "},"Ĭ":{"ha":488,"x_min":-44,"x_max":531,"o":"m 433 983 l 433 956 q 364 945 388 954 q 332 912 340 936 q 324 836 324 888 l 324 147 q 332 72 324 97 q 364 39 340 47 q 433 28 388 31 l 433 0 q 349 3 400 3 q 246 4 299 4 q 137 3 188 4 q 54 0 86 3 l 54 28 q 125 39 101 31 q 156 72 149 47 q 164 147 164 97 l 164 836 q 156 912 164 888 q 124 945 149 936 q 54 956 100 954 l 54 983 q 137 981 86 982 q 246 979 188 979 q 349 981 299 979 q 433 983 400 982 m 514 1265 l 531 1250 q 471 1173 510 1213 q 375 1107 432 1133 q 243 1081 318 1081 q 111 1107 168 1081 q 15 1173 54 1133 q -44 1250 -24 1213 l -26 1264 q 73 1206 7 1235 q 243 1178 139 1178 q 414 1207 347 1178 q 514 1265 481 1236 z "},"Î":{"ha":488,"x_min":-35,"x_max":526,"o":"m 433 983 l 433 956 q 364 945 388 954 q 332 912 340 936 q 324 836 324 888 l 324 147 q 332 72 324 97 q 364 39 340 47 q 433 28 388 31 l 433 0 q 349 3 400 3 q 246 4 299 4 q 137 3 188 4 q 54 0 86 3 l 54 28 q 125 39 101 31 q 156 72 149 47 q 164 147 164 97 l 164 836 q 156 912 164 888 q 124 945 149 936 q 54 956 100 954 l 54 983 q 137 981 86 982 q 246 979 188 979 q 349 981 299 979 q 433 983 400 982 m 258 1283 q 365 1176 293 1228 q 526 1089 436 1124 l 519 1069 q 351 1113 433 1086 q 218 1164 268 1139 q 110 1113 178 1139 q -28 1069 42 1086 l -35 1089 q 126 1176 56 1124 q 233 1283 197 1228 l 258 1283 z "},"Ï":{"ha":488,"x_min":4,"x_max":489,"o":"m 433 983 l 433 956 q 364 945 388 954 q 332 912 340 936 q 324 836 324 888 l 324 147 q 332 72 324 97 q 364 39 340 47 q 433 28 388 31 l 433 0 q 349 3 400 3 q 246 4 299 4 q 137 3 188 4 q 54 0 86 3 l 54 28 q 125 39 101 31 q 156 72 149 47 q 164 147 164 97 l 164 836 q 156 912 164 888 q 124 945 149 936 q 54 956 100 954 l 54 983 q 137 981 86 982 q 246 979 188 979 q 349 981 299 979 q 433 983 400 982 m 400 1247 q 461 1220 435 1247 q 488 1158 488 1193 q 461 1095 488 1121 q 400 1069 435 1069 q 337 1095 363 1069 q 311 1158 311 1121 q 337 1220 311 1193 q 400 1247 363 1247 m 92 1247 q 154 1220 128 1247 q 181 1158 181 1193 q 154 1095 181 1121 q 92 1069 128 1069 q 30 1095 56 1069 q 4 1158 4 1121 q 30 1220 4 1193 q 92 1247 56 1247 z "},"İ":{"ha":488,"x_min":54,"x_max":433,"o":"m 433 983 l 433 956 q 364 945 388 954 q 332 912 340 936 q 324 836 324 888 l 324 147 q 332 72 324 97 q 364 39 340 47 q 433 28 388 31 l 433 0 q 349 3 400 3 q 246 4 299 4 q 137 3 188 4 q 54 0 86 3 l 54 28 q 125 39 101 31 q 156 72 149 47 q 164 147 164 97 l 164 836 q 156 912 164 888 q 124 945 149 936 q 54 956 100 954 l 54 983 q 137 981 86 982 q 246 979 188 979 q 349 981 299 979 q 433 983 400 982 m 246 1335 q 318 1308 289 1335 q 347 1240 347 1281 q 318 1173 347 1200 q 246 1146 289 1146 q 174 1173 203 1146 q 144 1240 144 1200 q 174 1308 144 1281 q 246 1335 203 1335 z "},"Ị":{"ha":488,"x_min":54,"x_max":433,"o":"m 433 983 l 433 956 q 364 945 388 954 q 332 912 340 936 q 324 836 324 888 l 324 147 q 332 72 324 97 q 364 39 340 47 q 433 28 388 31 l 433 0 q 349 3 400 3 q 246 4 299 4 q 137 3 188 4 q 54 0 86 3 l 54 28 q 125 39 101 31 q 156 72 149 47 q 164 147 164 97 l 164 836 q 156 912 164 888 q 124 945 149 936 q 54 956 100 954 l 54 983 q 137 981 86 982 q 246 979 188 979 q 349 981 299 979 q 433 983 400 982 m 246 -254 q 183 -232 208 -254 q 157 -172 157 -210 q 181 -112 157 -136 q 246 -89 204 -89 q 311 -113 288 -89 q 335 -172 335 -137 q 309 -232 335 -210 q 246 -254 283 -254 z "},"Ì":{"ha":488,"x_min":3,"x_max":433,"o":"m 433 983 l 433 956 q 364 945 388 954 q 332 912 340 936 q 324 836 324 888 l 324 147 q 332 72 324 97 q 364 39 340 47 q 433 28 388 31 l 433 0 q 349 3 400 3 q 246 4 299 4 q 137 3 188 4 q 54 0 86 3 l 54 28 q 125 39 101 31 q 156 72 149 47 q 164 147 164 97 l 164 836 q 156 912 164 888 q 124 945 149 936 q 54 956 100 954 l 54 983 q 137 981 86 982 q 246 979 188 979 q 349 981 299 979 q 433 983 400 982 m 108 1290 q 167 1244 139 1272 q 235 1178 194 1217 q 339 1090 275 1140 l 329 1072 q 204 1124 257 1106 q 115 1155 151 1142 q 47 1185 78 1168 q 10 1228 17 1204 q 14 1274 3 1253 q 54 1301 28 1296 q 108 1290 81 1307 z "},"Ỉ":{"ha":488,"x_min":54,"x_max":433,"o":"m 433 983 l 433 956 q 364 945 388 954 q 332 912 340 936 q 324 836 324 888 l 324 147 q 332 72 324 97 q 364 39 340 47 q 433 28 388 31 l 433 0 q 349 3 400 3 q 246 4 299 4 q 137 3 188 4 q 54 0 86 3 l 54 28 q 125 39 101 31 q 156 72 149 47 q 164 147 164 97 l 164 836 q 156 912 164 888 q 124 945 149 936 q 54 956 100 954 l 54 983 q 137 981 86 982 q 246 979 188 979 q 349 981 299 979 q 433 983 400 982 m 229 1063 l 229 1139 q 300 1185 279 1158 q 321 1244 321 1213 q 292 1306 321 1285 q 221 1326 263 1326 q 184 1322 203 1326 q 156 1306 165 1317 q 191 1284 178 1300 q 204 1243 204 1268 q 185 1195 204 1213 q 138 1178 167 1178 q 92 1195 110 1178 q 74 1242 74 1213 q 90 1290 74 1269 q 128 1325 107 1311 q 178 1346 150 1338 q 251 1354 207 1354 q 335 1344 294 1354 q 401 1311 375 1333 q 428 1251 428 1289 q 406 1197 428 1222 q 347 1153 385 1171 q 257 1126 308 1136 l 257 1063 l 229 1063 z "},"Ī":{"ha":488,"x_min":-10,"x_max":501,"o":"m 433 983 l 433 956 q 364 945 388 954 q 332 912 340 936 q 324 836 324 888 l 324 147 q 332 72 324 97 q 364 39 340 47 q 433 28 388 31 l 433 0 q 349 3 400 3 q 246 4 299 4 q 137 3 188 4 q 54 0 86 3 l 54 28 q 125 39 101 31 q 156 72 149 47 q 164 147 164 97 l 164 836 q 156 912 164 888 q 124 945 149 936 q 54 956 100 954 l 54 983 q 137 981 86 982 q 246 979 188 979 q 349 981 299 979 q 433 983 400 982 m 501 1172 l 501 1138 l -10 1138 l -10 1172 l 501 1172 z "},"Į":{"ha":488,"x_min":54,"x_max":447,"o":"m 433 983 l 433 956 q 364 945 388 954 q 332 912 340 936 q 324 836 324 888 l 324 147 q 332 72 324 97 q 364 39 340 47 q 433 28 388 31 l 433 0 q 349 3 400 3 q 246 4 299 4 q 137 3 188 4 q 54 0 86 3 l 54 28 q 125 39 101 31 q 156 72 149 47 q 164 147 164 97 l 164 836 q 156 912 164 888 q 124 945 149 936 q 54 956 100 954 l 54 983 q 137 981 86 982 q 246 979 188 979 q 349 981 299 979 q 433 983 400 982 m 429 4 q 315 -58 346 -19 q 283 -132 283 -97 q 299 -175 283 -158 q 342 -192 314 -192 q 391 -178 368 -192 q 428 -149 414 -165 l 449 -167 q 374 -238 415 -215 q 281 -261 332 -261 q 196 -236 226 -261 q 165 -169 165 -211 q 221 -69 165 -114 q 376 4 276 -25 l 429 4 z "},"Ĩ":{"ha":488,"x_min":-35,"x_max":524,"o":"m 433 983 l 433 956 q 364 945 388 954 q 332 912 340 936 q 324 836 324 888 l 324 147 q 332 72 324 97 q 364 39 340 47 q 433 28 388 31 l 433 0 q 349 3 400 3 q 246 4 299 4 q 137 3 188 4 q 54 0 86 3 l 54 28 q 125 39 101 31 q 156 72 149 47 q 164 147 164 97 l 164 836 q 156 912 164 888 q 124 945 149 936 q 54 956 100 954 l 54 983 q 137 981 86 982 q 246 979 188 979 q 349 981 299 979 q 433 983 400 982 m 131 1263 q 207 1247 172 1263 q 273 1211 242 1232 q 337 1174 304 1190 q 407 1158 369 1158 q 461 1176 436 1158 q 503 1236 486 1193 l 524 1231 q 466 1112 514 1153 q 358 1071 418 1071 q 282 1086 317 1071 q 215 1122 247 1101 q 151 1159 183 1143 q 82 1175 119 1175 q 26 1158 51 1175 q -14 1097 1 1140 l -35 1103 q 24 1222 -24 1181 q 131 1263 71 1263 z "},"J":{"ha":471,"x_min":-29,"x_max":425,"o":"m -29 -261 l -29 -235 q 72 -203 31 -232 q 135 -108 114 -175 q 156 74 156 -42 l 156 836 q 148 912 156 888 q 117 945 140 936 q 46 956 93 954 l 46 983 q 128 981 78 982 q 233 979 178 979 q 340 981 288 979 q 425 983 392 982 l 425 956 q 356 945 379 954 q 324 912 332 936 q 315 836 315 888 l 315 328 q 315 204 315 271 q 309 75 314 138 q 292 -35 304 13 q 185 -197 267 -132 q -29 -261 104 -261 z "},"Ĵ":{"ha":471,"x_min":-46,"x_max":515,"o":"m -29 -261 l -29 -235 q 72 -203 31 -232 q 135 -108 114 -175 q 156 74 156 -42 l 156 836 q 148 912 156 888 q 117 945 140 936 q 46 956 93 954 l 46 983 q 128 981 78 982 q 233 979 178 979 q 340 981 288 979 q 425 983 392 982 l 425 956 q 356 945 379 954 q 324 912 332 936 q 315 836 315 888 l 315 328 q 315 204 315 271 q 309 75 314 138 q 292 -35 304 13 q 185 -197 267 -132 q -29 -261 104 -261 m 247 1283 q 353 1176 282 1228 q 515 1089 425 1124 l 508 1069 q 340 1113 422 1086 q 207 1164 257 1139 q 99 1113 167 1139 q -39 1069 31 1086 l -46 1089 q 115 1176 44 1124 q 222 1283 186 1228 l 247 1283 z "},"K":{"ha":938,"x_min":54,"x_max":940,"o":"m 889 983 l 889 956 q 801 924 844 949 q 713 844 757 900 l 446 511 l 493 596 l 826 113 q 874 60 849 79 q 940 28 900 40 l 940 0 q 850 3 903 3 q 757 4 797 4 q 695 3 732 4 q 603 0 658 3 l 603 28 q 666 44 654 31 q 656 90 678 58 l 454 403 q 410 462 429 442 q 369 488 390 482 q 318 496 349 494 l 318 525 q 419 551 376 526 q 499 619 461 576 l 614 765 q 676 867 663 825 q 669 932 690 910 q 592 956 649 954 l 592 983 q 649 981 621 982 q 708 980 678 981 q 767 979 738 979 q 835 981 804 979 q 889 983 867 982 m 433 983 l 433 956 q 364 945 388 954 q 332 912 340 936 q 324 836 324 888 l 324 147 q 332 72 324 97 q 364 39 340 47 q 433 28 388 31 l 433 0 q 349 3 400 3 q 246 4 299 4 q 137 3 188 4 q 54 0 86 3 l 54 28 q 125 39 101 31 q 156 72 149 47 q 164 147 164 97 l 164 836 q 156 912 164 888 q 124 945 149 936 q 54 956 100 954 l 54 983 q 137 981 86 982 q 246 979 188 979 q 349 981 299 979 q 433 983 400 982 z "},"Ǩ":{"ha":938,"x_min":54,"x_max":940,"o":"m 889 983 l 889 956 q 801 924 844 949 q 713 844 757 900 l 446 511 l 493 596 l 826 113 q 874 60 849 79 q 940 28 900 40 l 940 0 q 850 3 903 3 q 757 4 797 4 q 695 3 732 4 q 603 0 658 3 l 603 28 q 666 44 654 31 q 656 90 678 58 l 454 403 q 410 462 429 442 q 369 488 390 482 q 318 496 349 494 l 318 525 q 419 551 376 526 q 499 619 461 576 l 614 765 q 676 867 663 825 q 669 932 690 910 q 592 956 649 954 l 592 983 q 649 981 621 982 q 708 980 678 981 q 767 979 738 979 q 835 981 804 979 q 889 983 867 982 m 433 983 l 433 956 q 364 945 388 954 q 332 912 340 936 q 324 836 324 888 l 324 147 q 332 72 324 97 q 364 39 340 47 q 433 28 388 31 l 433 0 q 349 3 400 3 q 246 4 299 4 q 137 3 188 4 q 54 0 86 3 l 54 28 q 125 39 101 31 q 156 72 149 47 q 164 147 164 97 l 164 836 q 156 912 164 888 q 124 945 149 936 q 54 956 100 954 l 54 983 q 137 981 86 982 q 246 979 188 979 q 349 981 299 979 q 433 983 400 982 m 772 1292 l 779 1272 q 618 1186 689 1239 q 511 1078 547 1133 l 486 1078 q 380 1186 451 1133 q 218 1272 308 1239 l 225 1292 q 394 1249 311 1275 q 526 1197 478 1222 q 635 1249 568 1222 q 772 1292 703 1275 z "},"Ķ":{"ha":938,"x_min":54,"x_max":940,"o":"m 889 983 l 889 956 q 801 924 844 949 q 713 844 757 900 l 446 511 l 493 596 l 826 113 q 874 60 849 79 q 940 28 900 40 l 940 0 q 850 3 903 3 q 757 4 797 4 q 695 3 732 4 q 603 0 658 3 l 603 28 q 666 44 654 31 q 656 90 678 58 l 454 403 q 410 462 429 442 q 369 488 390 482 q 318 496 349 494 l 318 525 q 419 551 376 526 q 499 619 461 576 l 614 765 q 676 867 663 825 q 669 932 690 910 q 592 956 649 954 l 592 983 q 649 981 621 982 q 708 980 678 981 q 767 979 738 979 q 835 981 804 979 q 889 983 867 982 m 433 983 l 433 956 q 364 945 388 954 q 332 912 340 936 q 324 836 324 888 l 324 147 q 332 72 324 97 q 364 39 340 47 q 433 28 388 31 l 433 0 q 349 3 400 3 q 246 4 299 4 q 137 3 188 4 q 54 0 86 3 l 54 28 q 125 39 101 31 q 156 72 149 47 q 164 147 164 97 l 164 836 q 156 912 164 888 q 124 945 149 936 q 54 956 100 954 l 54 983 q 137 981 86 982 q 246 979 188 979 q 349 981 299 979 q 433 983 400 982 m 496 -89 q 567 -117 539 -89 q 594 -190 594 -146 q 566 -280 594 -243 q 465 -336 538 -317 l 457 -310 q 523 -279 494 -300 q 551 -225 551 -258 q 526 -241 542 -235 q 490 -247 510 -247 q 431 -227 454 -247 q 408 -168 408 -207 q 433 -111 408 -133 q 496 -89 458 -89 z "},"L":{"ha":828,"x_min":54,"x_max":792,"o":"m 436 983 l 436 956 q 365 945 389 954 q 332 912 340 936 q 324 836 324 888 l 324 142 q 331 71 324 94 q 362 40 339 47 q 428 32 385 32 l 518 32 q 619 49 578 32 q 688 99 660 65 q 731 185 715 132 q 754 308 746 238 l 786 308 q 782 192 782 264 q 784 110 782 164 q 792 0 786 57 q 632 3 721 3 q 474 4 543 4 q 392 4 442 4 q 284 3 342 4 q 167 2 226 3 q 54 0 108 1 l 54 28 q 125 39 101 31 q 156 72 149 47 q 164 147 164 97 l 164 836 q 156 912 164 888 q 124 945 149 936 q 54 956 100 954 l 54 983 q 137 981 86 982 q 246 979 188 979 q 351 981 299 979 q 436 983 403 982 z "},"Ĺ":{"ha":828,"x_min":54,"x_max":792,"o":"m 436 983 l 436 956 q 365 945 389 954 q 332 912 340 936 q 324 836 324 888 l 324 142 q 331 71 324 94 q 362 40 339 47 q 428 32 385 32 l 518 32 q 619 49 578 32 q 688 99 660 65 q 731 185 715 132 q 754 308 746 238 l 786 308 q 782 192 782 264 q 784 110 782 164 q 792 0 786 57 q 632 3 721 3 q 474 4 543 4 q 392 4 442 4 q 284 3 342 4 q 167 2 226 3 q 54 0 108 1 l 54 28 q 125 39 101 31 q 156 72 149 47 q 164 147 164 97 l 164 836 q 156 912 164 888 q 124 945 149 936 q 54 956 100 954 l 54 983 q 137 981 86 982 q 246 979 188 979 q 351 981 299 979 q 436 983 403 982 m 386 1290 q 441 1301 414 1307 q 481 1274 468 1296 q 485 1228 492 1253 q 447 1185 478 1204 q 380 1155 418 1168 q 290 1124 342 1142 q 165 1072 239 1106 l 156 1090 q 260 1178 221 1140 q 328 1244 300 1217 q 386 1290 356 1272 z "},"Ľ":{"ha":828,"x_min":54,"x_max":792,"o":"m 436 983 l 436 956 q 365 945 389 954 q 332 912 340 936 q 324 836 324 888 l 324 142 q 331 71 324 94 q 362 40 339 47 q 428 32 385 32 l 518 32 q 619 49 578 32 q 688 99 660 65 q 731 185 715 132 q 754 308 746 238 l 786 308 q 782 192 782 264 q 784 110 782 164 q 792 0 786 57 q 632 3 721 3 q 474 4 543 4 q 392 4 442 4 q 284 3 342 4 q 167 2 226 3 q 54 0 108 1 l 54 28 q 125 39 101 31 q 156 72 149 47 q 164 147 164 97 l 164 836 q 156 912 164 888 q 124 945 149 936 q 54 956 100 954 l 54 983 q 137 981 86 982 q 246 979 188 979 q 351 981 299 979 q 436 983 403 982 m 689 992 q 694 969 692 985 q 696 942 696 954 q 659 831 696 897 q 561 664 622 764 l 542 669 q 564 827 558 776 q 569 899 569 878 q 562 940 569 926 q 528 954 554 954 l 528 983 q 622 981 586 978 q 689 992 657 985 z "},"Ļ":{"ha":828,"x_min":54,"x_max":792,"o":"m 436 983 l 436 956 q 365 945 389 954 q 332 912 340 936 q 324 836 324 888 l 324 142 q 331 71 324 94 q 362 40 339 47 q 428 32 385 32 l 518 32 q 619 49 578 32 q 688 99 660 65 q 731 185 715 132 q 754 308 746 238 l 786 308 q 782 192 782 264 q 784 110 782 164 q 792 0 786 57 q 632 3 721 3 q 474 4 543 4 q 392 4 442 4 q 284 3 342 4 q 167 2 226 3 q 54 0 108 1 l 54 28 q 125 39 101 31 q 156 72 149 47 q 164 147 164 97 l 164 836 q 156 912 164 888 q 124 945 149 936 q 54 956 100 954 l 54 983 q 137 981 86 982 q 246 979 188 979 q 351 981 299 979 q 436 983 403 982 m 463 -89 q 533 -117 506 -89 q 561 -190 561 -146 q 533 -280 561 -243 q 432 -336 504 -317 l 424 -310 q 490 -279 461 -300 q 518 -225 518 -258 q 492 -241 508 -235 q 457 -247 476 -247 q 398 -227 421 -247 q 375 -168 375 -207 q 400 -111 375 -133 q 463 -89 425 -89 z "},"Ŀ":{"ha":828,"x_min":54,"x_max":792,"o":"m 436 983 l 436 956 q 365 945 389 954 q 332 912 340 936 q 324 836 324 888 l 324 142 q 331 71 324 94 q 362 40 339 47 q 428 32 385 32 l 518 32 q 619 49 578 32 q 688 99 660 65 q 731 185 715 132 q 754 308 746 238 l 786 308 q 782 192 782 264 q 784 110 782 164 q 792 0 786 57 q 632 3 721 3 q 474 4 543 4 q 392 4 442 4 q 284 3 342 4 q 167 2 226 3 q 54 0 108 1 l 54 28 q 125 39 101 31 q 156 72 149 47 q 164 147 164 97 l 164 836 q 156 912 164 888 q 124 945 149 936 q 54 956 100 954 l 54 983 q 137 981 86 982 q 246 979 188 979 q 351 981 299 979 q 436 983 403 982 m 664 699 q 734 672 706 699 q 763 603 763 644 q 734 535 763 563 q 664 508 706 508 q 594 535 622 508 q 565 603 565 563 q 594 672 565 644 q 664 699 622 699 z "},"Ł":{"ha":828,"x_min":32,"x_max":792,"o":"m 436 983 l 436 956 q 365 945 389 954 q 332 912 340 936 q 324 836 324 888 l 324 142 q 331 71 324 94 q 362 40 339 47 q 428 32 385 32 l 518 32 q 619 49 578 32 q 688 99 660 65 q 731 185 715 132 q 754 308 746 238 l 786 308 q 782 192 782 264 q 784 110 782 164 q 792 0 786 57 q 632 3 721 3 q 474 4 543 4 q 392 4 442 4 q 284 3 342 4 q 167 2 226 3 q 54 0 108 1 l 54 28 q 125 39 101 31 q 156 72 149 47 q 164 147 164 97 l 164 836 q 156 912 164 888 q 124 945 149 936 q 54 956 100 954 l 54 983 q 137 981 86 982 q 246 979 188 979 q 351 981 299 979 q 436 983 403 982 m 635 657 l 635 625 l 240 396 l 240 428 l 635 657 m 240 442 l 240 410 l 32 289 l 32 321 l 240 442 z "},"M":{"ha":1236,"x_min":56,"x_max":1182,"o":"m 1182 983 l 1182 956 q 1111 945 1135 954 q 1080 912 1088 936 q 1072 836 1072 888 l 1072 147 q 1080 72 1072 97 q 1111 39 1088 47 q 1182 28 1135 31 l 1182 0 q 1096 3 1147 3 q 992 4 1044 4 q 882 3 933 4 q 800 0 831 3 l 800 28 q 872 39 847 31 q 904 72 896 47 q 913 147 913 97 l 913 907 l 919 904 l 578 -6 l 556 -6 l 197 894 l 197 183 q 206 92 197 125 q 242 46 214 60 q 326 28 269 32 l 326 0 q 259 3 300 3 q 182 4 218 4 q 113 3 147 4 q 56 0 78 3 l 56 28 q 125 45 101 32 q 157 90 149 58 q 165 178 165 122 l 165 836 q 157 912 165 888 q 125 945 149 936 q 56 956 101 954 l 56 983 q 113 981 78 982 q 182 979 147 979 q 263 981 222 979 q 333 983 304 982 l 640 194 l 614 176 l 915 979 q 953 979 933 979 q 992 979 972 979 q 1096 981 1044 979 q 1182 983 1147 982 z "},"N":{"ha":988,"x_min":56,"x_max":942,"o":"m 942 983 l 942 956 q 871 939 894 953 q 840 894 847 925 q 832 806 832 863 l 832 -6 q 810 -6 821 -6 q 786 -6 799 -6 l 197 850 l 197 183 q 206 92 197 125 q 242 46 214 60 q 326 28 269 32 l 326 0 q 259 3 300 3 q 182 4 218 4 q 113 3 147 4 q 56 0 78 3 l 56 28 q 125 45 101 32 q 157 90 149 58 q 165 178 165 122 l 165 836 q 157 912 165 888 q 125 945 149 936 q 56 956 101 954 l 56 983 q 113 981 78 982 q 182 979 147 979 q 242 981 213 979 q 293 983 271 982 l 800 258 l 800 800 q 791 892 800 860 q 754 938 782 924 q 671 956 726 953 l 671 983 q 738 981 696 982 q 815 979 779 979 q 885 981 850 979 q 942 983 919 982 z "},"Ń":{"ha":988,"x_min":56,"x_max":942,"o":"m 942 983 l 942 956 q 871 939 894 953 q 840 894 847 925 q 832 806 832 863 l 832 -6 q 810 -6 821 -6 q 786 -6 799 -6 l 197 850 l 197 183 q 206 92 197 125 q 242 46 214 60 q 326 28 269 32 l 326 0 q 259 3 300 3 q 182 4 218 4 q 113 3 147 4 q 56 0 78 3 l 56 28 q 125 45 101 32 q 157 90 149 58 q 165 178 165 122 l 165 836 q 157 912 165 888 q 125 945 149 936 q 56 956 101 954 l 56 983 q 113 981 78 982 q 182 979 147 979 q 242 981 213 979 q 293 983 271 982 l 800 258 l 800 800 q 791 892 800 860 q 754 938 782 924 q 671 956 726 953 l 671 983 q 738 981 696 982 q 815 979 779 979 q 885 981 850 979 q 942 983 919 982 m 663 1290 q 717 1301 690 1307 q 757 1274 744 1296 q 761 1228 768 1253 q 724 1185 754 1204 q 656 1155 694 1168 q 567 1124 618 1142 q 442 1072 515 1106 l 432 1090 q 537 1178 497 1140 q 604 1244 576 1217 q 663 1290 632 1272 z "},"Ň":{"ha":988,"x_min":56,"x_max":942,"o":"m 942 983 l 942 956 q 871 939 894 953 q 840 894 847 925 q 832 806 832 863 l 832 -6 q 810 -6 821 -6 q 786 -6 799 -6 l 197 850 l 197 183 q 206 92 197 125 q 242 46 214 60 q 326 28 269 32 l 326 0 q 259 3 300 3 q 182 4 218 4 q 113 3 147 4 q 56 0 78 3 l 56 28 q 125 45 101 32 q 157 90 149 58 q 165 178 165 122 l 165 836 q 157 912 165 888 q 125 945 149 936 q 56 956 101 954 l 56 983 q 113 981 78 982 q 182 979 147 979 q 242 981 213 979 q 293 983 271 982 l 800 258 l 800 800 q 791 892 800 860 q 754 938 782 924 q 671 956 726 953 l 671 983 q 738 981 696 982 q 815 979 779 979 q 885 981 850 979 q 942 983 919 982 m 792 1292 l 799 1272 q 638 1186 708 1239 q 531 1078 567 1133 l 506 1078 q 399 1186 471 1133 q 238 1272 328 1239 l 244 1292 q 414 1249 331 1275 q 546 1197 497 1222 q 655 1249 588 1222 q 792 1292 722 1275 z "},"Ņ":{"ha":988,"x_min":56,"x_max":942,"o":"m 942 983 l 942 956 q 871 939 894 953 q 840 894 847 925 q 832 806 832 863 l 832 -6 q 810 -6 821 -6 q 786 -6 799 -6 l 197 850 l 197 183 q 206 92 197 125 q 242 46 214 60 q 326 28 269 32 l 326 0 q 259 3 300 3 q 182 4 218 4 q 113 3 147 4 q 56 0 78 3 l 56 28 q 125 45 101 32 q 157 90 149 58 q 165 178 165 122 l 165 836 q 157 912 165 888 q 125 945 149 936 q 56 956 101 954 l 56 983 q 113 981 78 982 q 182 979 147 979 q 242 981 213 979 q 293 983 271 982 l 800 258 l 800 800 q 791 892 800 860 q 754 938 782 924 q 671 956 726 953 l 671 983 q 738 981 696 982 q 815 979 779 979 q 885 981 850 979 q 942 983 919 982 m 504 -89 q 575 -117 547 -89 q 603 -190 603 -146 q 574 -280 603 -243 q 474 -336 546 -317 l 465 -310 q 531 -279 503 -300 q 560 -225 560 -258 q 534 -241 550 -235 q 499 -247 518 -247 q 440 -227 463 -247 q 417 -168 417 -207 q 442 -111 417 -133 q 504 -89 467 -89 z "},"Ŋ":{"ha":986,"x_min":54,"x_max":940,"o":"m 940 983 l 940 956 q 871 945 894 954 q 839 912 847 936 q 831 836 831 888 l 831 378 l 810 -6 q 798 -6 804 -6 q 786 -6 792 -6 l 196 850 l 196 147 q 204 72 196 97 q 237 39 213 47 q 308 28 261 31 l 308 0 q 250 3 283 3 q 181 4 217 4 q 113 3 147 4 q 54 0 78 3 l 54 28 q 124 39 100 31 q 156 72 149 47 q 164 147 164 97 l 164 836 q 156 912 164 888 q 124 945 149 936 q 54 956 100 954 l 54 983 q 113 981 78 982 q 181 979 147 979 q 249 981 215 979 q 308 983 282 982 l 799 281 l 799 836 q 790 912 799 888 q 758 945 782 936 q 686 956 733 954 l 686 983 q 745 981 711 982 q 814 979 779 979 q 884 981 850 979 q 940 983 918 982 m 831 618 l 831 114 q 816 -75 831 -1 q 774 -190 801 -149 q 711 -246 747 -231 q 632 -261 675 -261 q 537 -240 578 -261 q 496 -167 496 -218 q 519 -110 496 -131 q 575 -89 542 -89 q 632 -109 608 -89 q 656 -161 656 -129 q 643 -203 656 -182 q 610 -235 631 -224 q 625 -236 617 -236 q 640 -236 633 -236 q 762 -157 725 -236 q 799 65 799 -78 l 799 618 q 815 618 799 618 q 831 618 831 618 z "},"Ñ":{"ha":988,"x_min":56,"x_max":942,"o":"m 942 983 l 942 956 q 871 939 894 953 q 840 894 847 925 q 832 806 832 863 l 832 -6 q 810 -6 821 -6 q 786 -6 799 -6 l 197 850 l 197 183 q 206 92 197 125 q 242 46 214 60 q 326 28 269 32 l 326 0 q 259 3 300 3 q 182 4 218 4 q 113 3 147 4 q 56 0 78 3 l 56 28 q 125 45 101 32 q 157 90 149 58 q 165 178 165 122 l 165 836 q 157 912 165 888 q 125 945 149 936 q 56 956 101 954 l 56 983 q 113 981 78 982 q 182 979 147 979 q 242 981 213 979 q 293 983 271 982 l 800 258 l 800 800 q 791 892 800 860 q 754 938 782 924 q 671 956 726 953 l 671 983 q 738 981 696 982 q 815 979 779 979 q 885 981 850 979 q 942 983 919 982 m 407 1263 q 483 1247 449 1263 q 549 1211 518 1232 q 613 1174 581 1190 q 683 1158 646 1158 q 738 1176 713 1158 q 779 1236 763 1193 l 800 1231 q 742 1112 790 1153 q 635 1071 694 1071 q 558 1086 593 1071 q 492 1122 524 1101 q 428 1159 460 1143 q 358 1175 396 1175 q 303 1158 328 1175 q 263 1097 278 1140 l 242 1103 q 300 1222 253 1181 q 407 1263 347 1263 z "},"O":{"ha":1053,"x_min":69,"x_max":985,"o":"m 528 1003 q 767 943 664 1003 q 928 772 871 883 q 985 500 985 660 q 926 228 985 344 q 764 46 868 111 q 526 -19 660 -19 q 286 40 389 -19 q 126 213 183 100 q 69 483 69 325 q 128 756 69 639 q 290 938 188 872 q 528 1003 393 1003 m 522 978 q 372 915 436 978 q 274 743 308 853 q 239 489 239 633 q 278 233 239 342 q 383 65 317 124 q 532 6 450 6 q 681 68 618 6 q 780 241 744 131 q 815 494 815 351 q 776 751 815 643 q 670 919 736 860 q 522 978 604 978 z "},"Ó":{"ha":1053,"x_min":69,"x_max":985,"o":"m 528 1003 q 767 943 664 1003 q 928 772 871 883 q 985 500 985 660 q 926 228 985 344 q 764 46 868 111 q 526 -19 660 -19 q 286 40 389 -19 q 126 213 183 100 q 69 483 69 325 q 128 756 69 639 q 290 938 188 872 q 528 1003 393 1003 m 522 978 q 372 915 436 978 q 274 743 308 853 q 239 489 239 633 q 278 233 239 342 q 383 65 317 124 q 532 6 450 6 q 681 68 618 6 q 780 241 744 131 q 815 494 815 351 q 776 751 815 643 q 670 919 736 860 q 522 978 604 978 m 665 1290 q 720 1301 693 1307 q 760 1274 747 1296 q 764 1228 771 1253 q 726 1185 757 1204 q 659 1155 697 1168 q 569 1124 621 1142 q 444 1072 518 1106 l 435 1090 q 540 1178 500 1140 q 607 1244 579 1217 q 665 1290 635 1272 z "},"Ŏ":{"ha":1053,"x_min":69,"x_max":985,"o":"m 528 1003 q 767 943 664 1003 q 928 772 871 883 q 985 500 985 660 q 926 228 985 344 q 764 46 868 111 q 526 -19 660 -19 q 286 40 389 -19 q 126 213 183 100 q 69 483 69 325 q 128 756 69 639 q 290 938 188 872 q 528 1003 393 1003 m 522 978 q 372 915 436 978 q 274 743 308 853 q 239 489 239 633 q 278 233 239 342 q 383 65 317 124 q 532 6 450 6 q 681 68 618 6 q 780 241 744 131 q 815 494 815 351 q 776 751 815 643 q 670 919 736 860 q 522 978 604 978 m 793 1265 l 810 1250 q 750 1173 789 1213 q 654 1107 711 1133 q 522 1081 597 1081 q 390 1107 447 1081 q 294 1173 333 1133 q 235 1250 256 1213 l 253 1264 q 352 1206 286 1235 q 522 1178 418 1178 q 693 1207 626 1178 q 793 1265 760 1236 z "},"Ô":{"ha":1053,"x_min":69,"x_max":985,"o":"m 528 1003 q 767 943 664 1003 q 928 772 871 883 q 985 500 985 660 q 926 228 985 344 q 764 46 868 111 q 526 -19 660 -19 q 286 40 389 -19 q 126 213 183 100 q 69 483 69 325 q 128 756 69 639 q 290 938 188 872 q 528 1003 393 1003 m 522 978 q 372 915 436 978 q 274 743 308 853 q 239 489 239 633 q 278 233 239 342 q 383 65 317 124 q 532 6 450 6 q 681 68 618 6 q 780 241 744 131 q 815 494 815 351 q 776 751 815 643 q 670 919 736 860 q 522 978 604 978 m 538 1283 q 644 1176 572 1228 q 806 1089 715 1124 l 799 1069 q 630 1113 713 1086 q 497 1164 547 1139 q 389 1113 457 1139 q 251 1069 321 1086 l 244 1089 q 406 1176 335 1124 q 513 1283 476 1228 l 538 1283 z "},"Ố":{"ha":1053,"x_min":69,"x_max":985,"o":"m 528 1003 q 767 943 664 1003 q 928 772 871 883 q 985 500 985 660 q 926 228 985 344 q 764 46 868 111 q 526 -19 660 -19 q 286 40 389 -19 q 126 213 183 100 q 69 483 69 325 q 128 756 69 639 q 290 938 188 872 q 528 1003 393 1003 m 522 978 q 372 915 436 978 q 274 743 308 853 q 239 489 239 633 q 278 233 239 342 q 383 65 317 124 q 532 6 450 6 q 681 68 618 6 q 780 241 744 131 q 815 494 815 351 q 776 751 815 643 q 670 919 736 860 q 522 978 604 978 m 538 1283 q 644 1176 572 1228 q 806 1089 715 1124 l 799 1069 q 630 1113 713 1086 q 497 1164 547 1139 q 389 1113 457 1139 q 251 1069 321 1086 l 244 1089 q 406 1176 335 1124 q 513 1283 476 1228 l 538 1283 m 665 1596 q 720 1607 693 1613 q 760 1579 747 1601 q 764 1534 771 1558 q 726 1490 757 1510 q 659 1460 697 1474 q 569 1429 621 1447 q 444 1378 518 1411 l 435 1396 q 540 1484 500 1446 q 607 1550 579 1522 q 665 1596 635 1578 z "},"Ộ":{"ha":1053,"x_min":69,"x_max":985,"o":"m 528 1003 q 767 943 664 1003 q 928 772 871 883 q 985 500 985 660 q 926 228 985 344 q 764 46 868 111 q 526 -19 660 -19 q 286 40 389 -19 q 126 213 183 100 q 69 483 69 325 q 128 756 69 639 q 290 938 188 872 q 528 1003 393 1003 m 522 978 q 372 915 436 978 q 274 743 308 853 q 239 489 239 633 q 278 233 239 342 q 383 65 317 124 q 532 6 450 6 q 681 68 618 6 q 780 241 744 131 q 815 494 815 351 q 776 751 815 643 q 670 919 736 860 q 522 978 604 978 m 538 1283 q 644 1176 572 1228 q 806 1089 715 1124 l 799 1069 q 630 1113 713 1086 q 497 1164 547 1139 q 389 1113 457 1139 q 251 1069 321 1086 l 244 1089 q 406 1176 335 1124 q 513 1283 476 1228 l 538 1283 m 528 -254 q 465 -232 490 -254 q 439 -172 439 -210 q 463 -112 439 -136 q 528 -89 486 -89 q 593 -113 569 -89 q 617 -172 617 -137 q 591 -232 617 -210 q 528 -254 565 -254 z "},"Ồ":{"ha":1053,"x_min":69,"x_max":985,"o":"m 528 1003 q 767 943 664 1003 q 928 772 871 883 q 985 500 985 660 q 926 228 985 344 q 764 46 868 111 q 526 -19 660 -19 q 286 40 389 -19 q 126 213 183 100 q 69 483 69 325 q 128 756 69 639 q 290 938 188 872 q 528 1003 393 1003 m 522 978 q 372 915 436 978 q 274 743 308 853 q 239 489 239 633 q 278 233 239 342 q 383 65 317 124 q 532 6 450 6 q 681 68 618 6 q 780 241 744 131 q 815 494 815 351 q 776 751 815 643 q 670 919 736 860 q 522 978 604 978 m 538 1283 q 644 1176 572 1228 q 806 1089 715 1124 l 799 1069 q 630 1113 713 1086 q 497 1164 547 1139 q 389 1113 457 1139 q 251 1069 321 1086 l 244 1089 q 406 1176 335 1124 q 513 1283 476 1228 l 538 1283 m 388 1596 q 446 1550 418 1578 q 514 1484 474 1522 q 618 1396 554 1446 l 608 1378 q 483 1429 536 1411 q 394 1460 431 1447 q 326 1490 357 1474 q 289 1534 296 1510 q 293 1579 282 1558 q 333 1607 307 1601 q 388 1596 360 1613 z "},"Ổ":{"ha":1053,"x_min":69,"x_max":985,"o":"m 528 1003 q 767 943 664 1003 q 928 772 871 883 q 985 500 985 660 q 926 228 985 344 q 764 46 868 111 q 526 -19 660 -19 q 286 40 389 -19 q 126 213 183 100 q 69 483 69 325 q 128 756 69 639 q 290 938 188 872 q 528 1003 393 1003 m 522 978 q 372 915 436 978 q 274 743 308 853 q 239 489 239 633 q 278 233 239 342 q 383 65 317 124 q 532 6 450 6 q 681 68 618 6 q 780 241 744 131 q 815 494 815 351 q 776 751 815 643 q 670 919 736 860 q 522 978 604 978 m 538 1283 q 644 1176 572 1228 q 806 1089 715 1124 l 799 1069 q 630 1113 713 1086 q 497 1164 547 1139 q 389 1113 457 1139 q 251 1069 321 1086 l 244 1089 q 406 1176 335 1124 q 513 1283 476 1228 l 538 1283 m 739 1274 l 739 1350 q 810 1397 789 1369 q 831 1456 831 1424 q 801 1517 831 1496 q 731 1538 772 1538 q 694 1533 713 1538 q 665 1517 675 1528 q 701 1495 688 1511 q 714 1454 714 1479 q 695 1406 714 1424 q 647 1389 676 1389 q 601 1406 619 1389 q 583 1453 583 1424 q 600 1501 583 1481 q 638 1536 617 1522 q 688 1557 660 1549 q 761 1565 717 1565 q 844 1555 804 1565 q 911 1522 885 1544 q 938 1463 938 1500 q 916 1408 938 1433 q 856 1365 894 1382 q 767 1338 818 1347 l 767 1274 l 739 1274 z "},"Ỗ":{"ha":1053,"x_min":69,"x_max":985,"o":"m 528 1003 q 767 943 664 1003 q 928 772 871 883 q 985 500 985 660 q 926 228 985 344 q 764 46 868 111 q 526 -19 660 -19 q 286 40 389 -19 q 126 213 183 100 q 69 483 69 325 q 128 756 69 639 q 290 938 188 872 q 528 1003 393 1003 m 522 978 q 372 915 436 978 q 274 743 308 853 q 239 489 239 633 q 278 233 239 342 q 383 65 317 124 q 532 6 450 6 q 681 68 618 6 q 780 241 744 131 q 815 494 815 351 q 776 751 815 643 q 670 919 736 860 q 522 978 604 978 m 538 1283 q 644 1176 572 1228 q 806 1089 715 1124 l 799 1069 q 630 1113 713 1086 q 497 1164 547 1139 q 389 1113 457 1139 q 251 1069 321 1086 l 244 1089 q 406 1176 335 1124 q 513 1283 476 1228 l 538 1283 m 410 1568 q 486 1553 451 1568 q 552 1517 521 1538 q 616 1480 583 1496 q 686 1464 649 1464 q 740 1481 715 1464 q 782 1542 765 1499 l 803 1536 q 745 1417 793 1458 q 638 1376 697 1376 q 561 1392 596 1376 q 494 1428 526 1407 q 431 1465 463 1449 q 361 1481 399 1481 q 306 1463 331 1481 q 265 1403 281 1446 l 244 1408 q 303 1527 256 1486 q 410 1568 350 1568 z "},"Ö":{"ha":1053,"x_min":69,"x_max":985,"o":"m 528 1003 q 767 943 664 1003 q 928 772 871 883 q 985 500 985 660 q 926 228 985 344 q 764 46 868 111 q 526 -19 660 -19 q 286 40 389 -19 q 126 213 183 100 q 69 483 69 325 q 128 756 69 639 q 290 938 188 872 q 528 1003 393 1003 m 522 978 q 372 915 436 978 q 274 743 308 853 q 239 489 239 633 q 278 233 239 342 q 383 65 317 124 q 532 6 450 6 q 681 68 618 6 q 780 241 744 131 q 815 494 815 351 q 776 751 815 643 q 670 919 736 860 q 522 978 604 978 m 679 1247 q 740 1220 714 1247 q 767 1158 767 1193 q 740 1095 767 1121 q 679 1069 714 1069 q 616 1095 642 1069 q 590 1158 590 1121 q 616 1220 590 1193 q 679 1247 642 1247 m 371 1247 q 433 1220 407 1247 q 460 1158 460 1193 q 433 1095 460 1121 q 371 1069 407 1069 q 309 1095 335 1069 q 283 1158 283 1121 q 309 1220 283 1193 q 371 1247 335 1247 z "},"Ọ":{"ha":1053,"x_min":69,"x_max":985,"o":"m 528 1003 q 767 943 664 1003 q 928 772 871 883 q 985 500 985 660 q 926 228 985 344 q 764 46 868 111 q 526 -19 660 -19 q 286 40 389 -19 q 126 213 183 100 q 69 483 69 325 q 128 756 69 639 q 290 938 188 872 q 528 1003 393 1003 m 522 978 q 372 915 436 978 q 274 743 308 853 q 239 489 239 633 q 278 233 239 342 q 383 65 317 124 q 532 6 450 6 q 681 68 618 6 q 780 241 744 131 q 815 494 815 351 q 776 751 815 643 q 670 919 736 860 q 522 978 604 978 m 528 -254 q 465 -232 490 -254 q 439 -172 439 -210 q 463 -112 439 -136 q 528 -89 486 -89 q 593 -113 569 -89 q 617 -172 617 -137 q 591 -232 617 -210 q 528 -254 565 -254 z "},"Ò":{"ha":1053,"x_min":69,"x_max":985,"o":"m 528 1003 q 767 943 664 1003 q 928 772 871 883 q 985 500 985 660 q 926 228 985 344 q 764 46 868 111 q 526 -19 660 -19 q 286 40 389 -19 q 126 213 183 100 q 69 483 69 325 q 128 756 69 639 q 290 938 188 872 q 528 1003 393 1003 m 522 978 q 372 915 436 978 q 274 743 308 853 q 239 489 239 633 q 278 233 239 342 q 383 65 317 124 q 532 6 450 6 q 681 68 618 6 q 780 241 744 131 q 815 494 815 351 q 776 751 815 643 q 670 919 736 860 q 522 978 604 978 m 388 1290 q 446 1244 418 1272 q 514 1178 474 1217 q 618 1090 554 1140 l 608 1072 q 483 1124 536 1106 q 394 1155 431 1142 q 326 1185 357 1168 q 289 1228 296 1204 q 293 1274 282 1253 q 333 1301 307 1296 q 388 1290 360 1307 z "},"Ỏ":{"ha":1053,"x_min":69,"x_max":985,"o":"m 528 1003 q 767 943 664 1003 q 928 772 871 883 q 985 500 985 660 q 926 228 985 344 q 764 46 868 111 q 526 -19 660 -19 q 286 40 389 -19 q 126 213 183 100 q 69 483 69 325 q 128 756 69 639 q 290 938 188 872 q 528 1003 393 1003 m 522 978 q 372 915 436 978 q 274 743 308 853 q 239 489 239 633 q 278 233 239 342 q 383 65 317 124 q 532 6 450 6 q 681 68 618 6 q 780 241 744 131 q 815 494 815 351 q 776 751 815 643 q 670 919 736 860 q 522 978 604 978 m 507 1063 l 507 1139 q 578 1185 557 1158 q 599 1244 599 1213 q 569 1306 599 1285 q 499 1326 540 1326 q 462 1322 481 1326 q 433 1306 443 1317 q 469 1284 456 1300 q 482 1243 482 1268 q 463 1195 482 1213 q 415 1178 444 1178 q 369 1195 388 1178 q 351 1242 351 1213 q 368 1290 351 1269 q 406 1325 385 1311 q 456 1346 428 1338 q 529 1354 485 1354 q 613 1344 572 1354 q 679 1311 653 1333 q 706 1251 706 1289 q 684 1197 706 1222 q 624 1153 663 1171 q 535 1126 586 1136 l 535 1063 l 507 1063 z "},"Ơ":{"ha":1053,"x_min":69,"x_max":1001,"o":"m 646 976 q 794 983 736 971 q 897 1024 851 996 l 896 1013 q 851 1056 871 1029 q 832 1117 832 1082 q 854 1177 832 1151 q 917 1203 876 1203 q 979 1178 957 1203 q 1001 1119 1001 1154 q 977 1051 1001 1083 q 913 996 953 1019 q 818 961 874 975 q 689 946 763 947 l 646 976 m 528 1003 q 767 943 664 1003 q 928 772 871 883 q 985 500 985 660 q 926 228 985 344 q 764 46 868 111 q 526 -19 660 -19 q 286 40 389 -19 q 126 213 183 100 q 69 483 69 325 q 128 756 69 639 q 290 938 188 872 q 528 1003 393 1003 m 522 978 q 372 915 436 978 q 274 743 308 853 q 239 489 239 633 q 278 233 239 342 q 383 65 317 124 q 532 6 450 6 q 681 68 618 6 q 780 241 744 131 q 815 494 815 351 q 776 751 815 643 q 670 919 736 860 q 522 978 604 978 z "},"Ớ":{"ha":1053,"x_min":69,"x_max":1001,"o":"m 646 976 q 794 983 736 971 q 897 1024 851 996 l 896 1013 q 851 1056 871 1029 q 832 1117 832 1082 q 854 1177 832 1151 q 917 1203 876 1203 q 979 1178 957 1203 q 1001 1119 1001 1154 q 977 1051 1001 1083 q 913 996 953 1019 q 818 961 874 975 q 689 946 763 947 l 646 976 m 528 1003 q 767 943 664 1003 q 928 772 871 883 q 985 500 985 660 q 926 228 985 344 q 764 46 868 111 q 526 -19 660 -19 q 286 40 389 -19 q 126 213 183 100 q 69 483 69 325 q 128 756 69 639 q 290 938 188 872 q 528 1003 393 1003 m 522 978 q 372 915 436 978 q 274 743 308 853 q 239 489 239 633 q 278 233 239 342 q 383 65 317 124 q 532 6 450 6 q 681 68 618 6 q 780 241 744 131 q 815 494 815 351 q 776 751 815 643 q 670 919 736 860 q 522 978 604 978 m 665 1290 q 720 1301 693 1307 q 760 1274 747 1296 q 764 1228 771 1253 q 726 1185 757 1204 q 659 1155 697 1168 q 569 1124 621 1142 q 444 1072 518 1106 l 435 1090 q 540 1178 500 1140 q 607 1244 579 1217 q 665 1290 635 1272 z "},"Ợ":{"ha":1053,"x_min":69,"x_max":1001,"o":"m 646 976 q 794 983 736 971 q 897 1024 851 996 l 896 1013 q 851 1056 871 1029 q 832 1117 832 1082 q 854 1177 832 1151 q 917 1203 876 1203 q 979 1178 957 1203 q 1001 1119 1001 1154 q 977 1051 1001 1083 q 913 996 953 1019 q 818 961 874 975 q 689 946 763 947 l 646 976 m 528 1003 q 767 943 664 1003 q 928 772 871 883 q 985 500 985 660 q 926 228 985 344 q 764 46 868 111 q 526 -19 660 -19 q 286 40 389 -19 q 126 213 183 100 q 69 483 69 325 q 128 756 69 639 q 290 938 188 872 q 528 1003 393 1003 m 522 978 q 372 915 436 978 q 274 743 308 853 q 239 489 239 633 q 278 233 239 342 q 383 65 317 124 q 532 6 450 6 q 681 68 618 6 q 780 241 744 131 q 815 494 815 351 q 776 751 815 643 q 670 919 736 860 q 522 978 604 978 m 528 -254 q 465 -232 490 -254 q 439 -172 439 -210 q 463 -112 439 -136 q 528 -89 486 -89 q 593 -113 569 -89 q 617 -172 617 -137 q 591 -232 617 -210 q 528 -254 565 -254 z "},"Ờ":{"ha":1053,"x_min":69,"x_max":1001,"o":"m 646 976 q 794 983 736 971 q 897 1024 851 996 l 896 1013 q 851 1056 871 1029 q 832 1117 832 1082 q 854 1177 832 1151 q 917 1203 876 1203 q 979 1178 957 1203 q 1001 1119 1001 1154 q 977 1051 1001 1083 q 913 996 953 1019 q 818 961 874 975 q 689 946 763 947 l 646 976 m 528 1003 q 767 943 664 1003 q 928 772 871 883 q 985 500 985 660 q 926 228 985 344 q 764 46 868 111 q 526 -19 660 -19 q 286 40 389 -19 q 126 213 183 100 q 69 483 69 325 q 128 756 69 639 q 290 938 188 872 q 528 1003 393 1003 m 522 978 q 372 915 436 978 q 274 743 308 853 q 239 489 239 633 q 278 233 239 342 q 383 65 317 124 q 532 6 450 6 q 681 68 618 6 q 780 241 744 131 q 815 494 815 351 q 776 751 815 643 q 670 919 736 860 q 522 978 604 978 m 388 1290 q 446 1244 418 1272 q 514 1178 474 1217 q 618 1090 554 1140 l 608 1072 q 483 1124 536 1106 q 394 1155 431 1142 q 326 1185 357 1168 q 289 1228 296 1204 q 293 1274 282 1253 q 333 1301 307 1296 q 388 1290 360 1307 z "},"Ở":{"ha":1053,"x_min":69,"x_max":1001,"o":"m 646 976 q 794 983 736 971 q 897 1024 851 996 l 896 1013 q 851 1056 871 1029 q 832 1117 832 1082 q 854 1177 832 1151 q 917 1203 876 1203 q 979 1178 957 1203 q 1001 1119 1001 1154 q 977 1051 1001 1083 q 913 996 953 1019 q 818 961 874 975 q 689 946 763 947 l 646 976 m 528 1003 q 767 943 664 1003 q 928 772 871 883 q 985 500 985 660 q 926 228 985 344 q 764 46 868 111 q 526 -19 660 -19 q 286 40 389 -19 q 126 213 183 100 q 69 483 69 325 q 128 756 69 639 q 290 938 188 872 q 528 1003 393 1003 m 522 978 q 372 915 436 978 q 274 743 308 853 q 239 489 239 633 q 278 233 239 342 q 383 65 317 124 q 532 6 450 6 q 681 68 618 6 q 780 241 744 131 q 815 494 815 351 q 776 751 815 643 q 670 919 736 860 q 522 978 604 978 m 507 1063 l 507 1139 q 578 1185 557 1158 q 599 1244 599 1213 q 569 1306 599 1285 q 499 1326 540 1326 q 462 1322 481 1326 q 433 1306 443 1317 q 469 1284 456 1300 q 482 1243 482 1268 q 463 1195 482 1213 q 415 1178 444 1178 q 369 1195 388 1178 q 351 1242 351 1213 q 368 1290 351 1269 q 406 1325 385 1311 q 456 1346 428 1338 q 529 1354 485 1354 q 613 1344 572 1354 q 679 1311 653 1333 q 706 1251 706 1289 q 684 1197 706 1222 q 624 1153 663 1171 q 535 1126 586 1136 l 535 1063 l 507 1063 z "},"Ỡ":{"ha":1053,"x_min":69,"x_max":1001,"o":"m 646 976 q 794 983 736 971 q 897 1024 851 996 l 896 1013 q 851 1056 871 1029 q 832 1117 832 1082 q 854 1177 832 1151 q 917 1203 876 1203 q 979 1178 957 1203 q 1001 1119 1001 1154 q 977 1051 1001 1083 q 913 996 953 1019 q 818 961 874 975 q 689 946 763 947 l 646 976 m 528 1003 q 767 943 664 1003 q 928 772 871 883 q 985 500 985 660 q 926 228 985 344 q 764 46 868 111 q 526 -19 660 -19 q 286 40 389 -19 q 126 213 183 100 q 69 483 69 325 q 128 756 69 639 q 290 938 188 872 q 528 1003 393 1003 m 522 978 q 372 915 436 978 q 274 743 308 853 q 239 489 239 633 q 278 233 239 342 q 383 65 317 124 q 532 6 450 6 q 681 68 618 6 q 780 241 744 131 q 815 494 815 351 q 776 751 815 643 q 670 919 736 860 q 522 978 604 978 m 410 1263 q 486 1247 451 1263 q 552 1211 521 1232 q 616 1174 583 1190 q 686 1158 649 1158 q 740 1176 715 1158 q 782 1236 765 1193 l 803 1231 q 745 1112 793 1153 q 638 1071 697 1071 q 561 1086 596 1071 q 494 1122 526 1101 q 431 1159 463 1143 q 361 1175 399 1175 q 306 1158 331 1175 q 265 1097 281 1140 l 244 1103 q 303 1222 256 1181 q 410 1263 350 1263 z "},"Ő":{"ha":1053,"x_min":69,"x_max":985,"o":"m 528 1003 q 767 943 664 1003 q 928 772 871 883 q 985 500 985 660 q 926 228 985 344 q 764 46 868 111 q 526 -19 660 -19 q 286 40 389 -19 q 126 213 183 100 q 69 483 69 325 q 128 756 69 639 q 290 938 188 872 q 528 1003 393 1003 m 522 978 q 372 915 436 978 q 274 743 308 853 q 239 489 239 633 q 278 233 239 342 q 383 65 317 124 q 532 6 450 6 q 681 68 618 6 q 780 241 744 131 q 815 494 815 351 q 776 751 815 643 q 670 919 736 860 q 522 978 604 978 m 747 1286 q 800 1306 774 1308 q 842 1283 826 1303 q 854 1239 858 1264 q 822 1190 850 1214 q 760 1153 796 1169 q 683 1118 725 1136 q 597 1072 642 1100 l 585 1089 q 648 1163 621 1126 q 698 1233 675 1200 q 747 1286 721 1265 m 476 1286 q 529 1306 503 1308 q 571 1283 556 1303 q 583 1239 588 1264 q 551 1190 579 1214 q 490 1153 525 1169 q 413 1118 454 1136 q 326 1072 371 1100 l 314 1089 q 377 1163 350 1126 q 427 1233 404 1200 q 476 1286 450 1265 z "},"Ō":{"ha":1053,"x_min":69,"x_max":985,"o":"m 528 1003 q 767 943 664 1003 q 928 772 871 883 q 985 500 985 660 q 926 228 985 344 q 764 46 868 111 q 526 -19 660 -19 q 286 40 389 -19 q 126 213 183 100 q 69 483 69 325 q 128 756 69 639 q 290 938 188 872 q 528 1003 393 1003 m 522 978 q 372 915 436 978 q 274 743 308 853 q 239 489 239 633 q 278 233 239 342 q 383 65 317 124 q 532 6 450 6 q 681 68 618 6 q 780 241 744 131 q 815 494 815 351 q 776 751 815 643 q 670 919 736 860 q 522 978 604 978 m 781 1172 l 781 1138 l 269 1138 l 269 1172 l 781 1172 z "},"Ø":{"ha":1053,"x_min":69,"x_max":985,"o":"m 528 1003 q 767 943 664 1003 q 928 772 871 883 q 985 500 985 660 q 926 228 985 344 q 764 46 868 111 q 526 -19 660 -19 q 286 40 389 -19 q 126 213 183 100 q 69 483 69 325 q 128 756 69 639 q 290 938 188 872 q 528 1003 393 1003 m 522 978 q 372 915 436 978 q 274 743 308 853 q 239 489 239 633 q 278 233 239 342 q 383 65 317 124 q 532 6 450 6 q 681 68 618 6 q 780 241 744 131 q 815 494 815 351 q 776 751 815 643 q 670 919 736 860 q 522 978 604 978 m 758 881 l 779 853 l 296 107 l 271 132 l 758 881 m 258 132 l 283 107 l 138 -104 l 108 -85 l 258 132 m 903 1076 l 929 1058 l 789 853 l 768 881 l 903 1076 z "},"Ǿ":{"ha":1053,"x_min":69,"x_max":985,"o":"m 528 1003 q 767 943 664 1003 q 928 772 871 883 q 985 500 985 660 q 926 228 985 344 q 764 46 868 111 q 526 -19 660 -19 q 286 40 389 -19 q 126 213 183 100 q 69 483 69 325 q 128 756 69 639 q 290 938 188 872 q 528 1003 393 1003 m 522 978 q 372 915 436 978 q 274 743 308 853 q 239 489 239 633 q 278 233 239 342 q 383 65 317 124 q 532 6 450 6 q 681 68 618 6 q 780 241 744 131 q 815 494 815 351 q 776 751 815 643 q 670 919 736 860 q 522 978 604 978 m 758 881 l 779 853 l 296 107 l 271 132 l 758 881 m 258 132 l 283 107 l 138 -104 l 108 -85 l 258 132 m 903 1076 l 929 1058 l 789 853 l 768 881 l 903 1076 m 665 1290 q 720 1301 693 1307 q 760 1274 747 1296 q 764 1228 771 1253 q 726 1185 757 1204 q 659 1155 697 1168 q 569 1124 621 1142 q 444 1072 518 1106 l 435 1090 q 540 1178 500 1140 q 607 1244 579 1217 q 665 1290 635 1272 z "},"Õ":{"ha":1053,"x_min":69,"x_max":985,"o":"m 528 1003 q 767 943 664 1003 q 928 772 871 883 q 985 500 985 660 q 926 228 985 344 q 764 46 868 111 q 526 -19 660 -19 q 286 40 389 -19 q 126 213 183 100 q 69 483 69 325 q 128 756 69 639 q 290 938 188 872 q 528 1003 393 1003 m 522 978 q 372 915 436 978 q 274 743 308 853 q 239 489 239 633 q 278 233 239 342 q 383 65 317 124 q 532 6 450 6 q 681 68 618 6 q 780 241 744 131 q 815 494 815 351 q 776 751 815 643 q 670 919 736 860 q 522 978 604 978 m 410 1263 q 486 1247 451 1263 q 552 1211 521 1232 q 616 1174 583 1190 q 686 1158 649 1158 q 740 1176 715 1158 q 782 1236 765 1193 l 803 1231 q 745 1112 793 1153 q 638 1071 697 1071 q 561 1086 596 1071 q 494 1122 526 1101 q 431 1159 463 1143 q 361 1175 399 1175 q 306 1158 331 1175 q 265 1097 281 1140 l 244 1103 q 303 1222 256 1181 q 410 1263 350 1263 z "},"Œ":{"ha":1319,"x_min":69,"x_max":1254,"o":"m 525 1003 q 588 998 557 1003 q 646 982 618 993 q 765 980 706 981 q 876 979 825 979 q 958 979 926 979 q 1092 980 1017 979 q 1226 983 1168 981 q 1219 884 1221 932 q 1217 811 1217 836 q 1218 761 1217 785 q 1221 722 1219 738 l 1189 722 q 1162 859 1181 808 q 1106 931 1143 910 q 1000 951 1068 951 l 960 951 q 890 944 914 951 q 858 912 867 936 q 850 836 850 888 l 850 147 q 858 72 850 97 q 890 40 867 47 q 960 32 914 32 l 994 32 q 1117 56 1072 32 q 1184 137 1161 81 q 1217 289 1207 193 l 1249 289 q 1244 183 1244 249 q 1247 105 1244 156 q 1254 0 1249 54 q 1106 3 1189 3 q 958 4 1024 4 q 872 4 925 4 q 758 3 819 4 q 639 1 697 3 q 583 -14 613 -8 q 524 -19 554 -19 q 285 40 388 -19 q 126 213 182 100 q 69 483 69 325 q 128 756 69 639 q 289 938 186 872 q 525 1003 392 1003 m 519 978 q 371 915 433 978 q 274 743 308 853 q 239 489 239 633 q 277 233 239 342 q 382 65 315 124 q 529 6 449 6 q 601 19 564 6 q 665 63 639 33 q 690 142 690 93 l 690 839 q 666 920 690 890 q 602 964 642 950 q 519 978 563 978 m 1042 508 l 1042 481 l 808 481 l 808 508 l 1042 508 m 1071 667 q 1066 561 1065 597 q 1067 494 1067 525 q 1068 428 1067 464 q 1075 322 1069 393 l 1043 322 q 1028 397 1038 361 q 994 457 1019 433 q 910 481 968 481 l 910 508 q 977 524 953 508 q 1013 566 1001 540 q 1030 619 1025 592 q 1039 667 1035 646 l 1071 667 z "},"P":{"ha":839,"x_min":54,"x_max":801,"o":"m 54 983 q 137 981 86 982 q 238 979 188 979 q 365 981 304 979 q 450 982 425 982 q 714 906 626 982 q 801 708 801 829 q 784 603 801 658 q 724 502 767 549 q 607 426 681 456 q 419 397 533 397 l 283 397 l 283 425 l 406 425 q 548 463 499 425 q 615 561 597 500 q 632 693 632 622 q 585 890 632 825 q 421 956 538 956 q 342 932 361 956 q 324 836 324 908 l 324 150 q 335 73 324 99 q 376 39 346 47 q 467 29 407 31 l 467 0 q 369 3 429 3 q 246 4 310 4 q 140 3 190 4 q 54 0 89 3 l 54 28 q 125 39 101 31 q 156 72 149 47 q 164 147 164 97 l 164 836 q 156 912 164 888 q 124 945 149 936 q 54 956 100 954 l 54 983 z "},"Þ":{"ha":825,"x_min":54,"x_max":786,"o":"m 435 781 q 631 746 553 781 q 748 651 710 711 q 786 511 786 590 q 769 401 786 456 q 708 299 751 346 q 592 224 665 251 q 404 196 518 196 l 271 196 q 271 210 271 196 q 271 224 271 224 l 390 224 q 533 262 483 224 q 599 364 582 300 q 617 501 617 428 q 568 690 617 625 q 400 754 519 754 q 337 753 371 754 q 273 752 303 753 q 228 751 243 751 l 225 778 q 350 779 290 778 q 435 781 410 781 m 433 983 l 433 956 q 364 945 388 954 q 332 912 340 936 q 324 836 324 888 l 324 147 q 332 72 324 97 q 364 39 340 47 q 433 28 388 31 l 433 0 q 349 3 400 3 q 246 4 299 4 q 137 3 188 4 q 54 0 86 3 l 54 28 q 125 39 101 31 q 156 72 149 47 q 164 147 164 97 l 164 836 q 156 912 164 888 q 124 945 149 936 q 54 956 100 954 l 54 983 q 137 981 86 982 q 246 979 188 979 q 349 981 299 979 q 433 983 400 982 z "},"Q":{"ha":1053,"x_min":69,"x_max":1068,"o":"m 1046 -15 l 1068 -24 q 1032 -131 1054 -87 q 978 -201 1010 -175 q 906 -243 951 -225 q 793 -261 860 -261 q 649 -237 719 -261 q 505 -178 579 -212 q 343 -114 431 -144 q 325 -108 333 -111 q 310 -104 317 -106 q 253 -122 283 -115 q 194 -128 222 -128 q 149 -120 167 -128 q 131 -97 131 -112 q 206 -65 131 -65 q 310 -79 254 -65 q 397 -48 361 -65 q 472 -15 433 -31 q 565 4 511 0 l 567 -18 q 494 -34 525 -22 q 432 -60 463 -46 q 358 -86 401 -74 q 521 -110 438 -97 q 679 -131 604 -124 q 810 -136 754 -139 q 960 -105 904 -133 q 1046 -15 1015 -76 m 528 1003 q 767 943 664 1003 q 928 772 871 883 q 985 500 985 660 q 926 228 985 344 q 764 46 868 111 q 526 -19 660 -19 q 286 40 389 -19 q 126 213 183 100 q 69 483 69 325 q 128 756 69 639 q 290 938 188 872 q 528 1003 393 1003 m 522 978 q 372 915 436 978 q 274 743 308 853 q 239 489 239 633 q 278 233 239 342 q 383 65 317 124 q 532 6 450 6 q 681 68 618 6 q 780 241 744 131 q 815 494 815 351 q 776 751 815 643 q 670 919 736 860 q 522 978 604 978 z "},"R":{"ha":921,"x_min":54,"x_max":940,"o":"m 54 983 q 137 981 86 982 q 238 979 188 979 q 365 981 304 979 q 450 982 425 982 q 647 951 568 982 q 763 866 725 921 q 801 740 801 811 q 784 649 801 697 q 724 560 767 601 q 607 493 681 519 q 419 467 533 467 l 286 467 l 286 494 l 406 494 q 548 526 499 494 q 615 609 597 557 q 632 725 632 661 q 585 895 632 835 q 421 956 538 956 q 342 932 361 956 q 324 836 324 908 l 324 147 q 332 72 324 97 q 364 39 340 47 q 433 28 388 31 l 433 0 q 349 3 400 3 q 246 4 299 4 q 137 3 188 4 q 54 0 86 3 l 54 28 q 125 39 101 31 q 156 72 149 47 q 164 147 164 97 l 164 836 q 156 912 164 888 q 124 945 149 936 q 54 956 100 954 l 54 983 m 289 490 q 403 484 360 488 q 475 478 446 481 q 529 471 504 475 q 681 415 633 457 q 747 288 729 374 l 782 146 q 809 61 794 86 q 853 36 824 36 q 890 49 875 38 q 921 82 904 61 l 940 67 q 874 2 908 24 q 781 -19 839 -19 q 678 12 721 -19 q 618 131 636 43 l 590 269 q 563 373 578 329 q 520 442 547 417 q 442 467 493 467 l 292 467 l 289 490 z "},"Ŕ":{"ha":921,"x_min":54,"x_max":940,"o":"m 54 983 q 137 981 86 982 q 238 979 188 979 q 365 981 304 979 q 450 982 425 982 q 647 951 568 982 q 763 866 725 921 q 801 740 801 811 q 784 649 801 697 q 724 560 767 601 q 607 493 681 519 q 419 467 533 467 l 286 467 l 286 494 l 406 494 q 548 526 499 494 q 615 609 597 557 q 632 725 632 661 q 585 895 632 835 q 421 956 538 956 q 342 932 361 956 q 324 836 324 908 l 324 147 q 332 72 324 97 q 364 39 340 47 q 433 28 388 31 l 433 0 q 349 3 400 3 q 246 4 299 4 q 137 3 188 4 q 54 0 86 3 l 54 28 q 125 39 101 31 q 156 72 149 47 q 164 147 164 97 l 164 836 q 156 912 164 888 q 124 945 149 936 q 54 956 100 954 l 54 983 m 289 490 q 403 484 360 488 q 475 478 446 481 q 529 471 504 475 q 681 415 633 457 q 747 288 729 374 l 782 146 q 809 61 794 86 q 853 36 824 36 q 890 49 875 38 q 921 82 904 61 l 940 67 q 874 2 908 24 q 781 -19 839 -19 q 678 12 721 -19 q 618 131 636 43 l 590 269 q 563 373 578 329 q 520 442 547 417 q 442 467 493 467 l 292 467 l 289 490 m 564 1290 q 619 1301 592 1307 q 658 1274 646 1296 q 663 1228 669 1253 q 625 1185 656 1204 q 558 1155 596 1168 q 468 1124 519 1142 q 343 1072 417 1106 l 333 1090 q 438 1178 399 1140 q 506 1244 478 1217 q 564 1290 533 1272 z "},"Ř":{"ha":921,"x_min":54,"x_max":940,"o":"m 54 983 q 137 981 86 982 q 238 979 188 979 q 365 981 304 979 q 450 982 425 982 q 647 951 568 982 q 763 866 725 921 q 801 740 801 811 q 784 649 801 697 q 724 560 767 601 q 607 493 681 519 q 419 467 533 467 l 286 467 l 286 494 l 406 494 q 548 526 499 494 q 615 609 597 557 q 632 725 632 661 q 585 895 632 835 q 421 956 538 956 q 342 932 361 956 q 324 836 324 908 l 324 147 q 332 72 324 97 q 364 39 340 47 q 433 28 388 31 l 433 0 q 349 3 400 3 q 246 4 299 4 q 137 3 188 4 q 54 0 86 3 l 54 28 q 125 39 101 31 q 156 72 149 47 q 164 147 164 97 l 164 836 q 156 912 164 888 q 124 945 149 936 q 54 956 100 954 l 54 983 m 289 490 q 403 484 360 488 q 475 478 446 481 q 529 471 504 475 q 681 415 633 457 q 747 288 729 374 l 782 146 q 809 61 794 86 q 853 36 824 36 q 890 49 875 38 q 921 82 904 61 l 940 67 q 874 2 908 24 q 781 -19 839 -19 q 678 12 721 -19 q 618 131 636 43 l 590 269 q 563 373 578 329 q 520 442 547 417 q 442 467 493 467 l 292 467 l 289 490 m 693 1292 l 700 1272 q 539 1186 610 1239 q 432 1078 468 1133 l 407 1078 q 301 1186 372 1133 q 139 1272 229 1239 l 146 1292 q 315 1249 232 1275 q 447 1197 399 1222 q 556 1249 489 1222 q 693 1292 624 1275 z "},"Ŗ":{"ha":921,"x_min":54,"x_max":940,"o":"m 54 983 q 137 981 86 982 q 238 979 188 979 q 365 981 304 979 q 450 982 425 982 q 647 951 568 982 q 763 866 725 921 q 801 740 801 811 q 784 649 801 697 q 724 560 767 601 q 607 493 681 519 q 419 467 533 467 l 286 467 l 286 494 l 406 494 q 548 526 499 494 q 615 609 597 557 q 632 725 632 661 q 585 895 632 835 q 421 956 538 956 q 342 932 361 956 q 324 836 324 908 l 324 147 q 332 72 324 97 q 364 39 340 47 q 433 28 388 31 l 433 0 q 349 3 400 3 q 246 4 299 4 q 137 3 188 4 q 54 0 86 3 l 54 28 q 125 39 101 31 q 156 72 149 47 q 164 147 164 97 l 164 836 q 156 912 164 888 q 124 945 149 936 q 54 956 100 954 l 54 983 m 289 490 q 403 484 360 488 q 475 478 446 481 q 529 471 504 475 q 681 415 633 457 q 747 288 729 374 l 782 146 q 809 61 794 86 q 853 36 824 36 q 890 49 875 38 q 921 82 904 61 l 940 67 q 874 2 908 24 q 781 -19 839 -19 q 678 12 721 -19 q 618 131 636 43 l 590 269 q 563 373 578 329 q 520 442 547 417 q 442 467 493 467 l 292 467 l 289 490 m 472 -89 q 543 -117 515 -89 q 571 -190 571 -146 q 542 -280 571 -243 q 442 -336 514 -317 l 433 -310 q 499 -279 471 -300 q 528 -225 528 -258 q 502 -241 518 -235 q 467 -247 486 -247 q 408 -227 431 -247 q 385 -168 385 -207 q 410 -111 385 -133 q 472 -89 435 -89 z "},"S":{"ha":771,"x_min":83,"x_max":706,"o":"m 368 1000 q 481 983 442 1000 q 549 947 519 967 q 576 933 565 938 q 596 928 586 928 q 616 943 610 928 q 626 989 622 958 l 658 989 q 655 930 657 964 q 652 840 653 896 q 651 694 651 785 l 619 694 q 590 826 615 763 q 515 931 564 890 q 389 971 465 971 q 272 928 318 971 q 225 817 225 886 q 256 715 225 756 q 340 638 286 674 q 461 560 393 603 q 586 472 531 515 q 674 375 642 428 q 706 247 706 322 q 663 98 706 157 q 550 10 621 39 q 394 -19 479 -19 q 271 -3 317 -19 q 193 32 225 14 q 146 51 163 51 q 126 36 132 51 q 115 -10 119 21 l 83 -10 q 87 62 86 21 q 88 169 88 103 q 89 338 89 236 l 121 338 q 152 176 126 251 q 231 56 178 101 q 374 11 285 11 q 461 29 421 11 q 526 86 501 47 q 551 186 551 125 q 524 286 551 243 q 449 366 497 329 q 338 442 401 403 q 215 525 272 483 q 124 622 158 567 q 90 754 90 678 q 130 893 90 839 q 233 974 169 947 q 368 1000 296 1000 z "},"Ś":{"ha":771,"x_min":83,"x_max":706,"o":"m 368 1000 q 481 983 442 1000 q 549 947 519 967 q 576 933 565 938 q 596 928 586 928 q 616 943 610 928 q 626 989 622 958 l 658 989 q 655 930 657 964 q 652 840 653 896 q 651 694 651 785 l 619 694 q 590 826 615 763 q 515 931 564 890 q 389 971 465 971 q 272 928 318 971 q 225 817 225 886 q 256 715 225 756 q 340 638 286 674 q 461 560 393 603 q 586 472 531 515 q 674 375 642 428 q 706 247 706 322 q 663 98 706 157 q 550 10 621 39 q 394 -19 479 -19 q 271 -3 317 -19 q 193 32 225 14 q 146 51 163 51 q 126 36 132 51 q 115 -10 119 21 l 83 -10 q 87 62 86 21 q 88 169 88 103 q 89 338 89 236 l 121 338 q 152 176 126 251 q 231 56 178 101 q 374 11 285 11 q 461 29 421 11 q 526 86 501 47 q 551 186 551 125 q 524 286 551 243 q 449 366 497 329 q 338 442 401 403 q 215 525 272 483 q 124 622 158 567 q 90 754 90 678 q 130 893 90 839 q 233 974 169 947 q 368 1000 296 1000 m 533 1290 q 588 1301 561 1307 q 628 1274 615 1296 q 632 1228 639 1253 q 594 1185 625 1204 q 527 1155 565 1168 q 438 1124 489 1142 q 313 1072 386 1106 l 303 1090 q 408 1178 368 1140 q 475 1244 447 1217 q 533 1290 503 1272 z "},"Š":{"ha":771,"x_min":83,"x_max":706,"o":"m 368 1000 q 481 983 442 1000 q 549 947 519 967 q 576 933 565 938 q 596 928 586 928 q 616 943 610 928 q 626 989 622 958 l 658 989 q 655 930 657 964 q 652 840 653 896 q 651 694 651 785 l 619 694 q 590 826 615 763 q 515 931 564 890 q 389 971 465 971 q 272 928 318 971 q 225 817 225 886 q 256 715 225 756 q 340 638 286 674 q 461 560 393 603 q 586 472 531 515 q 674 375 642 428 q 706 247 706 322 q 663 98 706 157 q 550 10 621 39 q 394 -19 479 -19 q 271 -3 317 -19 q 193 32 225 14 q 146 51 163 51 q 126 36 132 51 q 115 -10 119 21 l 83 -10 q 87 62 86 21 q 88 169 88 103 q 89 338 89 236 l 121 338 q 152 176 126 251 q 231 56 178 101 q 374 11 285 11 q 461 29 421 11 q 526 86 501 47 q 551 186 551 125 q 524 286 551 243 q 449 366 497 329 q 338 442 401 403 q 215 525 272 483 q 124 622 158 567 q 90 754 90 678 q 130 893 90 839 q 233 974 169 947 q 368 1000 296 1000 m 663 1292 l 669 1272 q 508 1186 579 1239 q 401 1078 438 1133 l 376 1078 q 270 1186 342 1133 q 108 1272 199 1239 l 115 1292 q 285 1249 201 1275 q 417 1197 368 1222 q 526 1249 458 1222 q 663 1292 593 1275 z "},"Ş":{"ha":771,"x_min":83,"x_max":706,"o":"m 368 1000 q 481 983 442 1000 q 549 947 519 967 q 576 933 565 938 q 596 928 586 928 q 616 943 610 928 q 626 989 622 958 l 658 989 q 655 930 657 964 q 652 840 653 896 q 651 694 651 785 l 619 694 q 590 826 615 763 q 515 931 564 890 q 389 971 465 971 q 272 928 318 971 q 225 817 225 886 q 256 715 225 756 q 340 638 286 674 q 461 560 393 603 q 586 472 531 515 q 674 375 642 428 q 706 247 706 322 q 663 98 706 157 q 550 10 621 39 q 394 -19 479 -19 q 271 -3 317 -19 q 193 32 225 14 q 146 51 163 51 q 126 36 132 51 q 115 -10 119 21 l 83 -10 q 87 62 86 21 q 88 169 88 103 q 89 338 89 236 l 121 338 q 152 176 126 251 q 231 56 178 101 q 374 11 285 11 q 461 29 421 11 q 526 86 501 47 q 551 186 551 125 q 524 286 551 243 q 449 366 497 329 q 338 442 401 403 q 215 525 272 483 q 124 622 158 567 q 90 754 90 678 q 130 893 90 839 q 233 974 169 947 q 368 1000 296 1000 m 418 7 l 383 -97 q 426 -88 403 -92 q 474 -85 449 -85 q 541 -103 517 -85 q 565 -153 565 -121 q 538 -215 565 -192 q 469 -250 510 -239 q 388 -261 429 -261 q 317 -256 347 -261 q 267 -246 288 -251 l 274 -221 q 297 -224 281 -222 q 332 -225 313 -225 q 388 -219 360 -225 q 437 -201 417 -214 q 457 -164 457 -187 q 441 -135 457 -144 q 397 -126 425 -126 q 367 -128 386 -126 q 333 -136 347 -131 l 381 7 l 418 7 z "},"Ŝ":{"ha":771,"x_min":83,"x_max":706,"o":"m 368 1000 q 481 983 442 1000 q 549 947 519 967 q 576 933 565 938 q 596 928 586 928 q 616 943 610 928 q 626 989 622 958 l 658 989 q 655 930 657 964 q 652 840 653 896 q 651 694 651 785 l 619 694 q 590 826 615 763 q 515 931 564 890 q 389 971 465 971 q 272 928 318 971 q 225 817 225 886 q 256 715 225 756 q 340 638 286 674 q 461 560 393 603 q 586 472 531 515 q 674 375 642 428 q 706 247 706 322 q 663 98 706 157 q 550 10 621 39 q 394 -19 479 -19 q 271 -3 317 -19 q 193 32 225 14 q 146 51 163 51 q 126 36 132 51 q 115 -10 119 21 l 83 -10 q 87 62 86 21 q 88 169 88 103 q 89 338 89 236 l 121 338 q 152 176 126 251 q 231 56 178 101 q 374 11 285 11 q 461 29 421 11 q 526 86 501 47 q 551 186 551 125 q 524 286 551 243 q 449 366 497 329 q 338 442 401 403 q 215 525 272 483 q 124 622 158 567 q 90 754 90 678 q 130 893 90 839 q 233 974 169 947 q 368 1000 296 1000 m 406 1283 q 512 1176 440 1228 q 674 1089 583 1124 l 667 1069 q 498 1113 581 1086 q 365 1164 415 1139 q 257 1113 325 1139 q 119 1069 189 1086 l 113 1089 q 274 1176 203 1124 q 381 1283 344 1228 l 406 1283 z "},"Ș":{"ha":771,"x_min":83,"x_max":706,"o":"m 368 1000 q 481 983 442 1000 q 549 947 519 967 q 576 933 565 938 q 596 928 586 928 q 616 943 610 928 q 626 989 622 958 l 658 989 q 655 930 657 964 q 652 840 653 896 q 651 694 651 785 l 619 694 q 590 826 615 763 q 515 931 564 890 q 389 971 465 971 q 272 928 318 971 q 225 817 225 886 q 256 715 225 756 q 340 638 286 674 q 461 560 393 603 q 586 472 531 515 q 674 375 642 428 q 706 247 706 322 q 663 98 706 157 q 550 10 621 39 q 394 -19 479 -19 q 271 -3 317 -19 q 193 32 225 14 q 146 51 163 51 q 126 36 132 51 q 115 -10 119 21 l 83 -10 q 87 62 86 21 q 88 169 88 103 q 89 338 89 236 l 121 338 q 152 176 126 251 q 231 56 178 101 q 374 11 285 11 q 461 29 421 11 q 526 86 501 47 q 551 186 551 125 q 524 286 551 243 q 449 366 497 329 q 338 442 401 403 q 215 525 272 483 q 124 622 158 567 q 90 754 90 678 q 130 893 90 839 q 233 974 169 947 q 368 1000 296 1000 m 396 -89 q 467 -117 439 -89 q 494 -190 494 -146 q 466 -280 494 -243 q 365 -336 438 -317 l 357 -310 q 423 -279 394 -300 q 451 -225 451 -258 q 426 -241 442 -235 q 390 -247 410 -247 q 331 -227 354 -247 q 308 -168 308 -207 q 333 -111 308 -133 q 396 -89 358 -89 z "},"ẞ":{"ha":981,"x_min":19,"x_max":933,"o":"m 532 1003 q 706 976 628 1003 q 849 901 785 950 l 628 569 q 788 508 719 550 q 895 406 857 467 q 933 269 933 346 q 889 124 933 189 q 765 19 844 58 q 578 -19 685 -19 q 495 -12 528 -19 q 440 6 463 -4 q 385 53 403 25 q 368 114 368 82 q 392 177 368 153 q 453 201 417 201 q 513 178 489 201 q 538 115 538 156 q 519 58 538 79 q 471 28 500 36 q 513 12 485 15 q 560 8 542 8 q 670 43 625 8 q 740 137 715 78 q 764 267 764 196 q 685 481 764 400 q 472 588 606 563 l 697 943 q 631 969 672 961 q 551 978 589 978 q 421 947 481 978 q 325 836 361 915 q 289 611 289 757 l 289 147 q 302 53 289 78 q 360 28 315 29 l 360 0 q 316 1 338 0 q 266 3 294 3 q 192 4 238 4 q 134 3 167 4 q 71 2 101 3 q 19 0 40 1 l 19 28 q 89 39 65 31 q 121 72 113 47 q 129 147 129 97 l 129 526 q 176 797 129 692 q 314 952 224 901 q 532 1003 404 1003 z "},"Ə":{"ha":1042,"x_min":68,"x_max":974,"o":"m 515 -19 q 273 44 374 -19 q 120 225 172 107 q 69 508 68 343 l 861 508 l 864 482 l 238 482 q 265 238 231 346 q 368 69 300 131 q 526 8 436 8 q 677 67 615 8 q 772 229 739 125 q 806 471 806 333 q 764 742 806 631 q 648 914 722 854 q 476 974 574 974 q 278 888 357 974 q 179 658 199 803 l 147 658 q 146 862 147 789 q 142 983 144 935 l 174 983 q 192 908 181 922 q 236 913 204 894 q 294 948 260 926 q 381 986 328 969 q 515 1003 435 1003 q 761 941 658 1003 q 919 765 864 879 q 974 492 974 650 q 917 219 974 333 q 758 42 861 104 q 515 -19 656 -19 z "},"T":{"ha":885,"x_min":39,"x_max":846,"o":"m 846 983 q 838 870 840 925 q 836 786 836 815 q 838 725 836 754 q 840 675 839 696 l 808 675 q 772 839 794 779 q 706 925 749 899 q 582 951 663 951 l 522 951 l 522 160 q 533 76 522 104 q 574 40 543 49 q 665 28 606 31 l 665 0 q 565 3 626 3 q 440 4 504 4 q 315 3 374 4 q 219 0 256 3 l 219 28 q 310 40 279 31 q 351 76 340 49 q 363 160 363 104 l 363 951 l 301 951 q 179 925 224 951 q 113 839 135 899 q 76 675 90 779 l 44 675 q 48 725 47 696 q 49 786 49 754 q 47 870 49 815 q 39 983 44 925 q 169 981 99 982 q 313 979 240 979 q 443 979 385 979 q 572 979 501 979 q 715 981 643 979 q 846 983 788 982 z "},"Ŧ":{"ha":885,"x_min":39,"x_max":846,"o":"m 742 506 l 742 478 l 146 478 l 146 506 l 742 506 m 846 983 q 838 870 840 925 q 836 786 836 815 q 838 725 836 754 q 840 675 839 696 l 808 675 q 772 839 794 779 q 706 925 749 899 q 582 951 663 951 l 522 951 l 522 160 q 533 76 522 104 q 574 40 543 49 q 665 28 606 31 l 665 0 q 565 3 626 3 q 440 4 504 4 q 315 3 374 4 q 219 0 256 3 l 219 28 q 310 40 279 31 q 351 76 340 49 q 363 160 363 104 l 363 951 l 301 951 q 179 925 224 951 q 113 839 135 899 q 76 675 90 779 l 44 675 q 48 725 47 696 q 49 786 49 754 q 47 870 49 815 q 39 983 44 925 q 169 981 99 982 q 313 979 240 979 q 443 979 385 979 q 572 979 501 979 q 715 981 643 979 q 846 983 788 982 z "},"Ť":{"ha":885,"x_min":39,"x_max":846,"o":"m 846 983 q 838 870 840 925 q 836 786 836 815 q 838 725 836 754 q 840 675 839 696 l 808 675 q 772 839 794 779 q 706 925 749 899 q 582 951 663 951 l 522 951 l 522 160 q 533 76 522 104 q 574 40 543 49 q 665 28 606 31 l 665 0 q 565 3 626 3 q 440 4 504 4 q 315 3 374 4 q 219 0 256 3 l 219 28 q 310 40 279 31 q 351 76 340 49 q 363 160 363 104 l 363 951 l 301 951 q 179 925 224 951 q 113 839 135 899 q 76 675 90 779 l 44 675 q 48 725 47 696 q 49 786 49 754 q 47 870 49 815 q 39 983 44 925 q 169 981 99 982 q 313 979 240 979 q 443 979 385 979 q 572 979 501 979 q 715 981 643 979 q 846 983 788 982 m 713 1292 l 719 1272 q 558 1186 629 1239 q 451 1078 488 1133 l 426 1078 q 320 1186 392 1133 q 158 1272 249 1239 l 165 1292 q 335 1249 251 1275 q 467 1197 418 1222 q 576 1249 508 1222 q 713 1292 643 1275 z "},"Ţ":{"ha":885,"x_min":39,"x_max":846,"o":"m 846 983 q 838 870 840 925 q 836 786 836 815 q 838 725 836 754 q 840 675 839 696 l 808 675 q 772 839 794 779 q 706 925 749 899 q 582 951 663 951 l 522 951 l 522 160 q 533 76 522 104 q 574 40 543 49 q 665 28 606 31 l 665 0 q 565 3 626 3 q 440 4 504 4 q 315 3 374 4 q 219 0 256 3 l 219 28 q 310 40 279 31 q 351 76 340 49 q 363 160 363 104 l 363 951 l 301 951 q 179 925 224 951 q 113 839 135 899 q 76 675 90 779 l 44 675 q 48 725 47 696 q 49 786 49 754 q 47 870 49 815 q 39 983 44 925 q 169 981 99 982 q 313 979 240 979 q 443 979 385 979 q 572 979 501 979 q 715 981 643 979 q 846 983 788 982 m 458 7 l 424 -97 q 466 -88 443 -92 q 514 -85 489 -85 q 581 -103 557 -85 q 606 -153 606 -121 q 578 -215 606 -192 q 510 -250 550 -239 q 428 -261 469 -261 q 358 -256 388 -261 q 307 -246 328 -251 l 314 -221 q 337 -224 321 -222 q 372 -225 353 -225 q 428 -219 400 -225 q 477 -201 457 -214 q 497 -164 497 -187 q 481 -135 497 -144 q 438 -126 465 -126 q 407 -128 426 -126 q 374 -136 388 -131 l 421 7 l 458 7 z "},"Ț":{"ha":885,"x_min":39,"x_max":846,"o":"m 846 983 q 838 870 840 925 q 836 786 836 815 q 838 725 836 754 q 840 675 839 696 l 808 675 q 772 839 794 779 q 706 925 749 899 q 582 951 663 951 l 522 951 l 522 160 q 533 76 522 104 q 574 40 543 49 q 665 28 606 31 l 665 0 q 565 3 626 3 q 440 4 504 4 q 315 3 374 4 q 219 0 256 3 l 219 28 q 310 40 279 31 q 351 76 340 49 q 363 160 363 104 l 363 951 l 301 951 q 179 925 224 951 q 113 839 135 899 q 76 675 90 779 l 44 675 q 48 725 47 696 q 49 786 49 754 q 47 870 49 815 q 39 983 44 925 q 169 981 99 982 q 313 979 240 979 q 443 979 385 979 q 572 979 501 979 q 715 981 643 979 q 846 983 788 982 m 433 -89 q 504 -117 476 -89 q 532 -190 532 -146 q 503 -280 532 -243 q 403 -336 475 -317 l 394 -310 q 460 -279 432 -300 q 489 -225 489 -258 q 463 -241 479 -235 q 428 -247 447 -247 q 369 -227 392 -247 q 346 -168 346 -207 q 371 -111 346 -133 q 433 -89 396 -89 z "},"U":{"ha":950,"x_min":33,"x_max":917,"o":"m 917 983 l 917 956 q 847 939 871 953 q 815 894 824 925 q 807 806 807 863 l 807 404 q 794 236 807 310 q 750 110 782 163 q 648 16 715 51 q 488 -19 581 -19 q 358 -4 421 -19 q 249 54 296 11 q 183 136 207 92 q 151 244 160 181 q 143 400 143 307 l 143 836 q 135 912 143 888 q 104 945 128 936 q 33 956 81 954 l 33 983 q 116 981 65 982 q 225 979 167 979 q 330 981 278 979 q 415 983 382 982 l 415 956 q 344 945 368 954 q 311 912 319 936 q 303 836 303 888 l 303 356 q 310 225 303 285 q 340 122 318 165 q 403 53 361 78 q 514 29 446 29 q 673 76 617 29 q 752 203 729 122 q 775 389 775 285 l 775 800 q 764 892 775 860 q 725 938 753 924 q 646 956 697 953 l 646 983 q 714 981 672 982 q 790 979 756 979 q 860 981 826 979 q 917 983 894 982 z "},"Ú":{"ha":950,"x_min":33,"x_max":917,"o":"m 917 983 l 917 956 q 847 939 871 953 q 815 894 824 925 q 807 806 807 863 l 807 404 q 794 236 807 310 q 750 110 782 163 q 648 16 715 51 q 488 -19 581 -19 q 358 -4 421 -19 q 249 54 296 11 q 183 136 207 92 q 151 244 160 181 q 143 400 143 307 l 143 836 q 135 912 143 888 q 104 945 128 936 q 33 956 81 954 l 33 983 q 116 981 65 982 q 225 979 167 979 q 330 981 278 979 q 415 983 382 982 l 415 956 q 344 945 368 954 q 311 912 319 936 q 303 836 303 888 l 303 356 q 310 225 303 285 q 340 122 318 165 q 403 53 361 78 q 514 29 446 29 q 673 76 617 29 q 752 203 729 122 q 775 389 775 285 l 775 800 q 764 892 775 860 q 725 938 753 924 q 646 956 697 953 l 646 983 q 714 981 672 982 q 790 979 756 979 q 860 981 826 979 q 917 983 894 982 m 632 1290 q 687 1301 660 1307 q 726 1274 714 1296 q 731 1228 738 1253 q 693 1185 724 1204 q 626 1155 664 1168 q 536 1124 588 1142 q 411 1072 485 1106 l 401 1090 q 506 1178 467 1140 q 574 1244 546 1217 q 632 1290 601 1272 z "},"Ŭ":{"ha":950,"x_min":33,"x_max":917,"o":"m 917 983 l 917 956 q 847 939 871 953 q 815 894 824 925 q 807 806 807 863 l 807 404 q 794 236 807 310 q 750 110 782 163 q 648 16 715 51 q 488 -19 581 -19 q 358 -4 421 -19 q 249 54 296 11 q 183 136 207 92 q 151 244 160 181 q 143 400 143 307 l 143 836 q 135 912 143 888 q 104 945 128 936 q 33 956 81 954 l 33 983 q 116 981 65 982 q 225 979 167 979 q 330 981 278 979 q 415 983 382 982 l 415 956 q 344 945 368 954 q 311 912 319 936 q 303 836 303 888 l 303 356 q 310 225 303 285 q 340 122 318 165 q 403 53 361 78 q 514 29 446 29 q 673 76 617 29 q 752 203 729 122 q 775 389 775 285 l 775 800 q 764 892 775 860 q 725 938 753 924 q 646 956 697 953 l 646 983 q 714 981 672 982 q 790 979 756 979 q 860 981 826 979 q 917 983 894 982 m 760 1265 l 776 1250 q 717 1173 756 1213 q 621 1107 678 1133 q 489 1081 564 1081 q 357 1107 414 1081 q 261 1173 300 1133 q 201 1250 222 1213 l 219 1264 q 319 1206 253 1235 q 489 1178 385 1178 q 660 1207 593 1178 q 760 1265 726 1236 z "},"Ǔ":{"ha":950,"x_min":33,"x_max":917,"o":"m 917 983 l 917 956 q 847 939 871 953 q 815 894 824 925 q 807 806 807 863 l 807 404 q 794 236 807 310 q 750 110 782 163 q 648 16 715 51 q 488 -19 581 -19 q 358 -4 421 -19 q 249 54 296 11 q 183 136 207 92 q 151 244 160 181 q 143 400 143 307 l 143 836 q 135 912 143 888 q 104 945 128 936 q 33 956 81 954 l 33 983 q 116 981 65 982 q 225 979 167 979 q 330 981 278 979 q 415 983 382 982 l 415 956 q 344 945 368 954 q 311 912 319 936 q 303 836 303 888 l 303 356 q 310 225 303 285 q 340 122 318 165 q 403 53 361 78 q 514 29 446 29 q 673 76 617 29 q 752 203 729 122 q 775 389 775 285 l 775 800 q 764 892 775 860 q 725 938 753 924 q 646 956 697 953 l 646 983 q 714 981 672 982 q 790 979 756 979 q 860 981 826 979 q 917 983 894 982 m 761 1292 l 768 1272 q 607 1186 678 1239 q 500 1078 536 1133 l 475 1078 q 369 1186 440 1133 q 207 1272 297 1239 l 214 1292 q 383 1249 300 1275 q 515 1197 467 1222 q 624 1249 557 1222 q 761 1292 692 1275 z "},"Û":{"ha":950,"x_min":33,"x_max":917,"o":"m 917 983 l 917 956 q 847 939 871 953 q 815 894 824 925 q 807 806 807 863 l 807 404 q 794 236 807 310 q 750 110 782 163 q 648 16 715 51 q 488 -19 581 -19 q 358 -4 421 -19 q 249 54 296 11 q 183 136 207 92 q 151 244 160 181 q 143 400 143 307 l 143 836 q 135 912 143 888 q 104 945 128 936 q 33 956 81 954 l 33 983 q 116 981 65 982 q 225 979 167 979 q 330 981 278 979 q 415 983 382 982 l 415 956 q 344 945 368 954 q 311 912 319 936 q 303 836 303 888 l 303 356 q 310 225 303 285 q 340 122 318 165 q 403 53 361 78 q 514 29 446 29 q 673 76 617 29 q 752 203 729 122 q 775 389 775 285 l 775 800 q 764 892 775 860 q 725 938 753 924 q 646 956 697 953 l 646 983 q 714 981 672 982 q 790 979 756 979 q 860 981 826 979 q 917 983 894 982 m 504 1283 q 610 1176 539 1228 q 772 1089 682 1124 l 765 1069 q 597 1113 679 1086 q 464 1164 514 1139 q 356 1113 424 1139 q 218 1069 288 1086 l 211 1089 q 372 1176 301 1124 q 479 1283 443 1228 l 504 1283 z "},"Ü":{"ha":950,"x_min":33,"x_max":917,"o":"m 917 983 l 917 956 q 847 939 871 953 q 815 894 824 925 q 807 806 807 863 l 807 404 q 794 236 807 310 q 750 110 782 163 q 648 16 715 51 q 488 -19 581 -19 q 358 -4 421 -19 q 249 54 296 11 q 183 136 207 92 q 151 244 160 181 q 143 400 143 307 l 143 836 q 135 912 143 888 q 104 945 128 936 q 33 956 81 954 l 33 983 q 116 981 65 982 q 225 979 167 979 q 330 981 278 979 q 415 983 382 982 l 415 956 q 344 945 368 954 q 311 912 319 936 q 303 836 303 888 l 303 356 q 310 225 303 285 q 340 122 318 165 q 403 53 361 78 q 514 29 446 29 q 673 76 617 29 q 752 203 729 122 q 775 389 775 285 l 775 800 q 764 892 775 860 q 725 938 753 924 q 646 956 697 953 l 646 983 q 714 981 672 982 q 790 979 756 979 q 860 981 826 979 q 917 983 894 982 m 646 1247 q 707 1220 681 1247 q 733 1158 733 1193 q 707 1095 733 1121 q 646 1069 681 1069 q 583 1095 608 1069 q 557 1158 557 1121 q 583 1220 557 1193 q 646 1247 608 1247 m 338 1247 q 400 1220 374 1247 q 426 1158 426 1193 q 400 1095 426 1121 q 338 1069 374 1069 q 276 1095 301 1069 q 250 1158 250 1121 q 276 1220 250 1193 q 338 1247 301 1247 z "},"Ụ":{"ha":950,"x_min":33,"x_max":917,"o":"m 917 983 l 917 956 q 847 939 871 953 q 815 894 824 925 q 807 806 807 863 l 807 404 q 794 236 807 310 q 750 110 782 163 q 648 16 715 51 q 488 -19 581 -19 q 358 -4 421 -19 q 249 54 296 11 q 183 136 207 92 q 151 244 160 181 q 143 400 143 307 l 143 836 q 135 912 143 888 q 104 945 128 936 q 33 956 81 954 l 33 983 q 116 981 65 982 q 225 979 167 979 q 330 981 278 979 q 415 983 382 982 l 415 956 q 344 945 368 954 q 311 912 319 936 q 303 836 303 888 l 303 356 q 310 225 303 285 q 340 122 318 165 q 403 53 361 78 q 514 29 446 29 q 673 76 617 29 q 752 203 729 122 q 775 389 775 285 l 775 800 q 764 892 775 860 q 725 938 753 924 q 646 956 697 953 l 646 983 q 714 981 672 982 q 790 979 756 979 q 860 981 826 979 q 917 983 894 982 m 510 -254 q 447 -232 472 -254 q 421 -172 421 -210 q 444 -112 421 -136 q 510 -89 468 -89 q 575 -113 551 -89 q 599 -172 599 -137 q 573 -232 599 -210 q 510 -254 547 -254 z "},"Ù":{"ha":950,"x_min":33,"x_max":917,"o":"m 917 983 l 917 956 q 847 939 871 953 q 815 894 824 925 q 807 806 807 863 l 807 404 q 794 236 807 310 q 750 110 782 163 q 648 16 715 51 q 488 -19 581 -19 q 358 -4 421 -19 q 249 54 296 11 q 183 136 207 92 q 151 244 160 181 q 143 400 143 307 l 143 836 q 135 912 143 888 q 104 945 128 936 q 33 956 81 954 l 33 983 q 116 981 65 982 q 225 979 167 979 q 330 981 278 979 q 415 983 382 982 l 415 956 q 344 945 368 954 q 311 912 319 936 q 303 836 303 888 l 303 356 q 310 225 303 285 q 340 122 318 165 q 403 53 361 78 q 514 29 446 29 q 673 76 617 29 q 752 203 729 122 q 775 389 775 285 l 775 800 q 764 892 775 860 q 725 938 753 924 q 646 956 697 953 l 646 983 q 714 981 672 982 q 790 979 756 979 q 860 981 826 979 q 917 983 894 982 m 354 1290 q 413 1244 385 1272 q 481 1178 440 1217 q 585 1090 521 1140 l 575 1072 q 450 1124 503 1106 q 360 1155 397 1142 q 293 1185 324 1168 q 256 1228 263 1204 q 260 1274 249 1253 q 300 1301 274 1296 q 354 1290 326 1307 z "},"Ủ":{"ha":950,"x_min":33,"x_max":917,"o":"m 917 983 l 917 956 q 847 939 871 953 q 815 894 824 925 q 807 806 807 863 l 807 404 q 794 236 807 310 q 750 110 782 163 q 648 16 715 51 q 488 -19 581 -19 q 358 -4 421 -19 q 249 54 296 11 q 183 136 207 92 q 151 244 160 181 q 143 400 143 307 l 143 836 q 135 912 143 888 q 104 945 128 936 q 33 956 81 954 l 33 983 q 116 981 65 982 q 225 979 167 979 q 330 981 278 979 q 415 983 382 982 l 415 956 q 344 945 368 954 q 311 912 319 936 q 303 836 303 888 l 303 356 q 310 225 303 285 q 340 122 318 165 q 403 53 361 78 q 514 29 446 29 q 673 76 617 29 q 752 203 729 122 q 775 389 775 285 l 775 800 q 764 892 775 860 q 725 938 753 924 q 646 956 697 953 l 646 983 q 714 981 672 982 q 790 979 756 979 q 860 981 826 979 q 917 983 894 982 m 475 1063 l 475 1139 q 546 1185 525 1158 q 567 1244 567 1213 q 538 1306 567 1285 q 467 1326 508 1326 q 430 1322 449 1326 q 401 1306 411 1317 q 437 1284 424 1300 q 450 1243 450 1268 q 431 1195 450 1213 q 383 1178 413 1178 q 338 1195 356 1178 q 319 1242 319 1213 q 336 1290 319 1269 q 374 1325 353 1311 q 424 1346 396 1338 q 497 1354 453 1354 q 581 1344 540 1354 q 647 1311 621 1333 q 674 1251 674 1289 q 652 1197 674 1222 q 592 1153 631 1171 q 503 1126 554 1136 l 503 1063 l 475 1063 z "},"Ư":{"ha":950,"x_min":33,"x_max":1026,"o":"m 488 -19 q 358 -4 421 -19 q 249 54 296 11 q 183 136 207 92 q 151 244 160 181 q 143 400 143 307 l 143 836 q 135 912 143 888 q 104 945 128 936 q 33 956 81 954 l 33 983 q 116 981 65 982 q 225 979 167 979 q 330 981 278 979 q 415 983 382 982 l 415 956 q 344 945 368 954 q 311 912 319 936 q 303 836 303 888 l 303 356 q 310 225 303 285 q 340 122 318 165 q 403 53 361 78 q 514 29 446 29 q 673 76 617 29 q 752 203 729 122 q 775 389 775 285 l 775 967 l 781 953 q 712 952 746 951 q 643 956 678 953 l 650 983 q 699 981 672 982 q 753 979 726 979 q 836 985 793 979 q 922 1022 879 992 l 919 1015 q 876 1057 896 1031 q 856 1117 856 1083 q 878 1179 856 1153 q 942 1206 900 1206 q 1004 1181 982 1206 q 1026 1121 1026 1157 q 1001 1052 1026 1083 q 936 999 975 1021 q 861 965 896 975 q 794 953 826 954 l 807 965 l 807 404 q 794 236 807 310 q 750 110 782 163 q 648 16 715 51 q 488 -19 581 -19 z "},"Ứ":{"ha":950,"x_min":33,"x_max":1026,"o":"m 488 -19 q 358 -4 421 -19 q 249 54 296 11 q 183 136 207 92 q 151 244 160 181 q 143 400 143 307 l 143 836 q 135 912 143 888 q 104 945 128 936 q 33 956 81 954 l 33 983 q 116 981 65 982 q 225 979 167 979 q 330 981 278 979 q 415 983 382 982 l 415 956 q 344 945 368 954 q 311 912 319 936 q 303 836 303 888 l 303 356 q 310 225 303 285 q 340 122 318 165 q 403 53 361 78 q 514 29 446 29 q 673 76 617 29 q 752 203 729 122 q 775 389 775 285 l 775 967 l 781 953 q 712 952 746 951 q 643 956 678 953 l 650 983 q 699 981 672 982 q 753 979 726 979 q 836 985 793 979 q 922 1022 879 992 l 919 1015 q 876 1057 896 1031 q 856 1117 856 1083 q 878 1179 856 1153 q 942 1206 900 1206 q 1004 1181 982 1206 q 1026 1121 1026 1157 q 1001 1052 1026 1083 q 936 999 975 1021 q 861 965 896 975 q 794 953 826 954 l 807 965 l 807 404 q 794 236 807 310 q 750 110 782 163 q 648 16 715 51 q 488 -19 581 -19 m 632 1290 q 687 1301 660 1307 q 726 1274 714 1296 q 731 1228 738 1253 q 693 1185 724 1204 q 626 1155 664 1168 q 536 1124 588 1142 q 411 1072 485 1106 l 401 1090 q 506 1178 467 1140 q 574 1244 546 1217 q 632 1290 601 1272 z "},"Ự":{"ha":950,"x_min":33,"x_max":1026,"o":"m 488 -19 q 358 -4 421 -19 q 249 54 296 11 q 183 136 207 92 q 151 244 160 181 q 143 400 143 307 l 143 836 q 135 912 143 888 q 104 945 128 936 q 33 956 81 954 l 33 983 q 116 981 65 982 q 225 979 167 979 q 330 981 278 979 q 415 983 382 982 l 415 956 q 344 945 368 954 q 311 912 319 936 q 303 836 303 888 l 303 356 q 310 225 303 285 q 340 122 318 165 q 403 53 361 78 q 514 29 446 29 q 673 76 617 29 q 752 203 729 122 q 775 389 775 285 l 775 967 l 781 953 q 712 952 746 951 q 643 956 678 953 l 650 983 q 699 981 672 982 q 753 979 726 979 q 836 985 793 979 q 922 1022 879 992 l 919 1015 q 876 1057 896 1031 q 856 1117 856 1083 q 878 1179 856 1153 q 942 1206 900 1206 q 1004 1181 982 1206 q 1026 1121 1026 1157 q 1001 1052 1026 1083 q 936 999 975 1021 q 861 965 896 975 q 794 953 826 954 l 807 965 l 807 404 q 794 236 807 310 q 750 110 782 163 q 648 16 715 51 q 488 -19 581 -19 m 510 -254 q 447 -232 472 -254 q 421 -172 421 -210 q 444 -112 421 -136 q 510 -89 468 -89 q 575 -113 551 -89 q 599 -172 599 -137 q 573 -232 599 -210 q 510 -254 547 -254 z "},"Ừ":{"ha":950,"x_min":33,"x_max":1026,"o":"m 488 -19 q 358 -4 421 -19 q 249 54 296 11 q 183 136 207 92 q 151 244 160 181 q 143 400 143 307 l 143 836 q 135 912 143 888 q 104 945 128 936 q 33 956 81 954 l 33 983 q 116 981 65 982 q 225 979 167 979 q 330 981 278 979 q 415 983 382 982 l 415 956 q 344 945 368 954 q 311 912 319 936 q 303 836 303 888 l 303 356 q 310 225 303 285 q 340 122 318 165 q 403 53 361 78 q 514 29 446 29 q 673 76 617 29 q 752 203 729 122 q 775 389 775 285 l 775 967 l 781 953 q 712 952 746 951 q 643 956 678 953 l 650 983 q 699 981 672 982 q 753 979 726 979 q 836 985 793 979 q 922 1022 879 992 l 919 1015 q 876 1057 896 1031 q 856 1117 856 1083 q 878 1179 856 1153 q 942 1206 900 1206 q 1004 1181 982 1206 q 1026 1121 1026 1157 q 1001 1052 1026 1083 q 936 999 975 1021 q 861 965 896 975 q 794 953 826 954 l 807 965 l 807 404 q 794 236 807 310 q 750 110 782 163 q 648 16 715 51 q 488 -19 581 -19 m 354 1290 q 413 1244 385 1272 q 481 1178 440 1217 q 585 1090 521 1140 l 575 1072 q 450 1124 503 1106 q 360 1155 397 1142 q 293 1185 324 1168 q 256 1228 263 1204 q 260 1274 249 1253 q 300 1301 274 1296 q 354 1290 326 1307 z "},"Ử":{"ha":950,"x_min":33,"x_max":1026,"o":"m 488 -19 q 358 -4 421 -19 q 249 54 296 11 q 183 136 207 92 q 151 244 160 181 q 143 400 143 307 l 143 836 q 135 912 143 888 q 104 945 128 936 q 33 956 81 954 l 33 983 q 116 981 65 982 q 225 979 167 979 q 330 981 278 979 q 415 983 382 982 l 415 956 q 344 945 368 954 q 311 912 319 936 q 303 836 303 888 l 303 356 q 310 225 303 285 q 340 122 318 165 q 403 53 361 78 q 514 29 446 29 q 673 76 617 29 q 752 203 729 122 q 775 389 775 285 l 775 967 l 781 953 q 712 952 746 951 q 643 956 678 953 l 650 983 q 699 981 672 982 q 753 979 726 979 q 836 985 793 979 q 922 1022 879 992 l 919 1015 q 876 1057 896 1031 q 856 1117 856 1083 q 878 1179 856 1153 q 942 1206 900 1206 q 1004 1181 982 1206 q 1026 1121 1026 1157 q 1001 1052 1026 1083 q 936 999 975 1021 q 861 965 896 975 q 794 953 826 954 l 807 965 l 807 404 q 794 236 807 310 q 750 110 782 163 q 648 16 715 51 q 488 -19 581 -19 m 475 1063 l 475 1139 q 546 1185 525 1158 q 567 1244 567 1213 q 538 1306 567 1285 q 467 1326 508 1326 q 430 1322 449 1326 q 401 1306 411 1317 q 437 1284 424 1300 q 450 1243 450 1268 q 431 1195 450 1213 q 383 1178 413 1178 q 338 1195 356 1178 q 319 1242 319 1213 q 336 1290 319 1269 q 374 1325 353 1311 q 424 1346 396 1338 q 497 1354 453 1354 q 581 1344 540 1354 q 647 1311 621 1333 q 674 1251 674 1289 q 652 1197 674 1222 q 592 1153 631 1171 q 503 1126 554 1136 l 503 1063 l 475 1063 z "},"Ữ":{"ha":950,"x_min":33,"x_max":1026,"o":"m 488 -19 q 358 -4 421 -19 q 249 54 296 11 q 183 136 207 92 q 151 244 160 181 q 143 400 143 307 l 143 836 q 135 912 143 888 q 104 945 128 936 q 33 956 81 954 l 33 983 q 116 981 65 982 q 225 979 167 979 q 330 981 278 979 q 415 983 382 982 l 415 956 q 344 945 368 954 q 311 912 319 936 q 303 836 303 888 l 303 356 q 310 225 303 285 q 340 122 318 165 q 403 53 361 78 q 514 29 446 29 q 673 76 617 29 q 752 203 729 122 q 775 389 775 285 l 775 967 l 781 953 q 712 952 746 951 q 643 956 678 953 l 650 983 q 699 981 672 982 q 753 979 726 979 q 836 985 793 979 q 922 1022 879 992 l 919 1015 q 876 1057 896 1031 q 856 1117 856 1083 q 878 1179 856 1153 q 942 1206 900 1206 q 1004 1181 982 1206 q 1026 1121 1026 1157 q 1001 1052 1026 1083 q 936 999 975 1021 q 861 965 896 975 q 794 953 826 954 l 807 965 l 807 404 q 794 236 807 310 q 750 110 782 163 q 648 16 715 51 q 488 -19 581 -19 m 376 1263 q 453 1247 418 1263 q 519 1211 488 1232 q 583 1174 550 1190 q 653 1158 615 1158 q 707 1176 682 1158 q 749 1236 732 1193 l 769 1231 q 712 1112 760 1153 q 604 1071 664 1071 q 528 1086 563 1071 q 461 1122 493 1101 q 397 1159 429 1143 q 328 1175 365 1175 q 272 1158 297 1175 q 232 1097 247 1140 l 211 1103 q 269 1222 222 1181 q 376 1263 317 1263 z "},"Ű":{"ha":950,"x_min":33,"x_max":917,"o":"m 917 983 l 917 956 q 847 939 871 953 q 815 894 824 925 q 807 806 807 863 l 807 404 q 794 236 807 310 q 750 110 782 163 q 648 16 715 51 q 488 -19 581 -19 q 358 -4 421 -19 q 249 54 296 11 q 183 136 207 92 q 151 244 160 181 q 143 400 143 307 l 143 836 q 135 912 143 888 q 104 945 128 936 q 33 956 81 954 l 33 983 q 116 981 65 982 q 225 979 167 979 q 330 981 278 979 q 415 983 382 982 l 415 956 q 344 945 368 954 q 311 912 319 936 q 303 836 303 888 l 303 356 q 310 225 303 285 q 340 122 318 165 q 403 53 361 78 q 514 29 446 29 q 673 76 617 29 q 752 203 729 122 q 775 389 775 285 l 775 800 q 764 892 775 860 q 725 938 753 924 q 646 956 697 953 l 646 983 q 714 981 672 982 q 790 979 756 979 q 860 981 826 979 q 917 983 894 982 m 714 1286 q 767 1306 740 1308 q 808 1283 793 1303 q 821 1239 825 1264 q 789 1190 817 1214 q 727 1153 763 1169 q 650 1118 692 1136 q 564 1072 608 1100 l 551 1089 q 615 1163 588 1126 q 665 1233 642 1200 q 714 1286 688 1265 m 443 1286 q 496 1306 469 1308 q 538 1283 522 1303 q 550 1239 554 1264 q 518 1190 546 1214 q 456 1153 492 1169 q 379 1118 421 1136 q 293 1072 338 1100 l 281 1089 q 344 1163 317 1126 q 394 1233 371 1200 q 443 1286 417 1265 z "},"Ū":{"ha":950,"x_min":33,"x_max":917,"o":"m 917 983 l 917 956 q 847 939 871 953 q 815 894 824 925 q 807 806 807 863 l 807 404 q 794 236 807 310 q 750 110 782 163 q 648 16 715 51 q 488 -19 581 -19 q 358 -4 421 -19 q 249 54 296 11 q 183 136 207 92 q 151 244 160 181 q 143 400 143 307 l 143 836 q 135 912 143 888 q 104 945 128 936 q 33 956 81 954 l 33 983 q 116 981 65 982 q 225 979 167 979 q 330 981 278 979 q 415 983 382 982 l 415 956 q 344 945 368 954 q 311 912 319 936 q 303 836 303 888 l 303 356 q 310 225 303 285 q 340 122 318 165 q 403 53 361 78 q 514 29 446 29 q 673 76 617 29 q 752 203 729 122 q 775 389 775 285 l 775 800 q 764 892 775 860 q 725 938 753 924 q 646 956 697 953 l 646 983 q 714 981 672 982 q 790 979 756 979 q 860 981 826 979 q 917 983 894 982 m 747 1172 l 747 1138 l 236 1138 l 236 1172 l 747 1172 z "},"Ų":{"ha":950,"x_min":33,"x_max":917,"o":"m 917 983 l 917 956 q 847 939 871 953 q 815 894 824 925 q 807 806 807 863 l 807 404 q 794 236 807 310 q 750 110 782 163 q 648 16 715 51 q 488 -19 581 -19 q 358 -4 421 -19 q 249 54 296 11 q 183 136 207 92 q 151 244 160 181 q 143 400 143 307 l 143 836 q 135 912 143 888 q 104 945 128 936 q 33 956 81 954 l 33 983 q 116 981 65 982 q 225 979 167 979 q 330 981 278 979 q 415 983 382 982 l 415 956 q 344 945 368 954 q 311 912 319 936 q 303 836 303 888 l 303 356 q 310 225 303 285 q 340 122 318 165 q 403 53 361 78 q 514 29 446 29 q 673 76 617 29 q 752 203 729 122 q 775 389 775 285 l 775 800 q 764 892 775 860 q 725 938 753 924 q 646 956 697 953 l 646 983 q 714 981 672 982 q 790 979 756 979 q 860 981 826 979 q 917 983 894 982 m 621 4 q 506 -58 538 -19 q 475 -132 475 -97 q 490 -175 475 -158 q 533 -192 506 -192 q 583 -178 560 -192 q 619 -149 606 -165 l 640 -167 q 565 -238 607 -215 q 472 -261 524 -261 q 388 -236 418 -261 q 357 -169 357 -211 q 413 -69 357 -114 q 568 4 468 -25 l 621 4 z "},"Ů":{"ha":950,"x_min":33,"x_max":917,"o":"m 917 983 l 917 956 q 847 939 871 953 q 815 894 824 925 q 807 806 807 863 l 807 404 q 794 236 807 310 q 750 110 782 163 q 648 16 715 51 q 488 -19 581 -19 q 358 -4 421 -19 q 249 54 296 11 q 183 136 207 92 q 151 244 160 181 q 143 400 143 307 l 143 836 q 135 912 143 888 q 104 945 128 936 q 33 956 81 954 l 33 983 q 116 981 65 982 q 225 979 167 979 q 330 981 278 979 q 415 983 382 982 l 415 956 q 344 945 368 954 q 311 912 319 936 q 303 836 303 888 l 303 356 q 310 225 303 285 q 340 122 318 165 q 403 53 361 78 q 514 29 446 29 q 673 76 617 29 q 752 203 729 122 q 775 389 775 285 l 775 800 q 764 892 775 860 q 725 938 753 924 q 646 956 697 953 l 646 983 q 714 981 672 982 q 790 979 756 979 q 860 981 826 979 q 917 983 894 982 m 492 1369 q 590 1335 549 1369 q 632 1240 632 1300 q 590 1144 632 1179 q 492 1110 549 1110 q 394 1144 436 1110 q 353 1240 353 1179 q 394 1335 353 1300 q 492 1369 436 1369 m 492 1340 q 424 1315 457 1340 q 392 1239 392 1289 q 424 1164 392 1189 q 492 1139 457 1139 q 560 1164 528 1139 q 593 1239 593 1189 q 560 1315 593 1289 q 492 1340 528 1340 z "},"Ũ":{"ha":950,"x_min":33,"x_max":917,"o":"m 917 983 l 917 956 q 847 939 871 953 q 815 894 824 925 q 807 806 807 863 l 807 404 q 794 236 807 310 q 750 110 782 163 q 648 16 715 51 q 488 -19 581 -19 q 358 -4 421 -19 q 249 54 296 11 q 183 136 207 92 q 151 244 160 181 q 143 400 143 307 l 143 836 q 135 912 143 888 q 104 945 128 936 q 33 956 81 954 l 33 983 q 116 981 65 982 q 225 979 167 979 q 330 981 278 979 q 415 983 382 982 l 415 956 q 344 945 368 954 q 311 912 319 936 q 303 836 303 888 l 303 356 q 310 225 303 285 q 340 122 318 165 q 403 53 361 78 q 514 29 446 29 q 673 76 617 29 q 752 203 729 122 q 775 389 775 285 l 775 800 q 764 892 775 860 q 725 938 753 924 q 646 956 697 953 l 646 983 q 714 981 672 982 q 790 979 756 979 q 860 981 826 979 q 917 983 894 982 m 376 1263 q 453 1247 418 1263 q 519 1211 488 1232 q 583 1174 550 1190 q 653 1158 615 1158 q 707 1176 682 1158 q 749 1236 732 1193 l 769 1231 q 712 1112 760 1153 q 604 1071 664 1071 q 528 1086 563 1071 q 461 1122 493 1101 q 397 1159 429 1143 q 328 1175 365 1175 q 272 1158 297 1175 q 232 1097 247 1140 l 211 1103 q 269 1222 222 1181 q 376 1263 317 1263 z "},"V":{"ha":893,"x_min":-11,"x_max":904,"o":"m 904 983 l 904 956 q 845 918 876 949 q 788 819 814 888 l 472 -6 q 461 -6 467 -6 q 449 -6 456 -6 q 438 -6 443 -6 q 426 -6 432 -6 l 82 867 q 36 936 61 918 q -11 956 11 954 l -11 983 q 67 981 21 982 q 158 979 114 979 q 266 981 215 979 q 347 983 317 982 l 347 956 q 276 944 301 954 q 249 910 251 935 q 265 839 247 886 l 522 168 l 497 140 l 722 732 q 754 865 754 817 q 724 933 754 913 q 635 956 693 954 l 635 983 q 719 981 678 982 q 799 979 761 979 q 858 981 833 979 q 904 983 883 982 z "},"W":{"ha":1286,"x_min":-12,"x_max":1290,"o":"m 1290 983 l 1290 956 q 1231 919 1263 949 q 1176 819 1199 889 l 921 -6 q 909 -6 915 -6 q 897 -6 903 -6 q 885 -6 890 -6 q 874 -6 879 -6 l 579 871 q 541 938 563 922 q 500 956 519 954 l 500 983 q 572 981 529 982 q 656 979 615 979 q 762 981 713 979 q 840 983 811 982 l 840 956 q 774 947 799 954 q 747 915 750 939 q 760 839 743 892 l 964 211 l 940 181 l 1115 732 q 1141 866 1143 818 q 1109 934 1139 914 q 1022 956 1079 954 l 1022 983 q 1106 981 1064 982 q 1186 979 1147 979 q 1245 981 1221 979 q 1290 983 1269 982 m 313 983 l 313 956 q 265 940 279 953 q 252 902 251 926 q 265 839 253 878 l 481 196 l 444 156 l 633 743 l 654 708 l 428 -6 q 417 -6 422 -6 q 404 -6 411 -6 q 392 -6 399 -6 q 381 -6 386 -6 l 81 867 q 36 937 63 919 q -12 956 10 954 l -12 983 q 67 981 21 982 q 156 979 113 979 q 247 981 206 979 q 313 983 288 982 z "},"Ẃ":{"ha":1286,"x_min":-12,"x_max":1290,"o":"m 1290 983 l 1290 956 q 1231 919 1263 949 q 1176 819 1199 889 l 921 -6 q 909 -6 915 -6 q 897 -6 903 -6 q 885 -6 890 -6 q 874 -6 879 -6 l 579 871 q 541 938 563 922 q 500 956 519 954 l 500 983 q 572 981 529 982 q 656 979 615 979 q 762 981 713 979 q 840 983 811 982 l 840 956 q 774 947 799 954 q 747 915 750 939 q 760 839 743 892 l 964 211 l 940 181 l 1115 732 q 1141 866 1143 818 q 1109 934 1139 914 q 1022 956 1079 954 l 1022 983 q 1106 981 1064 982 q 1186 979 1147 979 q 1245 981 1221 979 q 1290 983 1269 982 m 313 983 l 313 956 q 265 940 279 953 q 252 902 251 926 q 265 839 253 878 l 481 196 l 444 156 l 633 743 l 654 708 l 428 -6 q 417 -6 422 -6 q 404 -6 411 -6 q 392 -6 399 -6 q 381 -6 386 -6 l 81 867 q 36 937 63 919 q -12 956 10 954 l -12 983 q 67 981 21 982 q 156 979 113 979 q 247 981 206 979 q 313 983 288 982 m 801 1290 q 856 1301 829 1307 q 896 1274 883 1296 q 900 1228 907 1253 q 863 1185 893 1204 q 795 1155 833 1168 q 706 1124 757 1142 q 581 1072 654 1106 l 571 1090 q 676 1178 636 1140 q 743 1244 715 1217 q 801 1290 771 1272 z "},"Ŵ":{"ha":1286,"x_min":-12,"x_max":1290,"o":"m 1290 983 l 1290 956 q 1231 919 1263 949 q 1176 819 1199 889 l 921 -6 q 909 -6 915 -6 q 897 -6 903 -6 q 885 -6 890 -6 q 874 -6 879 -6 l 579 871 q 541 938 563 922 q 500 956 519 954 l 500 983 q 572 981 529 982 q 656 979 615 979 q 762 981 713 979 q 840 983 811 982 l 840 956 q 774 947 799 954 q 747 915 750 939 q 760 839 743 892 l 964 211 l 940 181 l 1115 732 q 1141 866 1143 818 q 1109 934 1139 914 q 1022 956 1079 954 l 1022 983 q 1106 981 1064 982 q 1186 979 1147 979 q 1245 981 1221 979 q 1290 983 1269 982 m 313 983 l 313 956 q 265 940 279 953 q 252 902 251 926 q 265 839 253 878 l 481 196 l 444 156 l 633 743 l 654 708 l 428 -6 q 417 -6 422 -6 q 404 -6 411 -6 q 392 -6 399 -6 q 381 -6 386 -6 l 81 867 q 36 937 63 919 q -12 956 10 954 l -12 983 q 67 981 21 982 q 156 979 113 979 q 247 981 206 979 q 313 983 288 982 m 674 1283 q 780 1176 708 1228 q 942 1089 851 1124 l 935 1069 q 766 1113 849 1086 q 633 1164 683 1139 q 525 1113 593 1139 q 388 1069 457 1086 l 381 1089 q 542 1176 471 1124 q 649 1283 613 1228 l 674 1283 z "},"Ẅ":{"ha":1286,"x_min":-12,"x_max":1290,"o":"m 1290 983 l 1290 956 q 1231 919 1263 949 q 1176 819 1199 889 l 921 -6 q 909 -6 915 -6 q 897 -6 903 -6 q 885 -6 890 -6 q 874 -6 879 -6 l 579 871 q 541 938 563 922 q 500 956 519 954 l 500 983 q 572 981 529 982 q 656 979 615 979 q 762 981 713 979 q 840 983 811 982 l 840 956 q 774 947 799 954 q 747 915 750 939 q 760 839 743 892 l 964 211 l 940 181 l 1115 732 q 1141 866 1143 818 q 1109 934 1139 914 q 1022 956 1079 954 l 1022 983 q 1106 981 1064 982 q 1186 979 1147 979 q 1245 981 1221 979 q 1290 983 1269 982 m 313 983 l 313 956 q 265 940 279 953 q 252 902 251 926 q 265 839 253 878 l 481 196 l 444 156 l 633 743 l 654 708 l 428 -6 q 417 -6 422 -6 q 404 -6 411 -6 q 392 -6 399 -6 q 381 -6 386 -6 l 81 867 q 36 937 63 919 q -12 956 10 954 l -12 983 q 67 981 21 982 q 156 979 113 979 q 247 981 206 979 q 313 983 288 982 m 815 1247 q 876 1220 850 1247 q 903 1158 903 1193 q 876 1095 903 1121 q 815 1069 850 1069 q 752 1095 778 1069 q 726 1158 726 1121 q 752 1220 726 1193 q 815 1247 778 1247 m 507 1247 q 569 1220 543 1247 q 596 1158 596 1193 q 569 1095 596 1121 q 507 1069 543 1069 q 445 1095 471 1069 q 419 1158 419 1121 q 445 1220 419 1193 q 507 1247 471 1247 z "},"Ẁ":{"ha":1286,"x_min":-12,"x_max":1290,"o":"m 1290 983 l 1290 956 q 1231 919 1263 949 q 1176 819 1199 889 l 921 -6 q 909 -6 915 -6 q 897 -6 903 -6 q 885 -6 890 -6 q 874 -6 879 -6 l 579 871 q 541 938 563 922 q 500 956 519 954 l 500 983 q 572 981 529 982 q 656 979 615 979 q 762 981 713 979 q 840 983 811 982 l 840 956 q 774 947 799 954 q 747 915 750 939 q 760 839 743 892 l 964 211 l 940 181 l 1115 732 q 1141 866 1143 818 q 1109 934 1139 914 q 1022 956 1079 954 l 1022 983 q 1106 981 1064 982 q 1186 979 1147 979 q 1245 981 1221 979 q 1290 983 1269 982 m 313 983 l 313 956 q 265 940 279 953 q 252 902 251 926 q 265 839 253 878 l 481 196 l 444 156 l 633 743 l 654 708 l 428 -6 q 417 -6 422 -6 q 404 -6 411 -6 q 392 -6 399 -6 q 381 -6 386 -6 l 81 867 q 36 937 63 919 q -12 956 10 954 l -12 983 q 67 981 21 982 q 156 979 113 979 q 247 981 206 979 q 313 983 288 982 m 524 1290 q 582 1244 554 1272 q 650 1178 610 1217 q 754 1090 690 1140 l 744 1072 q 619 1124 672 1106 q 530 1155 567 1142 q 463 1185 493 1168 q 425 1228 432 1204 q 429 1274 418 1253 q 469 1301 443 1296 q 524 1290 496 1307 z "},"X":{"ha":907,"x_min":17,"x_max":906,"o":"m 364 983 l 364 954 q 281 941 297 954 q 285 896 265 928 l 814 99 q 859 45 842 58 q 906 29 876 32 l 906 0 q 845 3 885 1 q 763 6 806 6 q 647 3 706 6 q 558 0 588 1 l 558 29 q 644 38 625 29 q 644 76 664 46 l 108 885 q 65 939 82 925 q 17 954 49 953 l 17 983 q 80 980 39 982 q 163 978 121 978 q 274 980 222 978 q 364 983 326 982 m 419 503 q 422 494 419 503 q 428 476 425 485 q 432 467 432 467 l 271 233 q 216 115 219 158 q 245 51 213 71 q 336 28 278 31 l 336 0 q 290 2 317 1 q 236 3 264 3 q 183 4 208 4 q 139 4 157 4 q 71 3 103 4 q 17 0 39 3 l 17 28 q 104 73 63 38 q 189 169 146 108 l 419 503 m 865 983 l 865 956 q 782 913 822 947 q 703 822 742 878 l 479 500 q 474 518 479 500 q 469 536 469 536 l 624 757 q 683 872 674 829 q 665 935 692 915 q 579 956 638 954 l 579 983 q 635 981 606 982 q 692 980 664 981 q 744 979 721 979 q 813 981 782 979 q 865 983 844 982 z "},"Y":{"ha":836,"x_min":-6,"x_max":831,"o":"m 831 983 l 831 956 q 774 917 803 949 q 711 819 746 886 l 438 276 l 400 276 l 75 876 q 28 940 47 926 q -6 954 10 954 l -6 983 q 58 981 25 982 q 131 979 92 979 q 239 980 181 979 q 347 983 297 981 l 347 954 q 285 947 313 954 q 249 920 258 940 q 260 863 240 900 l 489 422 l 467 399 l 638 739 q 681 870 681 824 q 651 935 682 917 q 561 956 619 954 l 561 983 q 646 981 604 982 q 725 979 688 979 q 785 981 760 979 q 831 983 810 982 m 511 447 l 511 147 q 519 72 511 97 q 551 39 528 47 q 621 28 575 31 l 621 0 q 536 3 588 3 q 432 4 485 4 q 324 3 375 4 q 242 0 272 3 l 242 28 q 313 39 289 31 q 344 72 336 47 q 351 147 351 97 l 351 432 l 442 346 l 511 447 z "},"Ý":{"ha":836,"x_min":-6,"x_max":831,"o":"m 831 983 l 831 956 q 774 917 803 949 q 711 819 746 886 l 438 276 l 400 276 l 75 876 q 28 940 47 926 q -6 954 10 954 l -6 983 q 58 981 25 982 q 131 979 92 979 q 239 980 181 979 q 347 983 297 981 l 347 954 q 285 947 313 954 q 249 920 258 940 q 260 863 240 900 l 489 422 l 467 399 l 638 739 q 681 870 681 824 q 651 935 682 917 q 561 956 619 954 l 561 983 q 646 981 604 982 q 725 979 688 979 q 785 981 760 979 q 831 983 810 982 m 511 447 l 511 147 q 519 72 511 97 q 551 39 528 47 q 621 28 575 31 l 621 0 q 536 3 588 3 q 432 4 485 4 q 324 3 375 4 q 242 0 272 3 l 242 28 q 313 39 289 31 q 344 72 336 47 q 351 147 351 97 l 351 432 l 442 346 l 511 447 m 575 1290 q 630 1301 603 1307 q 669 1274 657 1296 q 674 1228 681 1253 q 636 1185 667 1204 q 569 1155 607 1168 q 479 1124 531 1142 q 354 1072 428 1106 l 344 1090 q 449 1178 410 1140 q 517 1244 489 1217 q 575 1290 544 1272 z "},"Ŷ":{"ha":836,"x_min":-6,"x_max":831,"o":"m 831 983 l 831 956 q 774 917 803 949 q 711 819 746 886 l 438 276 l 400 276 l 75 876 q 28 940 47 926 q -6 954 10 954 l -6 983 q 58 981 25 982 q 131 979 92 979 q 239 980 181 979 q 347 983 297 981 l 347 954 q 285 947 313 954 q 249 920 258 940 q 260 863 240 900 l 489 422 l 467 399 l 638 739 q 681 870 681 824 q 651 935 682 917 q 561 956 619 954 l 561 983 q 646 981 604 982 q 725 979 688 979 q 785 981 760 979 q 831 983 810 982 m 511 447 l 511 147 q 519 72 511 97 q 551 39 528 47 q 621 28 575 31 l 621 0 q 536 3 588 3 q 432 4 485 4 q 324 3 375 4 q 242 0 272 3 l 242 28 q 313 39 289 31 q 344 72 336 47 q 351 147 351 97 l 351 432 l 442 346 l 511 447 m 447 1283 q 553 1176 482 1228 q 715 1089 625 1124 l 708 1069 q 540 1113 622 1086 q 407 1164 457 1139 q 299 1113 367 1139 q 161 1069 231 1086 l 154 1089 q 315 1176 244 1124 q 422 1283 386 1228 l 447 1283 z "},"Ÿ":{"ha":836,"x_min":-6,"x_max":831,"o":"m 831 983 l 831 956 q 774 917 803 949 q 711 819 746 886 l 438 276 l 400 276 l 75 876 q 28 940 47 926 q -6 954 10 954 l -6 983 q 58 981 25 982 q 131 979 92 979 q 239 980 181 979 q 347 983 297 981 l 347 954 q 285 947 313 954 q 249 920 258 940 q 260 863 240 900 l 489 422 l 467 399 l 638 739 q 681 870 681 824 q 651 935 682 917 q 561 956 619 954 l 561 983 q 646 981 604 982 q 725 979 688 979 q 785 981 760 979 q 831 983 810 982 m 511 447 l 511 147 q 519 72 511 97 q 551 39 528 47 q 621 28 575 31 l 621 0 q 536 3 588 3 q 432 4 485 4 q 324 3 375 4 q 242 0 272 3 l 242 28 q 313 39 289 31 q 344 72 336 47 q 351 147 351 97 l 351 432 l 442 346 l 511 447 m 589 1247 q 650 1220 624 1247 q 676 1158 676 1193 q 650 1095 676 1121 q 589 1069 624 1069 q 526 1095 551 1069 q 500 1158 500 1121 q 526 1220 500 1193 q 589 1247 551 1247 m 281 1247 q 343 1220 317 1247 q 369 1158 369 1193 q 343 1095 369 1121 q 281 1069 317 1069 q 219 1095 244 1069 q 193 1158 193 1121 q 219 1220 193 1193 q 281 1247 244 1247 z "},"Ỵ":{"ha":836,"x_min":-6,"x_max":831,"o":"m 831 983 l 831 956 q 774 917 803 949 q 711 819 746 886 l 438 276 l 400 276 l 75 876 q 28 940 47 926 q -6 954 10 954 l -6 983 q 58 981 25 982 q 131 979 92 979 q 239 980 181 979 q 347 983 297 981 l 347 954 q 285 947 313 954 q 249 920 258 940 q 260 863 240 900 l 489 422 l 467 399 l 638 739 q 681 870 681 824 q 651 935 682 917 q 561 956 619 954 l 561 983 q 646 981 604 982 q 725 979 688 979 q 785 981 760 979 q 831 983 810 982 m 511 447 l 511 147 q 519 72 511 97 q 551 39 528 47 q 621 28 575 31 l 621 0 q 536 3 588 3 q 432 4 485 4 q 324 3 375 4 q 242 0 272 3 l 242 28 q 313 39 289 31 q 344 72 336 47 q 351 147 351 97 l 351 432 l 442 346 l 511 447 m 418 -254 q 355 -232 381 -254 q 329 -172 329 -210 q 353 -112 329 -136 q 418 -89 376 -89 q 483 -113 460 -89 q 507 -172 507 -137 q 481 -232 507 -210 q 418 -254 456 -254 z "},"Ỳ":{"ha":836,"x_min":-6,"x_max":831,"o":"m 831 983 l 831 956 q 774 917 803 949 q 711 819 746 886 l 438 276 l 400 276 l 75 876 q 28 940 47 926 q -6 954 10 954 l -6 983 q 58 981 25 982 q 131 979 92 979 q 239 980 181 979 q 347 983 297 981 l 347 954 q 285 947 313 954 q 249 920 258 940 q 260 863 240 900 l 489 422 l 467 399 l 638 739 q 681 870 681 824 q 651 935 682 917 q 561 956 619 954 l 561 983 q 646 981 604 982 q 725 979 688 979 q 785 981 760 979 q 831 983 810 982 m 511 447 l 511 147 q 519 72 511 97 q 551 39 528 47 q 621 28 575 31 l 621 0 q 536 3 588 3 q 432 4 485 4 q 324 3 375 4 q 242 0 272 3 l 242 28 q 313 39 289 31 q 344 72 336 47 q 351 147 351 97 l 351 432 l 442 346 l 511 447 m 297 1290 q 356 1244 328 1272 q 424 1178 383 1217 q 528 1090 464 1140 l 518 1072 q 393 1124 446 1106 q 303 1155 340 1142 q 236 1185 267 1168 q 199 1228 206 1204 q 203 1274 192 1253 q 243 1301 217 1296 q 297 1290 269 1307 z "},"Ỷ":{"ha":836,"x_min":-6,"x_max":831,"o":"m 831 983 l 831 956 q 774 917 803 949 q 711 819 746 886 l 438 276 l 400 276 l 75 876 q 28 940 47 926 q -6 954 10 954 l -6 983 q 58 981 25 982 q 131 979 92 979 q 239 980 181 979 q 347 983 297 981 l 347 954 q 285 947 313 954 q 249 920 258 940 q 260 863 240 900 l 489 422 l 467 399 l 638 739 q 681 870 681 824 q 651 935 682 917 q 561 956 619 954 l 561 983 q 646 981 604 982 q 725 979 688 979 q 785 981 760 979 q 831 983 810 982 m 511 447 l 511 147 q 519 72 511 97 q 551 39 528 47 q 621 28 575 31 l 621 0 q 536 3 588 3 q 432 4 485 4 q 324 3 375 4 q 242 0 272 3 l 242 28 q 313 39 289 31 q 344 72 336 47 q 351 147 351 97 l 351 432 l 442 346 l 511 447 m 418 1063 l 418 1139 q 489 1185 468 1158 q 510 1244 510 1213 q 481 1306 510 1285 q 410 1326 451 1326 q 373 1322 392 1326 q 344 1306 354 1317 q 380 1284 367 1300 q 393 1243 393 1268 q 374 1195 393 1213 q 326 1178 356 1178 q 281 1195 299 1178 q 263 1242 263 1213 q 279 1290 263 1269 q 317 1325 296 1311 q 367 1346 339 1338 q 440 1354 396 1354 q 524 1344 483 1354 q 590 1311 564 1333 q 617 1251 617 1289 q 595 1197 617 1222 q 535 1153 574 1171 q 446 1126 497 1136 l 446 1063 l 418 1063 z "},"Ỹ":{"ha":836,"x_min":-6,"x_max":831,"o":"m 831 983 l 831 956 q 774 917 803 949 q 711 819 746 886 l 438 276 l 400 276 l 75 876 q 28 940 47 926 q -6 954 10 954 l -6 983 q 58 981 25 982 q 131 979 92 979 q 239 980 181 979 q 347 983 297 981 l 347 954 q 285 947 313 954 q 249 920 258 940 q 260 863 240 900 l 489 422 l 467 399 l 638 739 q 681 870 681 824 q 651 935 682 917 q 561 956 619 954 l 561 983 q 646 981 604 982 q 725 979 688 979 q 785 981 760 979 q 831 983 810 982 m 511 447 l 511 147 q 519 72 511 97 q 551 39 528 47 q 621 28 575 31 l 621 0 q 536 3 588 3 q 432 4 485 4 q 324 3 375 4 q 242 0 272 3 l 242 28 q 313 39 289 31 q 344 72 336 47 q 351 147 351 97 l 351 432 l 442 346 l 511 447 m 319 1263 q 396 1247 361 1263 q 462 1211 431 1232 q 526 1174 493 1190 q 596 1158 558 1158 q 650 1176 625 1158 q 692 1236 675 1193 l 713 1231 q 655 1112 703 1153 q 547 1071 607 1071 q 471 1086 506 1071 q 404 1122 436 1101 q 340 1159 372 1143 q 271 1175 308 1175 q 215 1158 240 1175 q 175 1097 190 1140 l 154 1103 q 213 1222 165 1181 q 319 1263 260 1263 z "},"Z":{"ha":829,"x_min":57,"x_max":767,"o":"m 767 983 l 767 956 l 239 32 l 469 32 q 572 47 528 32 q 645 92 615 61 q 693 176 675 124 q 718 306 711 229 l 750 306 q 746 189 746 261 q 748 108 746 161 q 756 0 750 56 q 643 3 704 3 q 522 4 582 4 q 410 4 461 4 q 232 3 325 4 q 57 0 139 3 l 57 28 l 588 951 l 357 951 q 253 938 296 951 q 183 893 211 924 q 138 810 154 863 q 113 683 121 758 l 81 683 q 84 733 83 704 q 85 794 85 763 q 83 875 85 822 q 75 983 81 928 q 184 981 125 982 q 302 979 243 979 q 410 979 361 979 q 590 980 494 979 q 767 983 686 981 z "},"Ź":{"ha":829,"x_min":57,"x_max":767,"o":"m 767 983 l 767 956 l 239 32 l 469 32 q 572 47 528 32 q 645 92 615 61 q 693 176 675 124 q 718 306 711 229 l 750 306 q 746 189 746 261 q 748 108 746 161 q 756 0 750 56 q 643 3 704 3 q 522 4 582 4 q 410 4 461 4 q 232 3 325 4 q 57 0 139 3 l 57 28 l 588 951 l 357 951 q 253 938 296 951 q 183 893 211 924 q 138 810 154 863 q 113 683 121 758 l 81 683 q 84 733 83 704 q 85 794 85 763 q 83 875 85 822 q 75 983 81 928 q 184 981 125 982 q 302 979 243 979 q 410 979 361 979 q 590 980 494 979 q 767 983 686 981 m 553 1290 q 608 1301 581 1307 q 647 1274 635 1296 q 651 1228 658 1253 q 614 1185 644 1204 q 547 1155 585 1168 q 457 1124 508 1142 q 332 1072 406 1106 l 322 1090 q 427 1178 388 1140 q 494 1244 467 1217 q 553 1290 522 1272 z "},"Ž":{"ha":829,"x_min":57,"x_max":767,"o":"m 767 983 l 767 956 l 239 32 l 469 32 q 572 47 528 32 q 645 92 615 61 q 693 176 675 124 q 718 306 711 229 l 750 306 q 746 189 746 261 q 748 108 746 161 q 756 0 750 56 q 643 3 704 3 q 522 4 582 4 q 410 4 461 4 q 232 3 325 4 q 57 0 139 3 l 57 28 l 588 951 l 357 951 q 253 938 296 951 q 183 893 211 924 q 138 810 154 863 q 113 683 121 758 l 81 683 q 84 733 83 704 q 85 794 85 763 q 83 875 85 822 q 75 983 81 928 q 184 981 125 982 q 302 979 243 979 q 410 979 361 979 q 590 980 494 979 q 767 983 686 981 m 682 1292 l 689 1272 q 528 1186 599 1239 q 421 1078 457 1133 l 396 1078 q 290 1186 361 1133 q 128 1272 218 1239 l 135 1292 q 304 1249 221 1275 q 436 1197 388 1222 q 545 1249 478 1222 q 682 1292 613 1275 z "},"Ż":{"ha":829,"x_min":57,"x_max":767,"o":"m 767 983 l 767 956 l 239 32 l 469 32 q 572 47 528 32 q 645 92 615 61 q 693 176 675 124 q 718 306 711 229 l 750 306 q 746 189 746 261 q 748 108 746 161 q 756 0 750 56 q 643 3 704 3 q 522 4 582 4 q 410 4 461 4 q 232 3 325 4 q 57 0 139 3 l 57 28 l 588 951 l 357 951 q 253 938 296 951 q 183 893 211 924 q 138 810 154 863 q 113 683 121 758 l 81 683 q 84 733 83 704 q 85 794 85 763 q 83 875 85 822 q 75 983 81 928 q 184 981 125 982 q 302 979 243 979 q 410 979 361 979 q 590 980 494 979 q 767 983 686 981 m 413 1335 q 485 1308 456 1335 q 514 1240 514 1281 q 485 1173 514 1200 q 413 1146 456 1146 q 340 1173 369 1146 q 311 1240 311 1200 q 340 1308 311 1281 q 413 1335 369 1335 z "},"a":{"ha":701,"x_min":50,"x_max":697,"o":"m 233 -10 q 133 13 175 -10 q 71 74 92 35 q 50 163 50 113 q 78 262 50 224 q 149 324 106 300 q 242 363 193 347 q 335 394 292 379 q 408 428 379 408 q 436 479 436 447 l 436 574 q 420 653 436 624 q 377 696 404 683 q 313 708 350 708 q 244 699 281 708 q 188 664 208 690 q 238 631 218 656 q 258 571 258 607 q 233 510 258 532 q 168 488 207 488 q 104 515 125 488 q 83 578 83 542 q 102 639 83 615 q 151 683 121 663 q 237 721 185 706 q 353 736 289 736 q 456 723 413 736 q 529 681 500 710 q 575 601 564 649 q 586 485 586 553 l 586 101 q 595 52 586 67 q 625 38 604 38 q 652 44 639 38 q 683 65 665 51 l 697 42 q 638 4 668 18 q 563 -10 608 -10 q 490 4 518 -10 q 449 44 463 18 q 436 110 436 71 q 350 21 400 51 q 233 -10 300 -10 m 300 57 q 373 79 339 57 q 436 146 407 101 l 436 422 q 392 384 421 400 q 329 351 363 368 q 266 313 296 335 q 217 258 236 292 q 197 174 197 225 q 225 88 197 119 q 300 57 253 57 z "},"á":{"ha":701,"x_min":50,"x_max":697,"o":"m 233 -10 q 133 13 175 -10 q 71 74 92 35 q 50 163 50 113 q 78 262 50 224 q 149 324 106 300 q 242 363 193 347 q 335 394 292 379 q 408 428 379 408 q 436 479 436 447 l 436 574 q 420 653 436 624 q 377 696 404 683 q 313 708 350 708 q 244 699 281 708 q 188 664 208 690 q 238 631 218 656 q 258 571 258 607 q 233 510 258 532 q 168 488 207 488 q 104 515 125 488 q 83 578 83 542 q 102 639 83 615 q 151 683 121 663 q 237 721 185 706 q 353 736 289 736 q 456 723 413 736 q 529 681 500 710 q 575 601 564 649 q 586 485 586 553 l 586 101 q 595 52 586 67 q 625 38 604 38 q 652 44 639 38 q 683 65 665 51 l 697 42 q 638 4 668 18 q 563 -10 608 -10 q 490 4 518 -10 q 449 44 463 18 q 436 110 436 71 q 350 21 400 51 q 233 -10 300 -10 m 300 57 q 373 79 339 57 q 436 146 407 101 l 436 422 q 392 384 421 400 q 329 351 363 368 q 266 313 296 335 q 217 258 236 292 q 197 174 197 225 q 225 88 197 119 q 300 57 253 57 m 499 1131 q 519 1090 517 1115 q 500 1038 521 1065 q 447 985 478 1010 q 374 925 417 960 q 275 832 332 890 l 260 844 q 326 965 303 915 q 367 1050 350 1014 q 404 1113 383 1086 q 452 1144 425 1140 q 499 1131 479 1147 z "},"ă":{"ha":701,"x_min":50,"x_max":697,"o":"m 233 -10 q 133 13 175 -10 q 71 74 92 35 q 50 163 50 113 q 78 262 50 224 q 149 324 106 300 q 242 363 193 347 q 335 394 292 379 q 408 428 379 408 q 436 479 436 447 l 436 574 q 420 653 436 624 q 377 696 404 683 q 313 708 350 708 q 244 699 281 708 q 188 664 208 690 q 238 631 218 656 q 258 571 258 607 q 233 510 258 532 q 168 488 207 488 q 104 515 125 488 q 83 578 83 542 q 102 639 83 615 q 151 683 121 663 q 237 721 185 706 q 353 736 289 736 q 456 723 413 736 q 529 681 500 710 q 575 601 564 649 q 586 485 586 553 l 586 101 q 595 52 586 67 q 625 38 604 38 q 652 44 639 38 q 683 65 665 51 l 697 42 q 638 4 668 18 q 563 -10 608 -10 q 490 4 518 -10 q 449 44 463 18 q 436 110 436 71 q 350 21 400 51 q 233 -10 300 -10 m 300 57 q 373 79 339 57 q 436 146 407 101 l 436 422 q 392 384 421 400 q 329 351 363 368 q 266 313 296 335 q 217 258 236 292 q 197 174 197 225 q 225 88 197 119 q 300 57 253 57 m 578 1094 l 601 1082 q 549 986 583 1035 q 465 906 515 938 q 347 874 415 874 q 229 906 279 874 q 145 986 179 938 q 93 1082 111 1035 l 117 1094 q 167 1038 136 1067 q 242 991 197 1010 q 347 972 286 972 q 453 991 408 972 q 528 1038 497 1010 q 578 1094 560 1067 z "},"ắ":{"ha":701,"x_min":50,"x_max":697,"o":"m 233 -10 q 133 13 175 -10 q 71 74 92 35 q 50 163 50 113 q 78 262 50 224 q 149 324 106 300 q 242 363 193 347 q 335 394 292 379 q 408 428 379 408 q 436 479 436 447 l 436 574 q 420 653 436 624 q 377 696 404 683 q 313 708 350 708 q 244 699 281 708 q 188 664 208 690 q 238 631 218 656 q 258 571 258 607 q 233 510 258 532 q 168 488 207 488 q 104 515 125 488 q 83 578 83 542 q 102 639 83 615 q 151 683 121 663 q 237 721 185 706 q 353 736 289 736 q 456 723 413 736 q 529 681 500 710 q 575 601 564 649 q 586 485 586 553 l 586 101 q 595 52 586 67 q 625 38 604 38 q 652 44 639 38 q 683 65 665 51 l 697 42 q 638 4 668 18 q 563 -10 608 -10 q 490 4 518 -10 q 449 44 463 18 q 436 110 436 71 q 350 21 400 51 q 233 -10 300 -10 m 300 57 q 373 79 339 57 q 436 146 407 101 l 436 422 q 392 384 421 400 q 329 351 363 368 q 266 313 296 335 q 217 258 236 292 q 197 174 197 225 q 225 88 197 119 q 300 57 253 57 m 578 1094 l 601 1082 q 549 986 583 1035 q 465 906 515 938 q 347 874 415 874 q 229 906 279 874 q 145 986 179 938 q 93 1082 111 1035 l 117 1094 q 167 1038 136 1067 q 242 991 197 1010 q 347 972 286 972 q 453 991 408 972 q 528 1038 497 1010 q 578 1094 560 1067 m 497 1399 q 517 1358 515 1383 q 499 1306 519 1333 q 446 1253 476 1278 q 373 1193 415 1228 q 274 1100 331 1158 l 258 1113 q 325 1233 301 1183 q 365 1318 349 1282 q 403 1381 382 1354 q 451 1412 424 1408 q 497 1399 478 1415 z "},"ặ":{"ha":701,"x_min":50,"x_max":697,"o":"m 233 -10 q 133 13 175 -10 q 71 74 92 35 q 50 163 50 113 q 78 262 50 224 q 149 324 106 300 q 242 363 193 347 q 335 394 292 379 q 408 428 379 408 q 436 479 436 447 l 436 574 q 420 653 436 624 q 377 696 404 683 q 313 708 350 708 q 244 699 281 708 q 188 664 208 690 q 238 631 218 656 q 258 571 258 607 q 233 510 258 532 q 168 488 207 488 q 104 515 125 488 q 83 578 83 542 q 102 639 83 615 q 151 683 121 663 q 237 721 185 706 q 353 736 289 736 q 456 723 413 736 q 529 681 500 710 q 575 601 564 649 q 586 485 586 553 l 586 101 q 595 52 586 67 q 625 38 604 38 q 652 44 639 38 q 683 65 665 51 l 697 42 q 638 4 668 18 q 563 -10 608 -10 q 490 4 518 -10 q 449 44 463 18 q 436 110 436 71 q 350 21 400 51 q 233 -10 300 -10 m 300 57 q 373 79 339 57 q 436 146 407 101 l 436 422 q 392 384 421 400 q 329 351 363 368 q 266 313 296 335 q 217 258 236 292 q 197 174 197 225 q 225 88 197 119 q 300 57 253 57 m 578 1094 l 601 1082 q 549 986 583 1035 q 465 906 515 938 q 347 874 415 874 q 229 906 279 874 q 145 986 179 938 q 93 1082 111 1035 l 117 1094 q 167 1038 136 1067 q 242 991 197 1010 q 347 972 286 972 q 453 991 408 972 q 528 1038 497 1010 q 578 1094 560 1067 m 350 -254 q 287 -232 313 -254 q 261 -172 261 -210 q 285 -112 261 -136 q 350 -89 308 -89 q 415 -113 392 -89 q 439 -172 439 -137 q 413 -232 439 -210 q 350 -254 388 -254 z "},"ằ":{"ha":701,"x_min":50,"x_max":697,"o":"m 233 -10 q 133 13 175 -10 q 71 74 92 35 q 50 163 50 113 q 78 262 50 224 q 149 324 106 300 q 242 363 193 347 q 335 394 292 379 q 408 428 379 408 q 436 479 436 447 l 436 574 q 420 653 436 624 q 377 696 404 683 q 313 708 350 708 q 244 699 281 708 q 188 664 208 690 q 238 631 218 656 q 258 571 258 607 q 233 510 258 532 q 168 488 207 488 q 104 515 125 488 q 83 578 83 542 q 102 639 83 615 q 151 683 121 663 q 237 721 185 706 q 353 736 289 736 q 456 723 413 736 q 529 681 500 710 q 575 601 564 649 q 586 485 586 553 l 586 101 q 595 52 586 67 q 625 38 604 38 q 652 44 639 38 q 683 65 665 51 l 697 42 q 638 4 668 18 q 563 -10 608 -10 q 490 4 518 -10 q 449 44 463 18 q 436 110 436 71 q 350 21 400 51 q 233 -10 300 -10 m 300 57 q 373 79 339 57 q 436 146 407 101 l 436 422 q 392 384 421 400 q 329 351 363 368 q 266 313 296 335 q 217 258 236 292 q 197 174 197 225 q 225 88 197 119 q 300 57 253 57 m 578 1094 l 601 1082 q 549 986 583 1035 q 465 906 515 938 q 347 874 415 874 q 229 906 279 874 q 145 986 179 938 q 93 1082 111 1035 l 117 1094 q 167 1038 136 1067 q 242 991 197 1010 q 347 972 286 972 q 453 991 408 972 q 528 1038 497 1010 q 578 1094 560 1067 m 175 1399 q 222 1411 194 1415 q 269 1381 249 1407 q 307 1318 290 1354 q 348 1233 324 1282 q 414 1113 372 1183 l 399 1100 q 299 1193 342 1158 q 227 1253 257 1228 q 174 1306 197 1278 q 155 1358 153 1333 q 175 1399 157 1383 z "},"ẳ":{"ha":701,"x_min":50,"x_max":697,"o":"m 233 -10 q 133 13 175 -10 q 71 74 92 35 q 50 163 50 113 q 78 262 50 224 q 149 324 106 300 q 242 363 193 347 q 335 394 292 379 q 408 428 379 408 q 436 479 436 447 l 436 574 q 420 653 436 624 q 377 696 404 683 q 313 708 350 708 q 244 699 281 708 q 188 664 208 690 q 238 631 218 656 q 258 571 258 607 q 233 510 258 532 q 168 488 207 488 q 104 515 125 488 q 83 578 83 542 q 102 639 83 615 q 151 683 121 663 q 237 721 185 706 q 353 736 289 736 q 456 723 413 736 q 529 681 500 710 q 575 601 564 649 q 586 485 586 553 l 586 101 q 595 52 586 67 q 625 38 604 38 q 652 44 639 38 q 683 65 665 51 l 697 42 q 638 4 668 18 q 563 -10 608 -10 q 490 4 518 -10 q 449 44 463 18 q 436 110 436 71 q 350 21 400 51 q 233 -10 300 -10 m 300 57 q 373 79 339 57 q 436 146 407 101 l 436 422 q 392 384 421 400 q 329 351 363 368 q 266 313 296 335 q 217 258 236 292 q 197 174 197 225 q 225 88 197 119 q 300 57 253 57 m 578 1094 l 601 1082 q 549 986 583 1035 q 465 906 515 938 q 347 874 415 874 q 229 906 279 874 q 145 986 179 938 q 93 1082 111 1035 l 117 1094 q 167 1038 136 1067 q 242 991 197 1010 q 347 972 286 972 q 453 991 408 972 q 528 1038 497 1010 q 578 1094 560 1067 m 332 1093 l 332 1169 q 413 1222 389 1192 q 438 1292 438 1251 q 414 1360 438 1335 q 349 1385 390 1385 q 314 1381 333 1385 q 285 1364 294 1376 q 321 1342 307 1358 q 335 1301 335 1326 q 316 1253 335 1271 q 268 1236 297 1236 q 222 1253 240 1236 q 204 1300 204 1271 q 221 1349 204 1328 q 258 1383 238 1369 q 308 1403 276 1394 q 379 1413 339 1413 q 497 1383 450 1413 q 544 1299 544 1353 q 491 1209 544 1244 q 360 1157 438 1174 l 360 1093 l 332 1093 z "},"ẵ":{"ha":701,"x_min":50,"x_max":697,"o":"m 233 -10 q 133 13 175 -10 q 71 74 92 35 q 50 163 50 113 q 78 262 50 224 q 149 324 106 300 q 242 363 193 347 q 335 394 292 379 q 408 428 379 408 q 436 479 436 447 l 436 574 q 420 653 436 624 q 377 696 404 683 q 313 708 350 708 q 244 699 281 708 q 188 664 208 690 q 238 631 218 656 q 258 571 258 607 q 233 510 258 532 q 168 488 207 488 q 104 515 125 488 q 83 578 83 542 q 102 639 83 615 q 151 683 121 663 q 237 721 185 706 q 353 736 289 736 q 456 723 413 736 q 529 681 500 710 q 575 601 564 649 q 586 485 586 553 l 586 101 q 595 52 586 67 q 625 38 604 38 q 652 44 639 38 q 683 65 665 51 l 697 42 q 638 4 668 18 q 563 -10 608 -10 q 490 4 518 -10 q 449 44 463 18 q 436 110 436 71 q 350 21 400 51 q 233 -10 300 -10 m 300 57 q 373 79 339 57 q 436 146 407 101 l 436 422 q 392 384 421 400 q 329 351 363 368 q 266 313 296 335 q 217 258 236 292 q 197 174 197 225 q 225 88 197 119 q 300 57 253 57 m 578 1094 l 601 1082 q 549 986 583 1035 q 465 906 515 938 q 347 874 415 874 q 229 906 279 874 q 145 986 179 938 q 93 1082 111 1035 l 117 1094 q 167 1038 136 1067 q 242 991 197 1010 q 347 972 286 972 q 453 991 408 972 q 528 1038 497 1010 q 578 1094 560 1067 m 243 1343 q 310 1329 282 1343 q 360 1297 338 1315 q 406 1265 382 1279 q 461 1251 429 1251 q 517 1269 490 1251 q 568 1325 544 1286 l 588 1315 q 520 1193 565 1231 q 421 1156 475 1156 q 353 1169 382 1156 q 303 1202 325 1183 q 257 1235 281 1221 q 201 1249 233 1249 q 145 1231 172 1249 q 94 1174 118 1214 l 75 1183 q 143 1306 97 1269 q 243 1343 189 1343 z "},"ǎ":{"ha":701,"x_min":50,"x_max":697,"o":"m 233 -10 q 133 13 175 -10 q 71 74 92 35 q 50 163 50 113 q 78 262 50 224 q 149 324 106 300 q 242 363 193 347 q 335 394 292 379 q 408 428 379 408 q 436 479 436 447 l 436 574 q 420 653 436 624 q 377 696 404 683 q 313 708 350 708 q 244 699 281 708 q 188 664 208 690 q 238 631 218 656 q 258 571 258 607 q 233 510 258 532 q 168 488 207 488 q 104 515 125 488 q 83 578 83 542 q 102 639 83 615 q 151 683 121 663 q 237 721 185 706 q 353 736 289 736 q 456 723 413 736 q 529 681 500 710 q 575 601 564 649 q 586 485 586 553 l 586 101 q 595 52 586 67 q 625 38 604 38 q 652 44 639 38 q 683 65 665 51 l 697 42 q 638 4 668 18 q 563 -10 608 -10 q 490 4 518 -10 q 449 44 463 18 q 436 110 436 71 q 350 21 400 51 q 233 -10 300 -10 m 300 57 q 373 79 339 57 q 436 146 407 101 l 436 422 q 392 384 421 400 q 329 351 363 368 q 266 313 296 335 q 217 258 236 292 q 197 174 197 225 q 225 88 197 119 q 300 57 253 57 m 574 1122 l 585 1103 q 441 993 504 1061 q 347 853 378 925 l 322 853 q 228 993 292 925 q 85 1103 165 1061 l 96 1122 q 245 1064 172 1099 q 363 994 318 1029 q 457 1064 400 1029 q 574 1122 514 1099 z "},"â":{"ha":701,"x_min":50,"x_max":697,"o":"m 233 -10 q 133 13 175 -10 q 71 74 92 35 q 50 163 50 113 q 78 262 50 224 q 149 324 106 300 q 242 363 193 347 q 335 394 292 379 q 408 428 379 408 q 436 479 436 447 l 436 574 q 420 653 436 624 q 377 696 404 683 q 313 708 350 708 q 244 699 281 708 q 188 664 208 690 q 238 631 218 656 q 258 571 258 607 q 233 510 258 532 q 168 488 207 488 q 104 515 125 488 q 83 578 83 542 q 102 639 83 615 q 151 683 121 663 q 237 721 185 706 q 353 736 289 736 q 456 723 413 736 q 529 681 500 710 q 575 601 564 649 q 586 485 586 553 l 586 101 q 595 52 586 67 q 625 38 604 38 q 652 44 639 38 q 683 65 665 51 l 697 42 q 638 4 668 18 q 563 -10 608 -10 q 490 4 518 -10 q 449 44 463 18 q 436 110 436 71 q 350 21 400 51 q 233 -10 300 -10 m 300 57 q 373 79 339 57 q 436 146 407 101 l 436 422 q 392 384 421 400 q 329 351 363 368 q 266 313 296 335 q 217 258 236 292 q 197 174 197 225 q 225 88 197 119 q 300 57 253 57 m 361 1122 q 455 983 392 1050 q 599 872 518 915 l 588 853 q 439 911 511 876 q 321 981 367 946 q 227 911 285 946 q 110 853 169 876 l 99 872 q 242 983 179 915 q 336 1122 306 1050 l 361 1122 z "},"ấ":{"ha":701,"x_min":50,"x_max":697,"o":"m 233 -10 q 133 13 175 -10 q 71 74 92 35 q 50 163 50 113 q 78 262 50 224 q 149 324 106 300 q 242 363 193 347 q 335 394 292 379 q 408 428 379 408 q 436 479 436 447 l 436 574 q 420 653 436 624 q 377 696 404 683 q 313 708 350 708 q 244 699 281 708 q 188 664 208 690 q 238 631 218 656 q 258 571 258 607 q 233 510 258 532 q 168 488 207 488 q 104 515 125 488 q 83 578 83 542 q 102 639 83 615 q 151 683 121 663 q 237 721 185 706 q 353 736 289 736 q 456 723 413 736 q 529 681 500 710 q 575 601 564 649 q 586 485 586 553 l 586 101 q 595 52 586 67 q 625 38 604 38 q 652 44 639 38 q 683 65 665 51 l 697 42 q 638 4 668 18 q 563 -10 608 -10 q 490 4 518 -10 q 449 44 463 18 q 436 110 436 71 q 350 21 400 51 q 233 -10 300 -10 m 300 57 q 373 79 339 57 q 436 146 407 101 l 436 422 q 392 384 421 400 q 329 351 363 368 q 266 313 296 335 q 217 258 236 292 q 197 174 197 225 q 225 88 197 119 q 300 57 253 57 m 361 1122 q 455 983 392 1050 q 599 872 518 915 l 588 853 q 439 911 511 876 q 321 981 367 946 q 227 911 285 946 q 110 853 169 876 l 99 872 q 242 983 179 915 q 336 1122 306 1050 l 361 1122 m 486 1468 q 506 1428 504 1453 q 488 1375 508 1403 q 435 1322 465 1347 q 362 1263 404 1297 q 263 1169 319 1228 l 247 1182 q 314 1302 290 1253 q 354 1388 338 1351 q 392 1450 371 1424 q 440 1481 413 1478 q 486 1468 467 1485 z "},"ậ":{"ha":701,"x_min":50,"x_max":697,"o":"m 233 -10 q 133 13 175 -10 q 71 74 92 35 q 50 163 50 113 q 78 262 50 224 q 149 324 106 300 q 242 363 193 347 q 335 394 292 379 q 408 428 379 408 q 436 479 436 447 l 436 574 q 420 653 436 624 q 377 696 404 683 q 313 708 350 708 q 244 699 281 708 q 188 664 208 690 q 238 631 218 656 q 258 571 258 607 q 233 510 258 532 q 168 488 207 488 q 104 515 125 488 q 83 578 83 542 q 102 639 83 615 q 151 683 121 663 q 237 721 185 706 q 353 736 289 736 q 456 723 413 736 q 529 681 500 710 q 575 601 564 649 q 586 485 586 553 l 586 101 q 595 52 586 67 q 625 38 604 38 q 652 44 639 38 q 683 65 665 51 l 697 42 q 638 4 668 18 q 563 -10 608 -10 q 490 4 518 -10 q 449 44 463 18 q 436 110 436 71 q 350 21 400 51 q 233 -10 300 -10 m 300 57 q 373 79 339 57 q 436 146 407 101 l 436 422 q 392 384 421 400 q 329 351 363 368 q 266 313 296 335 q 217 258 236 292 q 197 174 197 225 q 225 88 197 119 q 300 57 253 57 m 361 1122 q 455 983 392 1050 q 599 872 518 915 l 588 853 q 439 911 511 876 q 321 981 367 946 q 227 911 285 946 q 110 853 169 876 l 99 872 q 242 983 179 915 q 336 1122 306 1050 l 361 1122 m 350 -254 q 287 -232 313 -254 q 261 -172 261 -210 q 285 -112 261 -136 q 350 -89 308 -89 q 415 -113 392 -89 q 439 -172 439 -137 q 413 -232 439 -210 q 350 -254 388 -254 z "},"ầ":{"ha":701,"x_min":50,"x_max":697,"o":"m 233 -10 q 133 13 175 -10 q 71 74 92 35 q 50 163 50 113 q 78 262 50 224 q 149 324 106 300 q 242 363 193 347 q 335 394 292 379 q 408 428 379 408 q 436 479 436 447 l 436 574 q 420 653 436 624 q 377 696 404 683 q 313 708 350 708 q 244 699 281 708 q 188 664 208 690 q 238 631 218 656 q 258 571 258 607 q 233 510 258 532 q 168 488 207 488 q 104 515 125 488 q 83 578 83 542 q 102 639 83 615 q 151 683 121 663 q 237 721 185 706 q 353 736 289 736 q 456 723 413 736 q 529 681 500 710 q 575 601 564 649 q 586 485 586 553 l 586 101 q 595 52 586 67 q 625 38 604 38 q 652 44 639 38 q 683 65 665 51 l 697 42 q 638 4 668 18 q 563 -10 608 -10 q 490 4 518 -10 q 449 44 463 18 q 436 110 436 71 q 350 21 400 51 q 233 -10 300 -10 m 300 57 q 373 79 339 57 q 436 146 407 101 l 436 422 q 392 384 421 400 q 329 351 363 368 q 266 313 296 335 q 217 258 236 292 q 197 174 197 225 q 225 88 197 119 q 300 57 253 57 m 361 1122 q 455 983 392 1050 q 599 872 518 915 l 588 853 q 439 911 511 876 q 321 981 367 946 q 227 911 285 946 q 110 853 169 876 l 99 872 q 242 983 179 915 q 336 1122 306 1050 l 361 1122 m 164 1468 q 210 1481 183 1485 q 258 1450 238 1476 q 296 1388 279 1424 q 337 1302 313 1351 q 403 1182 361 1253 l 388 1169 q 288 1263 331 1228 q 216 1322 246 1297 q 163 1375 186 1347 q 144 1428 142 1403 q 164 1468 146 1453 z "},"ẩ":{"ha":701,"x_min":50,"x_max":783,"o":"m 233 -10 q 133 13 175 -10 q 71 74 92 35 q 50 163 50 113 q 78 262 50 224 q 149 324 106 300 q 242 363 193 347 q 335 394 292 379 q 408 428 379 408 q 436 479 436 447 l 436 574 q 420 653 436 624 q 377 696 404 683 q 313 708 350 708 q 244 699 281 708 q 188 664 208 690 q 238 631 218 656 q 258 571 258 607 q 233 510 258 532 q 168 488 207 488 q 104 515 125 488 q 83 578 83 542 q 102 639 83 615 q 151 683 121 663 q 237 721 185 706 q 353 736 289 736 q 456 723 413 736 q 529 681 500 710 q 575 601 564 649 q 586 485 586 553 l 586 101 q 595 52 586 67 q 625 38 604 38 q 652 44 639 38 q 683 65 665 51 l 697 42 q 638 4 668 18 q 563 -10 608 -10 q 490 4 518 -10 q 449 44 463 18 q 436 110 436 71 q 350 21 400 51 q 233 -10 300 -10 m 300 57 q 373 79 339 57 q 436 146 407 101 l 436 422 q 392 384 421 400 q 329 351 363 368 q 266 313 296 335 q 217 258 236 292 q 197 174 197 225 q 225 88 197 119 q 300 57 253 57 m 361 1122 q 455 983 392 1050 q 599 872 518 915 l 588 853 q 439 911 511 876 q 321 981 367 946 q 227 911 285 946 q 110 853 169 876 l 99 872 q 242 983 179 915 q 336 1122 306 1050 l 361 1122 m 571 1060 l 571 1136 q 652 1188 628 1158 q 676 1258 676 1218 q 653 1326 676 1301 q 588 1351 629 1351 q 553 1347 572 1351 q 524 1331 533 1343 q 560 1309 546 1325 q 574 1268 574 1293 q 555 1220 574 1238 q 507 1203 536 1203 q 461 1220 479 1203 q 443 1267 443 1238 q 460 1315 443 1294 q 497 1350 476 1336 q 547 1370 515 1361 q 618 1379 578 1379 q 736 1349 689 1379 q 783 1265 783 1319 q 730 1176 783 1211 q 599 1124 676 1140 l 599 1060 l 571 1060 z "},"ẫ":{"ha":701,"x_min":50,"x_max":697,"o":"m 233 -10 q 133 13 175 -10 q 71 74 92 35 q 50 163 50 113 q 78 262 50 224 q 149 324 106 300 q 242 363 193 347 q 335 394 292 379 q 408 428 379 408 q 436 479 436 447 l 436 574 q 420 653 436 624 q 377 696 404 683 q 313 708 350 708 q 244 699 281 708 q 188 664 208 690 q 238 631 218 656 q 258 571 258 607 q 233 510 258 532 q 168 488 207 488 q 104 515 125 488 q 83 578 83 542 q 102 639 83 615 q 151 683 121 663 q 237 721 185 706 q 353 736 289 736 q 456 723 413 736 q 529 681 500 710 q 575 601 564 649 q 586 485 586 553 l 586 101 q 595 52 586 67 q 625 38 604 38 q 652 44 639 38 q 683 65 665 51 l 697 42 q 638 4 668 18 q 563 -10 608 -10 q 490 4 518 -10 q 449 44 463 18 q 436 110 436 71 q 350 21 400 51 q 233 -10 300 -10 m 300 57 q 373 79 339 57 q 436 146 407 101 l 436 422 q 392 384 421 400 q 329 351 363 368 q 266 313 296 335 q 217 258 236 292 q 197 174 197 225 q 225 88 197 119 q 300 57 253 57 m 361 1122 q 455 983 392 1050 q 599 872 518 915 l 588 853 q 439 911 511 876 q 321 981 367 946 q 227 911 285 946 q 110 853 169 876 l 99 872 q 242 983 179 915 q 336 1122 306 1050 l 361 1122 m 232 1413 q 299 1399 271 1413 q 349 1367 326 1385 q 394 1335 371 1349 q 450 1321 418 1321 q 506 1338 479 1321 q 557 1394 533 1356 l 576 1385 q 509 1263 554 1300 q 410 1225 464 1225 q 342 1239 371 1225 q 292 1272 314 1253 q 246 1304 269 1290 q 190 1318 222 1318 q 134 1301 161 1318 q 83 1243 107 1283 l 64 1253 q 132 1376 86 1339 q 232 1413 178 1413 z "}}}
